<svg width="19" height="19" viewBox="0 0 19 19" fill="none" xmlns="http://www.w3.org/2000/svg">
<path d="M9.48901 0.000854492C9.14844 0.000854492 8.80811 0.0191631 8.46948 0.0556614C8.1591 0.0873646 7.85253 0.139358 7.55008 0.202447C7.49155 0.214693 7.43298 0.227612 7.37445 0.241125C5.59245 0.646847 3.96529 1.55796 2.68809 2.8652C2.56932 2.98694 2.45305 3.11228 2.33935 3.2412C-1.11075 7.20204 -0.696703 13.2098 3.26417 16.6599C7.05619 19.9629 12.7641 19.7431 16.291 16.1583C16.41 16.0366 16.5262 15.9113 16.6397 15.7823C18.1623 14.0484 19.0013 11.8193 19 9.51177C19 4.25899 14.7418 0.000814863 9.48901 0.000854492ZM3.11069 3.34075C3.16078 3.28875 3.21277 3.23898 3.26382 3.18857C3.32278 3.13055 3.38143 3.07222 3.44167 3.01611C3.49461 2.96665 3.54914 2.91909 3.60336 2.8709C3.66454 2.81669 3.72541 2.76248 3.78819 2.71017C3.84335 2.66357 3.9001 2.61886 3.95653 2.57385C4.01994 2.52312 4.08334 2.4724 4.14865 2.42357C4.20635 2.38014 4.265 2.33797 4.32397 2.29676C4.3896 2.24984 4.45554 2.20165 4.52243 2.1579C4.58235 2.11732 4.6429 2.07801 4.70377 2.03901C4.77162 1.99558 4.83978 1.95278 4.90858 1.9122C4.97052 1.87523 5.03285 1.83885 5.09562 1.80314C5.16581 1.7632 5.23627 1.7242 5.30709 1.68616C5.37049 1.65235 5.4339 1.61926 5.4973 1.58693C5.56959 1.55047 5.6425 1.51528 5.71574 1.48072C5.77915 1.4506 5.84509 1.42048 5.9104 1.39195C5.9849 1.36025 6.06035 1.32854 6.13581 1.29684C6.20143 1.26989 6.26674 1.24358 6.333 1.21822C6.40972 1.18905 6.48739 1.16179 6.56507 1.13452C6.63133 1.11138 6.69759 1.08823 6.7648 1.06636C6.84374 1.041 6.92331 1.01754 7.0032 0.994393C7.0701 0.975054 7.13636 0.955081 7.20357 0.93701C7.22925 0.930353 7.25493 0.924963 7.28061 0.918305C6.34219 1.82949 5.64579 2.96035 5.25446 4.20846C4.50198 4.01 3.77352 3.72966 3.08216 3.37245C3.09262 3.36135 3.1015 3.35026 3.11069 3.34075ZM2.6548 3.85117C3.41635 4.26378 4.22391 4.58518 5.06075 4.8086C4.65051 6.23509 4.43517 7.71052 4.42066 9.19474H0.619454C0.688528 7.2375 1.40427 5.35838 2.6548 3.85117ZM2.6548 15.1724C1.40435 13.6651 0.688607 11.786 0.619454 9.8288H4.42066C4.43517 11.313 4.65047 12.7885 5.06075 14.2149C4.22395 14.4384 3.41639 14.7598 2.6548 15.1724ZM7.20167 18.0878C7.13763 18.0716 7.07137 18.0507 7.00542 18.0314C6.92521 18.0079 6.84469 17.9845 6.76543 17.9588C6.69854 17.9372 6.6326 17.9141 6.56665 17.8909C6.48866 17.864 6.41067 17.8364 6.33363 17.8069C6.26769 17.7819 6.2027 17.7556 6.13739 17.7289C6.06162 17.6972 5.98585 17.6655 5.91071 17.6338C5.84604 17.6053 5.78168 17.5759 5.71764 17.5457C5.64377 17.5108 5.57022 17.4753 5.49572 17.4385C5.43231 17.4068 5.36891 17.3751 5.3055 17.3406C5.23385 17.3022 5.16284 17.2629 5.09182 17.2223C5.02841 17.1871 4.96818 17.151 4.90699 17.1142C4.83724 17.0723 4.76877 17.0292 4.70029 16.9852C4.64005 16.9468 4.57981 16.9078 4.52053 16.8679C4.453 16.8222 4.38611 16.7747 4.31985 16.7271C4.26183 16.6856 4.20381 16.644 4.14675 16.6003C4.08112 16.5508 4.01677 16.4998 3.95273 16.4484C3.89661 16.4037 3.84081 16.3593 3.78597 16.3134C3.72256 16.2607 3.66137 16.2059 3.59987 16.1514C3.54597 16.1035 3.49176 16.0563 3.43913 16.0074C3.37858 15.951 3.31993 15.8924 3.26096 15.8343C3.20992 15.7839 3.15793 15.7342 3.10784 15.6825C3.09864 15.6727 3.08977 15.6625 3.08057 15.653C3.7719 15.2956 4.50036 15.0152 5.25287 14.8167C5.64429 16.0647 6.34065 17.1956 7.27902 18.1068C7.25334 18.1002 7.22735 18.0948 7.20167 18.0878ZM9.17202 18.3636C7.81544 18.1709 6.62625 16.755 5.87806 14.6642C6.95977 14.422 8.06364 14.292 9.17202 14.2764V18.3636ZM9.17202 13.6424C7.99623 13.6578 6.82539 13.7975 5.67896 14.059C5.28089 12.6836 5.0709 11.2606 5.05473 9.8288H9.17202V13.6424ZM9.17202 9.19474H5.05473C5.07086 7.76298 5.28085 6.33999 5.67896 4.96458C6.82539 5.22602 7.99627 5.36567 9.17202 5.38116V9.19474ZM9.17202 4.7471C8.0636 4.73164 6.95977 4.6017 5.87806 4.35937C6.62625 2.26854 7.81544 0.85268 9.17202 0.659924V4.7471ZM16.3233 3.85117C17.5738 5.35842 18.2895 7.23754 18.3586 9.19474H14.5574C14.5429 7.71052 14.3276 6.23509 13.9174 4.8086C14.7542 4.58506 15.5617 4.26371 16.3233 3.85117ZM11.7739 0.935425C11.8405 0.951911 11.9067 0.972835 11.9727 0.992174C12.0529 1.01563 12.1334 1.03909 12.2127 1.06477C12.2796 1.08633 12.3455 1.10948 12.4114 1.13262C12.4894 1.15957 12.5674 1.18715 12.6445 1.21663C12.7104 1.24168 12.7754 1.26799 12.8407 1.29462C12.9165 1.32633 12.9923 1.35803 13.0674 1.38973C13.1321 1.41826 13.1964 1.44763 13.2605 1.47787C13.3343 1.51274 13.4079 1.54825 13.4824 1.58502C13.5458 1.61673 13.6092 1.64843 13.6726 1.68299C13.7443 1.72135 13.8153 1.76066 13.8863 1.80124C13.9497 1.83643 14.0099 1.87257 14.0711 1.90935C14.1409 1.9512 14.2093 1.99431 14.2778 2.03838C14.3381 2.07674 14.3983 2.11573 14.4576 2.15568C14.5251 2.20133 14.5917 2.24857 14.6579 2.29613C14.7163 2.33766 14.7743 2.37951 14.8317 2.42294C14.897 2.47208 14.961 2.52312 15.0254 2.57448C15.0812 2.61886 15.1373 2.66325 15.1921 2.70954C15.2555 2.76216 15.3167 2.81701 15.3782 2.87154C15.4321 2.91941 15.4863 2.96665 15.539 3.01547C15.5995 3.0719 15.6582 3.13055 15.7171 3.18857C15.7682 3.23898 15.8202 3.28875 15.8703 3.34043C15.8795 3.35026 15.8883 3.3604 15.8975 3.36991C15.2062 3.72729 14.4777 4.00774 13.7252 4.20624C13.3331 2.95801 12.6358 1.82728 11.6965 0.916403C11.7222 0.923061 11.7482 0.92845 11.7739 0.935425ZM9.80608 0.659924C11.1627 0.85268 12.3518 2.26854 13.1 4.35937C12.0183 4.60158 10.9145 4.73153 9.80608 4.7471V0.659924ZM9.80608 5.38116C10.9819 5.36571 12.1527 5.22606 13.2991 4.96458C13.6972 6.33999 13.9072 7.76298 13.9234 9.19474H9.80608V5.38116ZM9.80608 9.8288H13.9234C13.9072 11.2606 13.6973 12.6836 13.2991 14.059C12.1527 13.7975 10.9819 13.6579 9.80608 13.6424V9.8288ZM9.80608 18.3636V14.2764C10.9145 14.2919 12.0183 14.4218 13.1 14.6642C12.3518 16.755 11.1627 18.1709 9.80608 18.3636ZM15.8674 15.6828C15.8173 15.7345 15.7656 15.7842 15.7146 15.8347C15.6556 15.8927 15.5967 15.9513 15.5361 16.0078C15.4835 16.0569 15.4293 16.1029 15.3754 16.152C15.3139 16.2065 15.2527 16.2611 15.1899 16.3137C15.1344 16.36 15.078 16.4047 15.0216 16.4497C14.9582 16.5004 14.8948 16.5511 14.8295 16.6C14.7718 16.6434 14.7131 16.6856 14.6541 16.7268C14.5885 16.7737 14.5226 16.8219 14.4557 16.8656C14.3958 16.9062 14.3352 16.9455 14.2743 16.9842C14.2065 17.028 14.1381 17.0702 14.0692 17.111C14.0058 17.1481 13.9452 17.1843 13.8828 17.2201C13.8126 17.26 13.742 17.299 13.671 17.3371C13.6076 17.3709 13.5442 17.404 13.4808 17.4363C13.4085 17.4728 13.3356 17.508 13.2624 17.5425C13.199 17.5726 13.133 17.6027 13.0677 17.6313C12.9932 17.663 12.9177 17.6947 12.8423 17.7264C12.7767 17.753 12.7114 17.7796 12.6454 17.8047C12.5681 17.8342 12.4904 17.8618 12.4124 17.8887C12.3465 17.9118 12.2805 17.935 12.2136 17.9566C12.1344 17.9822 12.0551 18.0057 11.9743 18.0288C11.908 18.0485 11.8414 18.0681 11.7745 18.0862C11.7489 18.0929 11.7232 18.0983 11.6975 18.1049C12.6359 17.1937 13.3323 16.0629 13.7236 14.8148C14.4761 15.0132 15.2046 15.2936 15.8959 15.6508C15.8855 15.6622 15.8766 15.6733 15.8674 15.6828ZM16.3233 15.1724C15.5618 14.7598 14.7542 14.4384 13.9174 14.2149C14.3276 12.7885 14.5429 11.313 14.5574 9.8288H18.3586C18.2896 11.786 17.5738 13.6652 16.3233 15.1724Z" fill="white"/>
</svg>
