<svg width="25" height="25" viewBox="0 0 25 25" fill="none" xmlns="http://www.w3.org/2000/svg">
<g clip-path="url(#clip0_95_884)">
<path fill-rule="evenodd" clip-rule="evenodd" d="M9.76465 18.5C10.9465 18.5 12.1169 18.2672 13.2088 17.8149C14.3007 17.3626 15.2929 16.6997 16.1286 15.864C16.9643 15.0282 17.6273 14.0361 18.0796 12.9442C18.5319 11.8522 18.7646 10.6819 18.7646 9.5C18.7646 8.3181 18.5319 7.14778 18.0796 6.05585C17.6273 4.96392 16.9643 3.97177 16.1286 3.13604C15.2929 2.30031 14.3007 1.63738 13.2088 1.18508C12.1169 0.732792 10.9465 0.5 9.76465 0.5C7.3777 0.5 5.08851 1.44821 3.40069 3.13604C1.71286 4.82387 0.764648 7.11305 0.764648 9.5C0.764648 11.8869 1.71286 14.1761 3.40069 15.864C5.08851 17.5518 7.3777 18.5 9.76465 18.5ZM9.53265 13.14L14.5326 7.14L12.9966 5.86L8.69665 11.019L6.47165 8.793L5.05765 10.207L8.05765 13.207L8.83165 13.981L9.53265 13.14Z" fill="#3DB166"/>
</g>
<defs>
<clipPath id="clip0_95_884">
<rect width="24" height="24" fill="white" transform="translate(0.764648 0.5)"/>
</clipPath>
</defs>
</svg>
