<svg width="24" height="25" viewBox="0 0 24 25" fill="none" xmlns="http://www.w3.org/2000/svg">
<g clip-path="url(#clip0_170_414)">
<path fill-rule="evenodd" clip-rule="evenodd" d="M9 18.3823C10.1819 18.3823 11.3522 18.1495 12.4442 17.6972C13.5361 17.2449 14.5282 16.582 15.364 15.7463C16.1997 14.9106 16.8626 13.9184 17.3149 12.8265C17.7672 11.7345 18 10.5642 18 9.38232C18 8.20043 17.7672 7.0301 17.3149 5.93817C16.8626 4.84624 16.1997 3.85409 15.364 3.01836C14.5282 2.18264 13.5361 1.5197 12.4442 1.06741C11.3522 0.615116 10.1819 0.382324 9 0.382324C6.61305 0.382324 4.32387 1.33054 2.63604 3.01836C0.948212 4.70619 0 6.99538 0 9.38232C0 11.7693 0.948212 14.0585 2.63604 15.7463C4.32387 17.4341 6.61305 18.3823 9 18.3823ZM8.768 13.0223L13.768 7.02232L12.232 5.74232L7.932 10.9013L5.707 8.67532L4.293 10.0893L7.293 13.0893L8.067 13.8633L8.768 13.0223Z" fill="#3DB166"/>
</g>
<defs>
<clipPath id="clip0_170_414">
<rect width="24" height="24" fill="white" transform="translate(0 0.382324)"/>
</clipPath>
</defs>
</svg>
