<svg width="1440" height="184" viewBox="0 0 1440 184" fill="none" xmlns="http://www.w3.org/2000/svg">
<g opacity="0.3">
<path d="M550.995 183.019C545.852 183.019 540.846 182.87 536.035 182.572C525.945 181.946 516.624 180.663 508.329 178.756C499.413 176.708 491.594 173.916 485.086 170.46C472.006 163.513 465.462 155.193 459.133 147.147C457.889 145.567 456.604 143.933 455.298 142.348C446.393 131.544 435.103 122.08 420.788 113.416C392.23 96.1331 352.069 81.383 304.643 70.7609C249.796 58.4772 190.826 52.3581 138.595 53.5313C107.897 54.2213 67.3356 60.7817 49.2078 71.9856C38.4497 78.635 37.5822 86.0141 46.7008 93.324L46.5197 93.3549C41.7386 89.5212 39.6554 85.6779 40.3299 81.9317C40.9487 78.4952 43.8775 75.136 49.0367 71.9473C57.2421 66.8757 70.7738 62.3807 88.1694 58.9479C104.244 55.7762 122.147 53.8263 138.584 53.457C165.918 52.8436 194.989 54.2051 224.989 57.5048C252.183 60.4963 279.018 64.9346 304.746 70.6969C352.2 81.3249 392.385 96.083 420.959 113.377C435.282 122.047 446.578 131.515 455.489 142.325C456.797 143.91 458.082 145.545 459.324 147.125C465.647 155.165 472.187 163.479 485.249 170.416C497.881 177.126 514.98 181.19 536.069 182.497C565.273 184.306 600.737 180.522 630.932 172.372C674.446 160.629 704.645 143.537 733.852 127.007C738.971 124.11 744.263 121.114 749.504 118.221C763.11 110.709 781.536 100.974 803.434 92.3023C825.818 83.4382 848.564 76.9256 872.973 72.3916C887.913 69.6164 903.747 67.7466 920.034 66.8345C935.078 65.9916 951.002 65.9393 967.363 66.6778C995.427 67.9452 1025.66 71.5251 1059.8 77.6214C1127.01 89.6264 1194.15 104.198 1259.35 120.932C1321.32 136.836 1382.1 154.834 1440 174.422L1439.86 174.477C1319.84 133.871 1191.94 101.306 1059.71 77.6876C985.001 64.3439 925.693 62.6816 873.062 72.4571C819.519 82.4018 782.115 100.349 749.669 118.261C744.431 121.154 739.138 124.15 734.019 127.047C704.804 143.582 674.595 160.68 631.052 172.431C616.981 176.229 601.151 179.191 585.275 180.997C576.889 181.951 568.552 182.575 560.494 182.851C557.283 182.964 554.113 183.019 550.995 183.019Z" fill="#FFE492"/>
<path d="M556.024 178.899C542.908 178.899 530.759 177.976 519.902 176.154C507.794 174.122 497.347 170.974 488.847 166.797C488.095 166.427 487.349 166.045 486.628 165.66C473.688 158.742 466.853 150.531 460.245 142.589C458.908 140.984 457.528 139.324 456.127 137.713C447.784 128.121 437.738 119.668 425.412 111.87C423.894 110.91 422.322 109.948 420.737 109.011C391.759 91.8762 351.272 77.313 303.651 66.8953C248.408 54.8212 189.271 48.9552 137.134 50.3785C106.658 51.2192 66.2838 57.887 48.0784 69.0049C37.177 75.6624 35.9434 83.0562 44.5069 90.3874L44.3239 90.4168C39.8352 86.5743 37.9908 82.7237 38.8443 78.9731C39.6283 75.5285 42.6764 72.1619 47.9073 68.9666C56.1962 63.9038 69.6881 59.4037 86.9206 55.9532C102.848 52.7639 120.673 50.758 137.116 50.3049C164.416 49.5598 193.519 50.7911 223.615 53.9643C250.875 56.8388 277.837 61.1683 303.75 66.8321C351.399 77.2556 391.908 91.8276 420.904 108.972C422.49 109.91 424.063 110.873 425.582 111.833C437.915 119.636 447.967 128.094 456.314 137.691C457.717 139.302 459.097 140.962 460.434 142.568C467.04 150.504 473.869 158.71 486.792 165.618C487.51 166.002 488.256 166.384 489.006 166.753C506.571 175.386 530.705 178.899 556.086 178.899C556.225 178.899 556.362 178.899 556.502 178.899C556.342 178.898 556.183 178.899 556.024 178.899ZM561.438 178.847C585.033 178.399 609.381 175.047 630.268 170.061C675.324 159.261 707.706 142.58 739.023 126.449C740.313 125.784 741.602 125.12 742.891 124.457C745.723 123 749.079 121.276 752.505 119.538C767.876 111.743 786.477 102.674 807.9 94.5109C830.693 85.8248 853.465 79.3791 877.514 74.8047C892.291 71.9971 907.908 70.0192 923.931 68.9262C938.776 67.9133 954.464 67.6272 970.555 68.0751C998.352 68.8497 1028.24 71.786 1061.93 77.0526C1094.78 82.1794 1121.78 87.0053 1146.9 92.2403C1182.49 99.6635 1216.39 108.216 1244.86 115.604C1311.05 132.827 1375.99 152.385 1437.89 173.734L1437.75 173.787C1375.87 152.442 1310.93 132.885 1244.75 115.664C1216.28 108.278 1182.39 99.726 1146.8 92.305C1121.69 87.0715 1094.69 82.247 1061.85 77.1217C988.466 65.6486 929.918 64.9329 877.606 74.8709C823.312 85.1966 784.646 103.364 752.667 119.582C749.238 121.32 745.884 123.044 743.052 124.501C741.763 125.164 740.474 125.828 739.185 126.493C707.857 142.629 675.464 159.316 630.376 170.124C619.196 172.793 607.3 174.913 595.015 176.424C583.581 177.83 572.309 178.643 561.438 178.847Z" fill="#FFE492"/>
<path d="M561.57 174.873C559.992 174.873 558.424 174.861 556.868 174.835C543.764 174.621 531.637 173.51 520.825 171.53C509.001 169.366 498.756 166.159 490.377 162C489.633 161.629 488.891 161.246 488.175 160.86C475.379 153.977 468.26 145.875 461.378 138.041C459.943 136.408 458.459 134.719 456.955 133.08C448.2 123.521 437.89 115.135 425.431 107.442C423.889 106.491 422.293 105.537 420.683 104.607C391.286 87.622 350.472 73.2456 302.656 63.0325C247.019 51.168 187.715 45.5543 135.67 47.2277C106.366 48.1846 66.1091 54.4721 46.9686 66.0144C35.91 72.6829 34.3004 80.0966 42.3127 87.4536L42.1277 87.4808C37.9295 83.6265 36.3278 79.7671 37.3624 76.0099C38.3135 72.5542 41.489 69.1788 46.7994 65.9762C55.1759 60.9251 68.6241 56.4235 85.6914 52.9569C101.469 49.7521 119.213 47.6918 135.652 47.1548C162.92 46.2788 192.055 47.3792 222.244 50.4258C249.572 53.1842 276.659 57.404 302.756 62.9692C350.599 73.189 391.435 87.5735 420.85 104.568C422.46 105.499 424.058 106.453 425.6 107.405C438.065 115.102 448.381 123.493 457.14 133.058C458.644 134.697 460.128 136.386 461.563 138.019C468.443 145.849 475.556 153.945 488.336 160.821C489.052 161.206 489.79 161.589 490.534 161.958C524.58 178.859 584.914 177.045 629.604 167.75C676.54 157.901 711.421 141.533 745.154 125.704L745.5 125.541C748.767 124.007 752.146 122.421 755.508 120.855C790.99 104.335 829.989 87.3565 882.059 77.2169C896.677 74.3762 912.079 72.2902 927.833 71.0169C942.487 69.8327 957.937 69.3126 973.753 69.4715C1001.33 69.7481 1030.87 72.0415 1064.07 76.4828C1098.96 81.1337 1125.22 85.4088 1149.2 90.345C1183.38 97.3924 1216.49 106.298 1245.69 114.155C1310.73 131.743 1374.68 151.556 1435.78 173.042L1435.64 173.095C1374.55 151.611 1310.6 131.8 1245.58 114.214C1216.37 106.358 1183.27 97.4542 1149.11 90.409C1125.13 85.4742 1098.88 81.2006 1064 76.5512C992.037 66.9243 934.254 67.156 882.15 77.2809C830.115 87.4139 791.131 104.385 755.663 120.899C752.301 122.465 748.922 124.052 745.655 125.585L745.309 125.748C728.498 133.636 711.117 141.793 692.346 149.078C671.252 157.266 650.76 163.394 629.7 167.812C607.666 172.395 583.665 174.873 561.57 174.873Z" fill="#FFE492"/>
<path d="M1433.53 172.401C1373.23 150.779 1310.27 130.713 1246.41 112.763C1243.7 112.008 1240.99 111.25 1238.27 110.489C1210.61 102.75 1182 94.7471 1151.41 88.5125C1121.74 82.481 1091.66 78.7929 1066.15 75.9809C995.746 68.1708 938.724 69.3499 886.7 79.6903C833.296 90.3367 791.915 108.013 758.665 122.216C756.67 123.069 754.678 123.923 752.682 124.778C751.21 125.409 749.736 126.04 748.261 126.67C729.33 134.766 712.109 142.003 693.082 148.608C671.345 156.153 650.394 161.678 629.027 165.501C609.003 169.084 587.612 170.979 567.715 170.98C564.09 170.98 560.518 170.917 557.009 170.79C544.195 170.326 532.333 169.022 521.752 166.914C510.206 164.614 500.164 161.346 491.901 157.202C491.163 156.831 490.427 156.447 489.714 156.061C477.07 149.213 469.674 141.225 462.523 133.5C460.983 131.837 459.39 130.115 457.778 128.445C448.606 118.916 438.029 110.597 425.446 103.012C423.88 102.068 422.259 101.123 420.627 100.201C390.808 83.3651 349.67 69.1756 301.661 59.1662C245.63 47.5113 186.161 42.1513 134.207 44.0726C98.6893 45.412 62.37 53.1986 45.8836 63.0072C34.652 69.6897 32.6603 77.1269 40.1195 84.5148L39.9325 84.5405C36.0268 80.6723 34.6659 76.8011 35.8875 73.0343C37.0117 69.5661 40.3185 66.1797 45.7145 62.9682C54.1785 57.9319 67.5829 53.4303 84.4791 49.9511C100.106 46.7331 117.758 44.6191 134.187 43.9998C161.423 42.9921 190.588 43.9623 220.871 46.8824C248.264 49.5245 275.481 53.6355 301.761 59.1014C349.799 69.1167 390.959 83.3144 420.796 100.161C422.43 101.083 424.051 102.029 425.617 102.973C438.208 110.562 448.789 118.886 457.967 128.419C459.579 130.09 461.172 131.811 462.712 133.475C469.859 141.196 477.251 149.179 489.879 156.018C490.592 156.403 491.326 156.787 492.062 157.157C527.603 174.983 588.012 172.756 628.941 165.434C677.773 156.697 715.141 140.719 748.112 126.622C749.586 125.99 751.059 125.359 752.533 124.729C754.527 123.874 756.52 123.02 758.516 122.168C777.495 114.061 796.238 106.182 816.843 98.9221C840.538 90.5728 863.359 84.261 886.609 79.6256C901.074 76.7503 916.257 74.5561 931.738 73.1049C946.207 71.7478 961.42 70.9946 976.955 70.8651C1004.35 70.6371 1033.55 72.2877 1066.21 75.9103C1091.73 78.7238 1121.82 82.4133 1151.51 88.4485C1182.11 94.6853 1210.73 102.69 1238.4 110.431C1241.11 111.192 1243.83 111.95 1246.53 112.705C1310.4 130.657 1373.37 150.724 1433.68 172.349L1433.53 172.401Z" fill="#FFE492"/>
<path d="M1431.42 171.708C1370.78 149.534 1308.81 129.214 1247.24 111.312C1243.55 110.241 1239.78 109.137 1236.14 108.07C1210.03 100.426 1183.04 92.522 1153.72 86.6162C1124.44 80.7399 1094.11 77.6535 1068.31 75.4101C999.61 69.3807 943.348 71.5065 891.249 82.0999C841.555 92.241 802.623 107.491 764.973 122.238L760.838 123.857C757.573 125.136 754.197 126.457 750.868 127.754C713.18 142.417 675.452 156.159 628.354 163.188C616.926 164.894 605.191 166.076 593.472 166.703C580.887 167.376 568.662 167.386 557.136 166.731C544.617 166.02 533.024 164.526 522.677 162.291C511.418 159.858 501.577 156.531 493.431 152.403C492.697 152.03 491.967 151.645 491.26 151.26C478.771 144.453 471.109 136.582 463.7 128.971C462.046 127.272 460.335 125.516 458.608 123.81C449.01 114.311 438.17 106.058 425.468 98.5822C423.88 97.6481 422.235 96.7102 420.578 95.7959C390.339 79.1092 348.876 65.1064 300.67 55.3008C244.244 43.857 184.607 38.7494 132.743 40.92C97.5495 42.4242 61.3953 50.2652 44.8254 59.9885C33.4067 66.6879 31.0211 74.1538 37.9253 81.5792L37.7362 81.6034C34.123 77.7183 33.0068 73.8323 34.4175 70.0545C35.7187 66.5717 39.1628 63.1719 44.6543 59.9502C53.2099 54.9308 66.5665 50.4336 83.2836 46.9442C98.7553 43.7143 116.312 41.5496 132.719 40.8479C159.924 39.7093 189.118 40.5485 219.496 43.3422C246.957 45.868 274.299 49.8695 300.764 55.2368C348.997 65.0476 390.484 79.0592 420.741 95.7555C422.398 96.6705 424.046 97.6091 425.633 98.5432C438.343 106.023 449.189 114.28 458.791 123.784C460.518 125.49 462.229 127.247 463.883 128.946C471.288 136.553 478.946 144.42 491.422 151.218C492.126 151.602 492.856 151.986 493.588 152.36C528.274 169.938 585.907 169.444 628.277 163.12C675.336 156.097 713.048 142.36 750.721 127.704C754.049 126.407 757.426 125.086 760.691 123.807L764.826 122.188C783.307 114.949 802.416 107.463 823.17 100.5C846.676 92.6132 868.913 86.5736 891.149 82.0352C905.467 79.1239 920.435 76.8216 935.636 75.1931C949.928 73.6617 964.904 72.6746 980.149 72.259C1007.43 71.5153 1036.28 72.523 1068.35 75.338C1094.17 77.5829 1124.51 80.67 1153.81 86.5515C1183.15 92.4595 1210.15 100.366 1236.26 108.012C1239.91 109.079 1243.67 110.183 1247.36 111.254C1308.94 129.157 1370.92 149.479 1431.56 171.655L1431.42 171.708Z" fill="#FFE492"/>
<path d="M1429.32 171.016C1369.19 148.595 1308.21 128.021 1248.07 109.863C1243.55 108.499 1238.91 107.08 1234.43 105.708C1209.73 98.1468 1184.2 90.3278 1156.02 84.7222C1126.88 78.9466 1096.42 76.4862 1070.46 74.8415C1003.67 70.5451 948.165 73.6183 895.795 84.5118C850.093 94.0586 812.57 107.588 776.28 120.672C772.462 122.049 768.513 123.473 764.664 124.852C760.146 126.471 756.694 127.702 753.473 128.841C736.22 134.935 715.679 141.953 694.123 147.791C671.28 153.976 649.546 158.257 627.68 160.878C616.182 162.257 604.496 163.126 592.946 163.462C580.545 163.822 568.537 163.557 557.26 162.674C545.041 161.717 533.718 160.033 523.601 157.67C512.63 155.107 502.994 151.721 494.959 147.606C494.235 147.233 493.509 146.848 492.805 146.461C480.481 139.7 472.562 131.951 464.902 124.457C463.125 122.719 461.288 120.922 459.436 119.176C449.406 109.703 438.302 101.519 425.486 94.1535C423.875 93.2274 422.205 92.2984 420.524 91.3915C389.865 74.854 348.076 61.0381 299.676 51.4362C242.857 40.2028 183.054 35.3489 131.28 37.7674C101.821 39.1738 63.3453 45.6525 43.7949 56.955C32.1713 63.6751 29.3817 71.1748 35.7308 78.6428L35.5417 78.6649C32.221 74.7598 31.3535 70.857 32.9611 67.0645C34.4454 63.564 38.0328 60.1496 43.6277 56.9153C52.2748 51.9165 65.5817 47.4267 82.1138 43.9299C97.4303 40.6905 114.882 38.4765 131.257 37.6946C158.429 36.425 187.656 37.1333 218.125 39.8005C245.652 42.2101 273.122 46.1027 299.769 51.3715C348.198 60.9785 390.011 74.8025 420.687 91.3495C422.368 92.2565 424.04 93.1869 425.651 94.1137C438.473 101.483 449.583 109.671 459.619 119.149C461.473 120.895 463.31 122.692 465.087 124.43C472.741 131.92 480.658 139.665 492.968 146.419C493.672 146.805 494.396 147.19 495.121 147.562C523.977 162.342 573.509 167.294 627.618 160.807C676.62 154.933 716.592 141.767 753.335 128.786C756.557 127.648 760.007 126.417 764.525 124.797C768.373 123.418 772.323 121.995 776.141 120.618C794.006 114.177 812.478 107.516 832.182 101.28C854.462 94.2263 875.24 88.7199 895.7 84.4464C909.88 81.4968 924.63 79.0864 939.542 77.2828C953.667 75.5741 968.406 74.3538 983.351 73.6543C1010.56 72.3818 1039.07 72.7459 1070.49 74.7672C1096.46 76.4134 1126.95 78.8745 1156.12 84.6553C1184.31 90.2646 1209.85 98.0857 1234.56 105.649C1239.04 107.021 1243.67 108.44 1248.19 109.805C1308.34 127.964 1369.33 148.54 1429.46 170.962L1429.32 171.016Z" fill="#FFE492"/>
<path d="M1427.2 170.323C1367.61 147.655 1307.61 126.825 1248.89 108.413C1243.9 106.847 1238.77 105.203 1233.81 103.614C1210.17 96.0419 1185.73 88.2127 1158.33 82.8262C1129.17 77.1198 1098.63 75.2993 1072.61 74.271C1008.84 71.6841 952.494 75.8223 900.341 86.9218C858.815 95.7999 823.218 107.677 788.793 119.163C781.839 121.483 774.65 123.883 767.661 126.169C763.385 127.569 759.596 128.798 756.075 129.927C739.698 135.168 717.913 141.889 694.634 147.381C671.243 152.899 649.12 156.559 627.001 158.568C602.876 160.759 578.799 160.775 557.375 158.615C545.463 157.414 534.408 155.542 524.518 153.049C513.839 150.357 504.408 146.912 496.483 142.81C495.765 142.436 495.045 142.05 494.344 141.663C482.195 134.953 474.03 127.332 466.135 119.961C464.225 118.178 462.251 116.335 460.259 114.544C449.79 105.096 438.421 96.9775 425.502 89.7264C423.866 88.8085 422.173 87.8876 420.468 86.9887C389.389 70.6006 347.276 56.9708 298.681 47.5741C241.47 36.5518 181.499 31.9509 129.816 34.6173C94.7897 36.4636 59.8173 44.2163 42.7938 53.9079C30.9473 60.6522 27.7459 68.1909 33.5359 75.709L33.3449 75.7289C30.3186 71.8003 29.7018 67.8768 31.5104 64.0681C33.1817 60.5478 36.9223 57.1157 42.6266 53.8675C51.3653 48.8922 64.6204 44.4127 80.9595 40.9129C96.1148 37.6669 113.457 35.4044 129.788 34.5438C156.929 33.1433 186.187 33.7214 216.75 36.2613C244.345 38.5547 271.941 42.3384 298.772 47.5079C347.396 56.9105 389.533 70.5476 420.631 86.9461C422.336 87.8449 424.029 88.7666 425.667 89.6853C438.592 96.9408 449.967 105.063 460.442 114.515C462.434 116.306 464.408 118.15 466.318 119.933C474.209 127.3 482.37 134.918 494.507 141.621C495.208 142.008 495.926 142.393 496.644 142.766C525.005 157.451 573.718 163.331 626.953 158.496C675.485 154.088 717.63 142.133 755.943 129.871C759.463 128.743 763.253 127.515 767.527 126.115C774.515 123.828 781.706 121.43 788.657 119.11C823.091 107.621 858.694 95.7411 900.24 86.8593C914.295 83.8678 928.829 81.35 943.439 79.3743C957.413 77.4854 971.915 76.0312 986.543 75.0522C1013.75 73.2317 1041.91 72.9529 1072.62 74.1989C1098.67 75.228 1129.23 77.0492 1158.42 82.7622C1185.84 88.1524 1210.29 95.9845 1233.94 103.559C1238.9 105.149 1244.03 106.792 1249.02 108.358C1307.75 126.771 1367.75 147.603 1427.35 170.272L1427.2 170.323Z" fill="#FFE492"/>
<path d="M1425.1 169.63C1366.03 146.711 1307.02 125.627 1249.72 106.963C1244.46 105.247 1239.04 103.431 1233.8 101.675C1211.03 94.039 1187.48 86.1428 1160.63 80.93C1131.35 75.2721 1100.79 74.1003 1074.76 73.7002C1013.4 72.6881 957.836 77.8009 904.887 89.3314C867.754 97.4564 834.652 107.739 802.638 117.683C791.632 121.103 781.234 124.333 770.659 127.486C766.357 128.77 762.439 129.923 758.679 131.011C734.415 138.024 714.228 143.095 695.147 146.969C671.209 151.828 648.698 154.866 626.326 156.255C617.647 156.793 609 157.062 600.51 157.062C585.461 157.062 570.898 156.22 557.492 154.554C533.23 151.537 513.218 145.971 498.011 138.01C497.294 137.633 496.58 137.247 495.888 136.861C483.924 130.21 475.53 122.723 467.412 115.483C465.354 113.648 463.229 111.752 461.087 109.908C450.169 100.482 438.534 92.4311 425.521 85.2955C423.862 84.3856 422.145 83.4728 420.416 82.582C388.917 66.3432 346.478 52.9002 297.687 43.7073C240.084 32.8968 179.949 28.5482 128.355 31.4625C93.1835 33.4904 59.2199 41.0961 41.8322 50.8392C29.745 57.6114 26.1198 65.195 31.3447 72.7705L31.1517 72.7888C28.4238 68.833 28.0617 64.8861 30.0773 61.0575C31.9436 57.5136 35.8413 54.0624 41.6671 50.7987C50.4972 45.8507 63.6946 41.3859 79.8348 37.8861C94.8269 34.635 112.047 32.3283 128.325 31.3897C155.434 29.8583 184.724 30.3055 215.379 32.7188C243.041 34.8968 270.763 38.5716 297.779 43.6411C346.597 52.8399 389.061 66.2902 420.579 82.5386C422.308 83.4301 424.025 84.3429 425.686 85.2535C438.707 92.3928 450.348 100.448 461.27 109.878C463.412 111.722 465.539 113.619 467.595 115.453C475.709 122.69 484.099 130.174 496.053 136.82C496.745 137.204 497.458 137.59 498.174 137.967C526.57 152.834 573.268 159.473 626.292 156.181C676.768 153.048 721.476 141.67 758.555 130.952C762.314 129.864 766.232 128.712 770.533 127.428C781.106 124.275 791.504 121.046 802.511 117.626C834.529 107.68 867.639 97.3953 904.786 89.2674C918.735 86.2296 933.053 83.6037 947.343 81.4618C961.183 79.3875 975.449 77.6994 989.743 76.4453C1017 74.054 1044.81 73.1316 1074.76 73.6259C1100.82 74.026 1131.4 75.1992 1160.72 80.8637C1187.6 86.0803 1211.15 93.9801 1233.94 101.619C1239.17 103.375 1244.59 105.191 1249.85 106.906C1307.16 125.572 1366.16 146.658 1425.24 169.578L1425.1 169.63Z" fill="#FFE492"/>
<path d="M1422.99 168.937C1363.63 145.441 1307.22 124.694 1250.55 105.513C1245.15 103.683 1239.82 101.813 1234.19 99.8348C1212.16 92.0998 1189.37 84.1021 1162.94 79.0349C1133.29 73.3792 1101.39 72.9084 1076.91 73.1306C1018.35 73.5925 963.565 79.6807 909.434 91.743C876.957 99.0154 846.971 107.749 817.971 116.195C802.731 120.634 788.335 124.826 773.656 128.805C769.298 129.987 765.249 131.063 761.282 132.097C736.688 138.493 715.836 143.088 695.657 146.556C671.164 150.767 648.265 153.183 625.65 153.944C614.031 154.334 602.491 154.261 591.351 153.725C579.556 153.158 568.203 152.07 557.608 150.492C534.124 146.995 514.587 141.182 499.539 133.214C498.829 132.835 498.121 132.449 497.432 132.063C485.669 125.48 477.064 118.136 468.741 111.034C466.521 109.14 464.225 107.18 461.915 105.275C450.54 95.8695 438.642 87.8858 425.54 80.8679C423.855 79.9661 422.114 79.0613 420.365 78.1787C388.447 62.0892 345.683 48.833 296.697 39.8438C251.484 31.5814 204.858 27.2703 162.102 27.2703C150.015 27.2703 138.246 27.6145 126.895 28.3111C92.1476 30.4854 58.3969 38.1182 40.9078 47.7569C28.5639 54.5608 24.499 62.1958 29.1528 69.836L28.9578 69.8522C26.5284 65.8655 26.427 61.8913 28.6554 58.0407C30.7207 54.471 34.7875 50.997 40.7406 47.7157C49.6623 42.7986 62.798 38.3521 78.7313 34.856C93.7712 31.5556 110.415 29.2673 126.859 28.239C153.937 26.5767 183.258 26.8937 214.007 29.1798C241.735 31.2408 269.586 34.806 296.785 39.7769C345.798 48.7712 388.588 62.0347 420.526 78.1338C422.277 79.0165 424.02 79.9219 425.705 80.8245C438.813 87.8461 450.717 95.8334 462.098 105.243C464.408 107.148 466.706 109.108 468.926 111.003C477.245 118.102 485.847 125.443 497.6 132.021C498.288 132.406 498.996 132.793 499.705 133.17C527.844 148.07 573.742 155.614 625.635 153.869C678.144 152.103 725.649 141.273 761.17 132.035C765.138 131.002 769.185 129.925 773.542 128.744C788.22 124.766 802.613 120.574 817.852 116.135C846.855 107.688 876.846 98.9529 909.335 91.6783C937.204 85.468 964.552 80.9422 992.945 77.8411C1020.33 74.8503 1047.79 73.285 1076.91 73.0555C1093.52 72.9048 1107.07 73.1666 1119.55 73.8786C1135.68 74.7981 1149.9 76.4626 1163.03 78.9679C1189.49 84.0396 1212.29 92.0417 1234.33 99.7804C1239.96 101.759 1245.29 103.627 1250.69 105.457C1307.36 124.64 1363.77 145.388 1423.13 168.886L1422.99 168.937Z" fill="#FFE492"/>
<path d="M1420.88 168.244C1362.06 144.49 1306.62 123.496 1251.38 104.062C1245.92 102.139 1240.53 100.158 1234.83 98.061C1213.45 90.2038 1191.35 82.0781 1165.24 77.1381C1135.35 71.5089 1103.48 71.734 1079.06 72.5586C1023.79 74.3599 969.797 81.4235 913.981 94.1515C886.48 100.453 860.296 107.664 834.973 114.639C814.955 120.152 796.05 125.36 776.654 130.119C772.271 131.196 767.973 132.226 763.885 133.179C739.243 138.919 717.092 143.158 696.166 146.139C671.111 149.708 647.824 151.504 624.974 151.629C613.349 151.692 601.854 151.304 590.818 150.474C579.248 149.603 568.114 148.241 557.724 146.426C535.045 142.463 515.982 136.403 501.066 128.413C500.365 128.035 499.661 127.648 498.975 127.26C487.433 120.757 478.64 113.569 470.136 106.617C467.731 104.65 465.242 102.615 462.741 100.638C450.9 91.2497 438.738 83.3337 425.558 76.4357C423.849 75.542 422.084 74.6453 420.311 73.7708C387.973 57.8306 344.883 44.7613 295.703 35.9758C237.318 25.5898 176.846 21.7473 125.431 25.1558C91.1332 27.4692 57.6073 35.1218 40.0207 44.6509C27.3982 51.4909 22.8817 59.1833 26.9565 66.8978L26.7615 66.9117C24.6366 62.8905 24.7997 58.8854 27.249 55.0083C29.5232 51.4092 33.7632 47.9102 39.8555 44.609C48.8647 39.7271 61.9348 35.3028 77.6532 31.8141C92.52 28.5144 109.028 26.1871 125.395 25.083C152.443 23.2905 181.794 23.4758 212.634 25.6354C240.43 27.5817 268.406 31.0381 295.788 35.9089C344.999 44.6988 388.113 57.7762 420.468 73.7259C422.243 74.6005 424.01 75.4978 425.719 76.3923C438.907 83.294 451.073 91.2137 462.92 100.605C465.423 102.583 467.91 104.618 470.318 106.585C478.817 113.534 487.606 120.72 499.14 127.218C499.826 127.605 500.531 127.993 501.229 128.369C529.665 143.601 573.611 151.837 624.97 151.554C666.644 151.326 710.751 145.467 763.777 133.115C767.864 132.162 772.16 131.133 776.543 130.056C795.932 125.297 814.838 120.091 834.852 114.578C860.178 107.603 886.366 100.39 913.875 94.0868C942.017 87.6691 968.926 82.8115 996.138 79.2345C1023.71 75.6111 1050.82 73.4023 1079.04 72.4828C1103.49 71.6568 1135.39 71.4324 1165.33 77.0705C1191.47 82.0163 1213.58 90.1457 1234.97 98.0065C1240.67 100.104 1246.06 102.084 1251.52 104.006C1306.76 123.441 1362.2 144.436 1421.02 168.192L1420.88 168.244Z" fill="#FFE492"/>
<path d="M1418.77 167.55C1360.5 143.538 1306.02 122.296 1252.21 102.611C1246.75 100.613 1241.36 98.5364 1235.65 96.3379C1214.88 88.3402 1193.4 80.0704 1167.55 75.2422C1137.37 69.6336 1105.55 70.5567 1081.21 71.9874C1029.21 74.9848 977.522 82.7934 918.528 96.5615C896.403 101.749 874.781 107.439 853.872 112.942C828.476 119.625 804.488 125.938 779.651 131.436C775.177 132.428 770.748 133.38 766.488 134.264C741.404 139.467 718.569 143.215 696.676 145.722C684.414 147.126 672.309 148.144 660.697 148.746C648.312 149.388 636.065 149.58 624.298 149.317C600.424 148.782 578.065 146.442 557.842 142.361C536.001 137.953 517.414 131.647 502.596 123.614C501.9 123.234 501.202 122.846 500.519 122.46C489.224 116.053 480.274 109.035 471.621 102.249C469.001 100.194 466.293 98.0701 463.569 96.0032C451.251 86.6308 438.824 78.7817 425.577 72.0065C423.844 71.1202 422.053 70.2316 420.258 69.3659C387.5 53.5743 344.086 40.6918 294.71 32.1116C235.936 21.9381 175.299 18.3486 123.969 22.0036C69.0087 25.9778 15.4528 43.1493 24.7645 63.9618L24.5675 63.9735C22.2376 58.7673 23.6025 53.6383 28.6224 48.7277C33.2066 44.2431 40.7296 40.0225 50.9823 36.1843C60.5148 32.6154 71.9514 29.5342 84.9717 27.026C97.3554 24.6406 110.827 22.8782 123.929 21.9308C150.945 20.0073 180.328 20.0625 211.262 22.0956C239.125 23.9263 267.229 27.2738 294.794 32.0454C344.197 40.6315 387.638 53.5213 420.415 69.3217C422.212 70.1882 424.003 71.0768 425.738 71.9639C438.991 78.742 451.424 86.5955 463.748 95.9716C466.472 98.0385 469.18 100.163 471.801 102.218C480.452 109.002 489.397 116.017 500.686 122.421C501.367 122.806 502.063 123.194 502.76 123.574C531.238 139.01 574.406 148.126 624.31 149.244C666.559 150.189 713.033 145.269 766.39 134.2C770.648 133.316 775.075 132.365 779.55 131.374C804.381 125.877 828.364 119.564 853.757 112.882C874.668 107.379 896.292 101.688 918.421 96.4997C977.438 82.7257 1029.15 74.9142 1081.18 71.9146C1097.54 70.9532 1111.08 70.6457 1123.8 70.9481C1140.07 71.3342 1154.4 72.7171 1167.63 75.176C1193.52 80.0093 1215.01 88.2843 1235.79 96.2864C1241.5 98.4842 1246.89 100.561 1252.35 102.558C1306.16 122.245 1360.64 143.488 1418.91 167.501L1418.77 167.55Z" fill="#FFE492"/>
<path d="M1416.66 166.859C1358.94 142.585 1305.42 121.096 1253.04 101.162C1247.62 99.0996 1242.27 96.9393 1236.6 94.651C1216.39 86.5003 1195.5 78.0716 1169.85 73.3472C1139.02 67.6915 1105.72 69.537 1083.36 71.4171C1022.67 76.4571 968.277 88.1744 923.077 98.9731C906.832 102.87 890.628 106.998 874.955 110.99C843.517 118.998 813.823 126.561 782.653 132.755C778.068 133.666 773.508 134.539 769.095 135.351C743.522 140.043 720.002 143.3 697.193 145.306C671.335 147.581 646.585 148.154 623.627 147.006C600.041 145.827 577.948 142.897 557.964 138.296C537.003 133.471 518.891 126.917 504.127 118.818C503.439 118.438 502.745 118.049 502.066 117.662C491.051 111.372 481.99 104.547 473.226 97.9463C470.355 95.783 467.384 93.5469 464.4 91.3704C451.417 81.8803 439.087 74.321 425.599 67.579C423.842 66.7007 422.03 65.821 420.209 64.9626C387.028 49.3211 343.287 36.6254 293.716 28.2482C234.552 18.2881 173.747 14.9509 122.506 18.8522C67.3481 23.1074 14.8866 40.0457 22.5707 61.0274L22.3738 61.0369C20.4677 55.8314 22.1171 50.7076 27.2743 45.8081C32.0017 41.319 39.5684 37.094 49.7675 33.2514C59.278 29.6678 70.655 26.5638 83.5838 24.0239C95.8939 21.6054 109.34 19.7923 122.466 18.7794C149.452 16.725 178.865 16.65 209.89 18.5558C237.821 20.2711 266.052 23.5098 293.8 28.1813C343.4 36.5629 387.165 49.2659 420.362 64.917C422.183 65.7761 423.998 66.6566 425.756 67.5348C439.252 74.2798 451.586 81.8435 464.575 91.3373C467.559 93.5138 470.53 95.7506 473.401 97.9139C482.164 104.513 491.222 111.336 502.229 117.622C502.908 118.009 503.6 118.398 504.289 118.778C532.988 134.522 575.377 144.521 623.651 146.933C666.946 149.097 714.491 145.286 769.006 135.284C773.417 134.474 777.977 133.601 782.557 132.69C813.719 126.498 843.409 118.936 874.842 110.929C890.514 106.937 906.72 102.808 922.968 98.9106C953.362 91.6499 978.647 86.2855 1002.53 82.0289C1030.66 77.0183 1057.08 73.5237 1083.32 71.345C1099.31 70.0004 1113.25 69.3914 1125.93 69.484C1142.26 69.6032 1156.66 70.8448 1169.94 73.281C1195.62 78.0113 1216.53 86.4452 1236.74 94.601C1242.41 96.8885 1247.77 99.0489 1253.18 101.11C1305.57 121.044 1359.09 142.535 1416.81 166.809L1416.66 166.859Z" fill="#FFE492"/>
<path d="M1414.55 166.164C1357.39 141.628 1304.83 119.891 1253.87 99.7102C1248.53 97.594 1243.24 95.3586 1237.64 92.9916C1217.97 84.6769 1197.63 76.079 1172.16 71.4502C1140.99 65.8078 1107.78 68.4021 1085.51 70.8448C1030.52 76.8256 981.474 88.2134 927.626 101.382C917.914 103.766 908.091 106.226 898.591 108.607C862.052 117.76 824.273 127.224 785.651 134.071C780.96 134.903 776.264 135.699 771.698 136.434C745.951 140.577 721.057 143.42 697.704 144.886C671.249 146.547 646.1 146.482 622.948 144.693C599.693 142.896 577.868 139.375 558.079 134.227C538.053 129.018 520.413 122.22 505.65 114.02C504.967 113.639 504.279 113.249 503.604 112.863C492.922 106.72 483.803 100.117 474.985 93.7316C471.807 91.4308 468.522 89.052 465.222 86.7372C451.732 77.2566 439.145 69.7621 425.611 63.151C423.835 62.283 421.996 61.4106 420.15 60.5589C386.554 45.0644 342.491 32.5556 292.722 24.3829C233.169 14.6361 172.2 11.5519 121.041 15.6989C67.6348 20.0755 14.2043 36.4195 20.3743 58.0903L20.1773 58.0977C18.695 52.8922 20.6289 47.7742 25.9234 42.8857C30.7921 38.3915 38.4046 34.1628 48.5479 30.3158C67.2627 23.2192 93.6695 17.8651 120.998 15.6261C147.952 13.4415 177.397 13.2356 208.515 15.0141C236.514 16.6147 264.87 19.7437 292.801 24.3152C342.599 32.4924 386.688 45.0093 420.305 60.5111C422.153 61.3636 423.992 62.2359 425.771 63.1046C439.31 69.7194 451.903 77.2169 465.397 86.7012C468.698 89.0167 471.984 91.3955 475.162 93.6963C483.978 100.08 493.095 106.682 503.771 112.821C504.444 113.208 505.132 113.597 505.815 113.978C535.351 130.383 575.869 140.978 622.986 144.62C666.616 147.992 716.62 145.215 771.614 136.366C776.178 135.631 780.87 134.837 785.56 134.005C824.167 127.16 861.943 117.697 898.473 108.546C907.974 106.165 917.797 103.705 927.51 101.321C951.082 95.5565 978.51 88.9446 1005.73 83.4243C1034.2 77.6502 1060.28 73.5127 1085.45 70.775C1101.3 69.0368 1115.24 68.1351 1128.06 68.0188C1144.23 67.8717 1159.09 69.0045 1172.24 71.3847C1183.65 73.4583 1195.13 76.5527 1207.35 80.8454C1218.13 84.6357 1228.12 88.8593 1237.79 92.9431C1243.38 95.3093 1248.67 97.5447 1254.01 99.6601C1304.98 119.842 1357.53 141.579 1414.7 166.117L1414.55 166.164Z" fill="#FFE492"/>
<path d="M1412.44 165.472C1355.84 140.67 1304.24 118.685 1254.7 98.2605C1249.45 96.0979 1244.26 93.7949 1238.76 91.3573C1219.6 82.8697 1199.79 74.0931 1174.46 69.5555C1150.79 65.3283 1122.4 65.5636 1087.66 70.2749C1039.09 76.825 995.672 87.781 949.703 99.3814C943.979 100.826 938.061 102.319 932.172 103.794C929.866 104.373 927.558 104.953 925.252 105.533C881.452 116.543 836.161 127.929 788.65 135.389C783.847 136.144 779.02 136.861 774.302 137.52C747.991 141.193 722.394 143.53 698.223 144.467C671.158 145.516 645.605 144.814 622.278 142.381C599.385 139.993 577.829 135.881 558.208 130.16C539.191 124.615 522.024 117.571 507.184 109.223C506.507 108.841 505.825 108.451 505.154 108.063C494.878 102.113 485.789 95.7765 476.996 89.6486C473.437 87.1668 469.754 84.6005 466.055 82.1026C452.044 72.6286 439.203 65.1988 425.637 58.7215C423.834 57.8609 421.974 56.9974 420.104 56.1537C386.083 40.8093 341.693 28.4866 291.729 20.5184C231.79 10.9856 170.652 8.15371 119.579 12.5464C67.1532 17.0929 13.7983 33.5708 18.1816 55.1548L17.9826 55.1607C16.9261 49.9545 19.1426 44.8424 24.5743 39.9664C29.5863 35.467 37.2425 31.2332 47.3321 27.3833C65.9673 20.272 92.2827 14.8384 119.533 12.4751C146.457 10.1596 175.932 9.82268 207.142 11.4747C235.208 12.9591 263.694 15.9793 291.808 20.4507C341.801 28.4241 386.218 40.7534 420.253 56.1059C422.123 56.9496 423.988 57.8146 425.79 58.6752C439.362 65.1561 452.211 72.5882 466.226 82.0658C469.927 84.5637 473.608 87.1308 477.169 89.6126C485.958 95.739 495.047 102.074 505.319 108.022C505.99 108.41 506.67 108.799 507.347 109.181C537.524 126.155 577.283 137.61 622.329 142.308C666.797 146.947 717.903 145.312 774.23 137.449C778.944 136.79 783.769 136.074 788.57 135.32C836.065 127.863 881.348 116.479 925.139 105.47C927.447 104.89 929.753 104.31 932.059 103.732C937.948 102.257 943.865 100.764 949.59 99.3197C995.569 87.717 1039 76.758 1087.59 70.205C1103.29 68.0763 1117.22 66.8825 1130.19 66.5537C1146.42 66.1425 1161.34 67.1304 1174.55 69.4886C1185.89 71.5209 1197.23 74.6293 1209.22 78.9919C1219.79 82.8411 1229.51 87.1462 1238.91 91.3095C1244.41 93.7464 1249.61 96.0486 1254.85 98.2104C1304.39 118.636 1355.99 140.622 1412.59 165.424L1412.44 165.472Z" fill="#FFE492"/>
<path d="M1410.33 164.779C1358.67 141.668 1306.59 118.799 1255.53 96.8098C1250.33 94.584 1245.18 92.1927 1239.73 89.6617C1221.99 81.4279 1201.88 72.0959 1176.77 67.6598C1152.82 63.4399 1124.38 64.1085 1089.81 69.7032C1048.71 76.3334 1012.34 86.0825 973.826 96.4037C961.767 99.6358 949.295 102.979 936.717 106.204C914.761 111.844 891.01 117.814 866.113 123.25C839.45 129.073 815.09 133.473 791.642 136.705C786.716 137.384 781.758 138.024 776.901 138.604C750.032 141.813 723.739 143.64 698.751 144.032C671.088 144.466 645.131 143.133 621.597 140.068C578.139 134.336 540.156 122.345 508.706 104.425C508.035 104.042 507.359 103.651 506.692 103.264C496.937 97.5762 488.007 91.5763 479.372 85.7735C475.307 83.0424 471.105 80.2179 466.877 77.4691C452.333 67.9974 439.233 60.633 425.651 54.2933C423.823 53.4401 421.939 52.5846 420.046 51.7498C385.611 36.5532 340.895 24.4181 290.736 16.6535C230.409 7.33408 169.106 4.75597 118.117 9.39364C65.3726 14.2181 13.3548 30.4775 15.9871 52.219L15.7882 52.222C15.1574 47.0143 17.6604 41.9081 23.2255 37.0446C28.3827 32.5393 36.0827 28.301 46.1146 24.4482C55.5655 20.8183 66.7673 17.6443 79.4077 15.014C91.6799 12.4609 104.686 10.5455 118.067 9.32155C144.961 6.87584 174.468 6.40802 205.769 7.93283C233.903 9.30316 262.515 12.2137 290.812 16.5851C341.001 24.3541 385.743 36.4966 420.198 51.7005C422.09 52.5361 423.978 53.3922 425.806 54.2455C439.394 60.5889 452.5 67.9562 467.05 77.4309C471.278 80.1804 475.48 83.0049 479.545 85.7367C488.18 91.5388 497.108 97.538 506.859 103.223C507.524 103.611 508.202 104.002 508.871 104.385C540.298 122.29 578.247 134.272 621.663 139.998C666.385 145.823 720.044 145.317 776.839 138.533C781.692 137.953 786.65 137.315 791.573 136.636C843.998 129.411 891.965 117.61 936.601 106.142C949.18 102.918 961.649 99.5754 973.709 96.3434C1012.23 86.0199 1048.61 76.2687 1089.73 69.6355C1124.35 64.032 1152.85 63.3634 1176.85 67.5928C1188.1 69.5796 1199.27 72.6939 1211 77.1124C1221.34 81.0086 1230.77 85.3844 1239.88 89.6153C1245.34 92.1464 1250.48 94.5369 1255.68 96.7612C1306.74 118.751 1358.82 141.62 1410.48 164.732L1410.33 164.779Z" fill="#FFE492"/>
<path d="M1408.22 164.086C1357.35 140.847 1306.26 117.724 1256.36 95.3596C1251.32 93.1096 1246.33 90.6763 1241.04 88.1004C1223.74 79.6747 1204.12 70.1242 1179.07 65.7631C1154.84 61.5506 1126.35 62.6525 1091.96 69.1305C1055.93 75.9079 1022.83 85.4775 990.823 94.7329C974.773 99.3735 958.175 104.172 941.263 108.613C914.57 115.629 892.11 120.98 870.58 125.456C844.032 130.975 819.191 135.085 794.64 138.022C789.601 138.625 784.507 139.185 779.503 139.688C753.43 142.304 727.827 143.628 703.335 143.629C701.974 143.629 700.621 143.624 699.268 143.616C670.951 143.446 644.592 141.473 620.923 137.754C609.498 135.949 598.31 133.658 587.671 130.943C577.671 128.393 567.844 125.388 558.463 122.013C541.585 115.942 525.807 108.619 510.232 99.6266C509.563 99.2397 508.897 98.852 508.234 98.4629C499.197 93.1574 490.647 87.6113 482.38 82.2476C477.607 79.1517 472.673 75.9498 467.703 72.8333C452.4 63.2314 439.437 56.1465 425.667 49.8627C423.815 49.0175 421.906 48.1702 419.99 47.3434C385.137 32.2977 340.097 20.3494 289.743 12.7886C229.03 3.68319 167.56 1.35811 116.654 6.24071C64.8989 11.2189 12.9487 27.6019 13.7943 49.2823L13.5953 49.2831C13.2014 39.1847 24.0271 29.582 44.9007 21.5137C54.3357 17.8669 65.4779 14.6702 78.0207 12.0104C90.2253 9.42271 103.206 7.45731 116.604 6.16863C143.467 3.59198 173.005 2.99398 204.398 4.39153C232.6 5.64712 261.339 8.44884 289.817 12.7195C340.203 20.2854 385.269 32.241 420.144 47.2956C422.06 48.1231 423.972 48.9712 425.824 49.8164C439.601 56.1039 452.569 63.1909 467.876 72.7965C472.846 75.9138 477.782 79.1156 482.553 82.2116C490.821 87.5745 499.368 93.1199 508.403 98.4239C509.066 98.813 509.73 99.2007 510.399 99.5868C543.495 118.695 579.673 131.158 621 137.686C678.241 146.681 738.761 143.701 779.451 139.617C784.451 139.115 789.541 138.555 794.579 137.952C851.043 131.198 902.568 118.693 941.147 108.553C958.058 104.114 974.653 99.3154 990.702 94.6755C1022.72 85.4186 1055.83 75.8461 1091.87 69.0658C1107.26 66.167 1121.18 64.3869 1134.44 63.6249C1150.79 62.6849 1165.84 63.3822 1179.15 65.6977C1190.37 67.6506 1201.44 70.7899 1212.97 75.2944C1223.14 79.2635 1232.32 83.7335 1241.2 88.057C1246.49 90.6322 1251.48 93.0647 1256.51 95.3133C1306.41 117.678 1357.5 140.801 1408.37 164.04L1408.22 164.086Z" fill="#FFE492"/>
<path d="M1406.11 163.393L1257.19 93.9095C1252.33 91.6403 1247.5 89.171 1242.38 86.5576C1225.51 77.9325 1206.38 68.157 1181.38 63.868C1157.19 59.7209 1127.83 61.2994 1094.11 68.5601C1061.69 75.5397 1032.12 84.8217 1003.53 93.7984C984.888 99.6497 965.614 105.7 945.811 111.024C886.29 127.028 834.272 136.481 782.109 140.773C760.47 142.553 739.122 143.449 718.42 143.449C712.145 143.449 705.933 143.367 699.787 143.202C670.801 142.425 644.04 139.814 620.25 135.442C598.2 131.389 578.029 125.668 558.59 117.95C543.067 111.788 528.186 104.441 511.761 94.8296C503.092 89.7573 494.698 84.487 486.58 79.3904C468.208 67.8569 449.21 55.9306 425.69 45.4343C389.614 29.3352 342.26 16.7102 288.748 8.92361C227.651 0.0329789 166.013 -2.03981 115.191 3.08773C65.9869 8.05198 12.5823 23.706 11.5994 46.3464L11.4004 46.3449C11.8401 36.2252 23.0041 26.624 43.6847 18.5792C62.3836 11.3053 87.7598 5.77839 115.14 3.01638C141.972 0.309547 171.543 -0.419386 203.025 0.850915C231.294 1.99102 260.16 4.68462 288.821 8.85521C315.3 12.708 340.447 17.7797 363.567 23.9296C386.88 30.1311 407.833 37.3498 425.842 45.3857C449.371 55.8858 468.375 67.815 486.751 79.3514C494.869 84.4473 503.264 89.7168 511.93 94.7885C535.894 108.813 569.874 126.099 620.339 135.374C678.215 146.011 740.231 144.141 782.065 140.699C834.203 136.41 886.196 126.962 945.693 110.963C965.489 105.641 984.76 99.5909 1003.4 93.741C1032 84.7628 1061.58 75.4787 1094.01 68.4954C1127.79 61.2222 1157.21 59.6422 1181.46 63.8003C1192.65 65.7208 1203.62 68.8874 1214.97 73.4824C1224.96 77.5272 1233.9 82.0957 1242.54 86.5135C1247.66 89.1269 1252.49 91.5947 1257.35 93.8631L1406.27 163.346L1406.11 163.393Z" fill="#FFE492"/>
<path d="M1404.91 158.051C1366.99 138.704 1334.45 123.005 1302.52 108.647C1287.02 101.671 1271.18 94.8057 1255.46 88.2401C1250.71 86.2541 1246 84.1416 1241.01 81.9048C1228.47 76.283 1215.51 70.4699 1200.59 66.1559C1192.59 63.8352 1184.88 62.1736 1177.02 61.0761C1152.92 57.6742 1124.65 59.9235 1092.98 67.7623C1076.59 71.813 1061.67 76.4227 1049.23 80.3977C1036.07 84.6058 1023.08 89.2464 1010.52 93.734C992.469 100.185 973.802 106.855 953.734 112.583C941.523 116.079 929.146 119.203 916.943 121.869C892.53 127.202 866.326 131.596 839.06 134.929C822.213 136.966 805.285 138.506 788.749 139.505C774.497 140.362 760.219 140.857 746.309 140.976C725.491 141.154 705.209 140.475 686.024 138.956C665.626 137.341 646.323 134.762 628.65 131.292C612.892 128.198 598.008 124.301 583.147 119.38C555.455 110.216 533.367 99.6206 517.219 91.4133C509.286 87.3626 501.541 83.2318 494.05 79.237C472.48 67.7322 452.105 56.8658 426.61 47.1867C405.816 39.3442 382.091 32.5764 356.088 27.07C336.106 22.8384 314.373 19.3776 291.494 16.7833C286.044 16.1662 280.491 15.591 274.993 15.0754C251.324 12.8592 224.679 11.416 195.799 10.7856C166.682 10.1354 141.491 10.6981 118.791 12.5076C105.957 13.5226 93.524 15.1151 81.8307 17.2401C40.5492 24.7428 14.0409 37.3376 10.9211 50.9321L10.6724 50.924C11.504 47.3 13.9454 43.7303 17.9267 40.313C21.7091 37.067 26.9041 33.9364 33.3665 31.0082C45.5771 25.4768 62.2982 20.6869 81.7213 17.157C93.4325 15.0283 105.886 13.4336 118.739 12.4171C141.463 10.6062 166.674 10.0427 195.815 10.6937C224.711 11.3241 251.37 12.7687 275.055 14.9864C280.559 15.5027 286.114 16.0779 291.567 16.6958C314.464 19.2916 336.215 22.7553 356.214 26.9906C382.234 32.5006 405.979 39.2744 426.783 47.122C452.294 56.807 472.673 67.6763 494.251 79.184C501.74 83.1788 509.485 87.3089 517.416 91.3589C533.556 99.5625 555.634 110.153 583.31 119.311C598.155 124.227 613.024 128.12 628.764 131.21C663.35 138.002 702.895 141.257 746.301 140.884C760.199 140.765 774.467 140.27 788.707 139.413C805.231 138.414 822.147 136.876 838.98 134.841C866.23 131.51 892.418 127.119 916.816 121.789C929.01 119.125 941.38 116.003 953.581 112.51C973.636 106.784 992.299 100.116 1010.35 93.667C1022.91 89.1787 1035.9 84.5366 1049.07 80.327C1061.51 76.3499 1076.44 71.7387 1092.84 67.6851C1106.94 64.1949 1120.59 61.7838 1133.42 60.5179C1149.17 58.9629 1163.88 59.1218 1177.11 60.9901C1184.99 62.0912 1192.72 63.7572 1200.75 66.0831C1215.69 70.4037 1228.66 76.2205 1241.2 81.846C1246.19 84.082 1250.9 86.1945 1255.65 88.1791C1271.38 94.7454 1287.21 101.612 1302.71 108.588C1334.65 122.949 1367.19 138.649 1405.11 157.997L1404.91 158.051Z" fill="#FFE492"/>
<path d="M1403.71 152.708C1368.55 133.034 1335.55 116.571 1302.83 102.379C1286.87 95.4462 1270.35 88.7821 1253.74 82.5718C1249.33 80.9242 1244.98 79.2118 1240.37 77.3994C1226.57 71.9718 1212.3 66.3595 1196.32 62.4765C1188.25 60.5074 1180.51 59.1364 1172.67 58.2846C1142.65 55.0217 1112.15 61.2033 1091.85 66.9634C1077.47 71.0325 1064.33 75.6333 1051.03 80.3828C1039.38 84.5402 1028.42 89.0123 1016.82 93.7464C999.608 100.774 981.804 108.04 961.657 114.142C949.701 117.782 937.224 120.929 924.572 123.497C901.004 128.279 875.196 131.993 845.673 134.851C829.151 136.45 812.231 137.59 795.383 138.236C781.167 138.775 766.976 138.968 753.204 138.807C732.714 138.57 712.686 137.505 693.673 135.642C673.705 133.685 654.652 130.825 637.045 127.142C621.619 123.916 606.725 119.913 591.51 114.905C563.877 105.823 540.206 95.7551 522.673 87.998C516.183 85.1264 509.796 82.2372 503.618 79.4421C479.016 68.3117 455.779 57.7977 427.529 48.9401C406.417 42.3201 382.714 36.7226 357.083 32.3034C337.69 28.9595 317.135 26.4543 294.246 24.6441C288.963 24.227 283.589 23.8511 278.275 23.5268C254.932 22.1093 230.019 21.5731 199.878 21.0185C178.151 20.5985 149.708 20.3219 122.384 21.9269C109.444 22.6728 96.9345 23.9681 85.2014 25.7753C43.892 32.1401 15.8696 43.2587 10.2388 55.5189L9.94434 55.5005C11.4366 52.2494 14.4609 49.0608 18.9277 46.0222C23.1855 43.127 28.7805 40.3511 35.5553 37.7693C48.4304 32.8646 65.5575 28.6815 85.086 25.6731C96.841 23.8622 109.374 22.5646 122.337 21.8173C149.686 20.2101 178.151 20.4874 199.892 20.9074C230.043 21.4621 254.964 21.9983 278.322 23.4164C283.641 23.7415 289.019 24.1174 294.307 24.5345C317.218 26.3469 337.793 28.8544 357.209 32.2019C382.865 36.6255 406.588 42.2275 427.722 48.8541C455.992 57.7182 479.239 68.2352 503.849 79.37C510.025 82.1643 516.412 85.0536 522.902 87.9244C540.431 95.6786 564.092 105.743 591.709 114.821C606.906 119.823 621.784 123.822 637.192 127.044C671.812 134.286 710.85 138.205 753.214 138.695C766.974 138.856 781.151 138.664 795.353 138.125C812.185 137.479 829.092 136.341 845.598 134.742C875.097 131.887 900.883 128.176 924.43 123.398C937.067 120.834 949.528 117.691 961.47 114.054C981.599 107.958 999.395 100.694 1016.61 93.6706C1028.21 88.9344 1039.17 84.4615 1050.82 80.3019C1064.13 75.5495 1077.27 70.9471 1091.67 66.8736C1104.83 63.1392 1117.81 60.453 1130.25 58.8877C1145.34 56.99 1159.64 56.751 1172.76 58.1765C1180.63 59.0319 1188.39 60.4074 1196.48 62.3824C1212.49 66.2727 1226.78 71.8901 1240.59 77.3222C1245.19 79.1338 1249.55 80.8455 1253.95 82.4924C1270.57 88.7049 1287.09 95.3712 1303.06 102.306C1335.79 116.502 1368.8 132.968 1403.96 152.647L1403.71 152.708Z" fill="#FFE492"/>
<path d="M1402.51 147.365C1369.6 127.097 1337.1 110.331 1303.14 96.1106C1286.72 89.2207 1269.52 82.7588 1252.01 76.9031C1248.27 75.6512 1244.42 74.3228 1240.7 73.0385C1225.31 67.7322 1209.41 62.2457 1192.04 58.7967C1183.89 57.1667 1176.13 56.0855 1168.33 55.4919C1138.37 53.2124 1109.59 60.0369 1090.72 66.1625C1077.93 70.2978 1066.25 74.9848 1054.94 79.518L1052.82 80.3668C1042.56 84.4793 1032.93 88.9897 1022.74 93.7657C1006.5 101.371 989.717 109.234 969.579 115.699C957.862 119.489 945.286 122.66 932.198 125.124C909.378 129.42 883.982 132.486 852.281 134.772C835.888 135.954 818.976 136.693 802.012 136.966C787.831 137.186 773.729 137.076 760.091 136.637C718.806 135.313 680.23 130.722 645.435 122.991C630.393 119.648 615.489 115.54 599.872 110.43C573.443 101.799 549.937 92.9286 528.128 84.5823C525.204 83.4635 522.311 82.3521 519.44 81.2495C489.652 69.8124 461.518 59.0093 428.454 50.6946C406.868 45.2662 383.189 40.8396 358.078 37.537C339.641 35.1126 319.661 33.4665 296.999 32.5043C291.892 32.2888 286.697 32.1116 281.557 31.9777C268.628 31.6467 254.916 31.593 240.397 31.5364C228.736 31.4908 216.678 31.4437 203.954 31.2517C179.38 30.8494 151.529 30.394 125.973 31.3473C112.788 31.8394 100.203 32.8368 88.5676 34.3123C47.2741 39.5495 17.7356 49.1933 9.55206 60.1097L9.21582 60.0751C11.3726 57.1969 14.9779 54.3893 19.9302 51.7302C24.6656 49.1874 30.6584 46.7645 37.7416 44.5292C51.2893 40.2541 68.8262 36.6794 88.4522 34.1902C100.114 32.711 112.724 31.7114 125.936 31.2186C151.517 30.2646 179.382 30.7206 203.966 31.123C216.682 31.3142 228.74 31.362 240.397 31.4076C254.922 31.4643 268.638 31.518 281.579 31.8497C286.722 31.9843 291.923 32.1616 297.035 32.3771C319.725 33.3399 339.729 34.9883 358.191 37.4164C383.333 40.7227 407.037 45.1544 428.647 50.5887C461.741 58.9107 489.889 69.7189 519.688 81.1612C522.559 82.2638 525.454 83.3745 528.377 84.494C550.182 92.8389 573.68 101.707 600.101 110.335C615.702 115.439 630.59 119.544 645.614 122.882C680.364 130.604 718.89 135.188 760.121 136.51C773.743 136.949 787.831 137.059 801.996 136.839C818.942 136.565 835.838 135.828 852.213 134.647C883.883 132.363 909.249 129.301 932.038 125.011C945.099 122.552 957.651 119.386 969.349 115.604C989.46 109.146 1006.23 101.287 1022.46 93.687C1032.66 88.9088 1042.29 84.3962 1052.56 80.2808L1054.68 79.4319C1065.99 74.8965 1077.69 70.2066 1090.49 66.0669C1109.41 59.9214 1138.3 53.077 1168.39 55.3668C1176.24 55.9634 1184.02 57.0483 1192.2 58.6849C1209.61 62.1413 1225.53 67.6336 1240.93 72.9458C1244.65 74.2301 1248.5 75.5585 1252.24 76.8097C1269.76 82.6684 1286.97 89.1339 1303.4 96.0275C1337.37 110.254 1369.89 127.025 1402.8 147.3L1402.51 147.365Z" fill="#FFE492"/>
<path d="M1401.31 142.021C1371.1 121.447 1338.17 103.891 1303.45 89.8435C1286.57 82.9969 1268.69 76.7367 1250.29 71.2362C1247.64 70.4418 1244.92 69.6172 1242.29 68.8199C1224.9 63.5526 1206.93 58.1051 1187.78 55.1187C1179.56 53.8234 1171.78 53.0327 1163.99 52.7002C1134.11 51.4263 1107.05 58.8826 1089.6 65.3621C1078.76 69.3649 1068.99 73.8165 1059.53 78.1217C1057.89 78.8668 1056.26 79.6105 1054.62 80.3512C1045.63 84.4202 1037.21 88.966 1028.31 93.778C1013.17 101.959 997.521 110.418 977.505 117.258C965.75 121.275 953.426 124.381 939.825 126.754C911.376 131.716 882.946 133.553 858.889 134.696C842.618 135.468 825.713 135.807 808.642 135.699C794.505 135.6 780.488 135.186 766.982 134.469C726.936 132.35 688.866 127.093 653.83 118.842C639.252 115.41 624.339 111.195 608.237 105.957C591.971 100.679 576.814 95.5999 562.154 90.6879C552.192 87.3492 542.781 84.1959 533.591 81.1706C498.851 69.7342 467.03 59.6792 429.388 52.4516C407.338 48.2185 383.683 44.9615 359.079 42.7718C341.445 41.2021 322.595 40.4378 299.759 40.365C294.833 40.3518 289.815 40.3731 284.847 40.429C277.3 40.5195 269.492 40.7085 261.229 40.9093C245.372 41.294 227.395 41.7302 208.032 41.486C200.658 41.3926 193.135 41.2609 185.859 41.1329C167.144 40.8041 147.793 40.4643 129.561 40.7681C116.173 40.9917 103.511 41.692 91.9307 42.8497C50.7069 46.9725 19.6542 55.1423 8.86222 64.7037L8.49414 64.6471C11.3195 62.1433 15.5057 59.7174 20.9355 57.4365C26.1504 55.246 32.5412 53.1769 39.9269 51.2873C54.1589 47.6463 72.1037 44.6798 91.8233 42.7078C103.431 41.5471 116.121 40.8446 129.539 40.621C147.791 40.3165 167.15 40.657 185.875 40.9858C193.149 41.1138 200.672 41.2455 208.044 41.3389C227.389 41.5831 245.352 41.1477 261.202 40.763C269.469 40.5622 277.278 40.3731 284.833 40.2826C289.807 40.2267 294.829 40.2054 299.761 40.2186C322.628 40.2907 341.506 41.0572 359.171 42.6291C383.805 44.8217 407.492 48.0824 429.569 52.3214C446.573 55.5858 463.803 59.7218 482.245 64.9649C498.756 69.6584 514.816 74.7941 533.853 81.061C543.044 84.087 552.455 87.2404 562.419 90.579C577.077 95.4903 592.234 100.569 608.496 105.847C624.582 111.08 639.479 115.29 654.039 118.718C689.027 126.958 727.044 132.208 767.034 134.325C780.524 135.04 794.523 135.454 808.644 135.553C825.695 135.66 842.582 135.323 858.833 134.55C882.861 133.41 911.253 131.575 939.651 126.621C953.215 124.255 965.507 121.157 977.23 117.151C997.213 110.322 1012.85 101.87 1027.98 93.6956C1036.89 88.8806 1045.3 84.3327 1054.31 80.2592C1055.95 79.5185 1057.58 78.7749 1059.21 78.0305C1068.68 73.7224 1078.46 69.2678 1089.31 65.2598C1100.66 61.0444 1112.31 57.8013 1123.92 55.6211C1137.68 53.0386 1151.17 52.0074 1164.03 52.5561C1171.86 52.89 1179.67 53.6844 1187.93 54.9849C1207.12 57.9793 1225.12 63.4334 1242.53 68.7074C1245.16 69.5047 1247.88 70.3293 1250.53 71.1229C1268.94 76.6278 1286.84 82.894 1303.73 89.7457C1322.17 97.2049 1340.23 105.703 1357.4 115.005C1372.57 123.227 1387.46 132.293 1401.65 141.952L1401.31 142.021Z" fill="#FFE492"/>
<path d="M1400.11 136.676C1372.14 115.512 1339.73 97.6464 1303.76 83.576C1286.42 76.7729 1267.85 70.7149 1248.58 65.5689C1247.66 65.324 1246.74 65.0791 1245.82 64.8334C1225.78 59.4756 1205.05 53.9354 1183.52 51.4412C1175.18 50.4747 1167.37 49.9737 1159.66 49.909C1129.9 49.6604 1104.53 57.7397 1088.48 64.5605C1079.04 68.5509 1070.65 72.9245 1062.55 77.1539C1060.55 78.1999 1058.47 79.2811 1056.43 80.3344C1048.63 84.3461 1041.39 88.9073 1033.72 93.7369C1019.77 102.522 1005.35 111.605 985.435 118.816C973.915 122.988 961.492 126.117 947.455 128.383C919.8 132.846 891.72 134.017 865.497 134.619C849.326 134.99 832.428 134.926 815.271 134.431C801.181 134.012 787.253 133.295 773.872 132.301C735.189 129.432 697.624 123.508 662.226 114.692C648.05 111.162 633.553 106.965 616.607 101.484C584.401 91.0948 560.485 83.7776 539.064 77.7585C496.459 65.7874 463.942 58.7445 430.339 54.2091C407.842 51.1727 384.21 49.0859 360.098 48.0061C343.369 47.2573 325.615 47.3243 302.535 48.2253C297.805 48.4122 292.966 48.6321 288.151 48.88C283.603 49.1176 278.983 49.3897 274.09 49.6773C256.026 50.7402 235.551 51.945 212.116 51.7199C199.764 51.6015 187.148 51.2771 174.947 50.9638C161.081 50.6078 146.744 50.2393 133.15 50.1893C119.521 50.1392 106.781 50.5423 95.2951 51.3882C54.2085 54.4121 21.6377 61.1093 8.16962 69.3026L7.7876 69.2166C11.2854 67.0879 16.0527 65.0438 21.956 63.1409C27.6544 61.3035 34.4392 59.5889 42.1233 58.0435C57.0497 55.041 75.4064 52.6828 95.2075 51.2257C106.726 50.3783 119.493 49.9737 133.154 50.0238C146.76 50.0738 161.105 50.4423 174.977 50.799C187.174 51.1124 199.784 51.4368 212.126 51.5552C235.519 51.7795 255.972 50.5762 274.017 49.5148C278.911 49.2264 283.535 48.955 288.086 48.7167C292.907 48.4688 297.749 48.2489 302.483 48.0613C325.599 47.1595 343.382 47.0918 360.147 47.8428C384.294 48.9241 407.959 51.0138 430.488 54.0546C464.137 58.5959 496.688 65.6462 539.331 77.6276C560.759 83.6488 584.683 90.9683 616.898 101.36C633.832 106.837 648.313 111.03 662.473 114.556C697.823 123.359 735.333 129.275 773.958 132.139C787.32 133.132 801.232 133.848 815.303 134.267C832.44 134.762 849.316 134.825 865.467 134.455C891.651 133.854 919.683 132.685 947.274 128.233C961.259 125.976 973.639 122.857 985.119 118.7C1004.99 111.504 1019.4 102.43 1033.33 93.6553C1041 88.8227 1048.25 84.2579 1056.06 80.2403C1058.1 79.1877 1060.18 78.1064 1062.18 77.0605C1070.29 72.8274 1078.68 68.4508 1088.14 64.4538C1098.61 60.0023 1109.59 56.4812 1120.77 53.9877C1133.87 51.0668 1146.96 49.6405 1159.67 49.7457C1167.43 49.8105 1175.27 50.3143 1183.65 51.2852C1205.25 53.7883 1226.01 59.3359 1246.08 64.7017C1247 64.9474 1247.92 65.1931 1248.84 65.4373C1268.14 70.5891 1286.73 76.6545 1304.09 83.465C1340.09 97.5479 1372.52 115.427 1400.51 136.606L1400.11 136.676Z" fill="#FFE492"/>
<path d="M875.397 134.543C874.28 134.543 873.18 134.542 872.098 134.54C856.011 134.515 839.119 134.051 821.895 133.161C807.855 132.422 794.015 131.402 780.758 130.13C761.817 128.316 742.807 125.709 724.254 122.382C706.337 119.169 688.293 115.186 670.62 110.541C653.304 105.99 637.13 100.919 624.973 97.0095C596.529 87.8871 569.466 80.2624 544.535 74.3463C504.157 64.765 468.174 58.924 431.291 55.9649C409.041 54.1797 385.169 53.2382 362.184 53.2382C361.828 53.2382 361.474 53.2382 361.118 53.2389C341.373 53.2639 322.626 54.6203 305.312 56.0825C300.805 56.4658 296.143 56.8843 291.456 57.3278C288.887 57.5735 286.315 57.8265 283.593 58.0943C264.394 59.9854 242.633 62.1281 216.197 61.9523C200.096 61.8449 183.652 61.2285 167.748 60.6319C157.48 60.2465 146.863 59.8486 136.735 59.6081C122.814 59.2778 110.002 59.3837 98.6533 59.9243C57.7856 61.8691 23.6966 67.0945 7.46293 73.9028L7.08887 73.7814C15.4156 70.2898 27.9406 67.2666 44.3155 64.7952C59.9543 62.4355 78.7228 60.6878 98.5896 59.7427C109.968 59.2013 122.814 59.0939 136.767 59.4256C146.905 59.6662 157.527 60.0648 167.8 60.4503C183.694 61.0468 200.128 61.6632 216.207 61.7699C242.576 61.9457 264.299 59.8059 283.465 57.9185C286.189 57.65 288.762 57.397 291.332 57.1513C296.024 56.7078 300.69 56.2885 305.2 55.9053C322.544 54.4408 341.323 53.0822 361.116 53.0565C384.467 53.0263 408.766 53.9708 431.397 55.7869C450.432 57.3146 468.886 59.5632 487.81 62.6613C506.035 65.6455 524.678 69.4174 544.802 74.1933C569.752 80.1138 596.836 87.7444 625.298 96.8727C637.445 100.78 653.607 105.847 670.905 110.393C706.765 119.818 743.766 126.399 780.882 129.954C794.121 131.224 807.943 132.243 821.962 132.982C839.165 133.87 856.033 134.334 872.098 134.358C897.235 134.396 926.424 134.083 954.892 129.842C969.301 127.696 981.766 124.557 993.002 120.248C1012.73 112.679 1025.81 102.965 1038.47 93.5693C1044.97 88.7367 1051.12 84.1719 1057.8 80.2205C1059.94 78.9546 1062.1 77.6505 1064.19 76.389C1071.25 72.1272 1078.55 67.7212 1086.96 63.6485C1096.57 58.963 1106.88 55.1624 1117.61 52.3526C1130.05 49.0948 1142.72 47.2721 1155.29 46.9352C1163.05 46.727 1170.92 46.9396 1179.36 47.5854C1201.93 49.311 1224.29 54.3246 1247.13 59.7508C1267.04 64.4818 1286.85 70.5097 1304.43 77.1834C1323.95 84.5749 1342.3 93.2464 1358.96 102.956C1373.8 111.607 1387.39 121.13 1399.36 131.26L1398.9 131.333C1373.2 109.579 1341.3 91.4031 1304.07 77.3121C1286.52 70.648 1266.74 64.6289 1246.86 59.906C1224.07 54.4893 1201.74 49.4854 1179.26 47.7657C1170.87 47.1235 1163.04 46.9124 1155.33 47.1191C1132.23 47.7392 1108.09 53.6486 1087.36 63.7603C1078.96 67.8257 1071.67 72.2279 1064.62 76.4853C1062.53 77.7475 1060.37 79.0524 1058.22 80.3183C1051.55 84.2623 1045.41 88.8235 1038.91 93.6517C1032.7 98.2614 1026.28 103.029 1018.92 107.611C1010.57 112.806 1002.21 116.981 993.362 120.376C982.077 124.705 969.556 127.857 955.079 130.014C942.311 131.916 928.588 133.173 913.127 133.859C900.033 134.436 886.881 134.543 875.397 134.543Z" fill="#FFE492"/>
<path d="M907.303 134.912C897.158 134.912 887.413 134.688 878.694 134.462C862.663 134.045 845.779 133.181 828.513 131.892C814.533 130.834 800.781 129.511 787.637 127.96C751.646 123.721 716.112 116.665 679.007 106.39C662.825 101.91 647.57 97.0889 633.336 92.5358C605.234 83.5731 577.2 76.3058 550.007 70.9348C510.015 63.0357 472.597 58.8364 432.251 57.7198C409.262 57.0836 385.02 57.3432 362.143 58.4701C342.995 59.4131 324.942 61.6889 308.09 63.9382C303.874 64.5039 299.389 65.1217 294.763 65.7741C293.607 65.9382 292.441 66.1052 291.259 66.2736C271.85 69.0481 249.888 72.1874 221.703 72.1874C221.227 72.1874 220.753 72.1867 220.274 72.1845C201.205 72.1131 181.736 71.1069 162.906 70.133C155.441 69.7469 147.721 69.3482 140.313 69.0253C125.844 68.3957 113.314 68.2096 102.002 68.4582C60.862 69.3629 26.1364 73.023 6.73316 78.5022L6.40088 78.3411C15.9931 75.6328 29.863 73.2812 46.5066 71.5409C62.8775 69.8293 82.0559 68.6936 101.968 68.2559C113.312 68.0066 125.874 68.1927 140.375 68.8238C147.79 69.1467 155.512 69.5461 162.98 69.9315C181.792 70.9039 201.243 71.9094 220.276 71.9807C249.049 72.0896 271.369 68.898 291.058 66.0831C292.238 65.9146 293.406 65.7477 294.562 65.5829C299.192 64.9297 303.679 64.3119 307.899 63.7462C324.779 61.4925 342.865 59.2138 362.065 58.2678C384.978 57.1395 409.26 56.8791 432.287 57.5161C452.281 58.0692 471.344 59.3756 490.564 61.5087C510.359 63.7058 529.886 66.7296 550.26 70.7546C577.487 76.1329 605.557 83.409 633.689 92.3806C647.917 96.9322 663.161 101.75 679.33 106.226C716.385 116.487 751.865 123.533 787.798 127.765C800.922 129.313 814.657 130.634 828.616 131.691C845.858 132.979 862.719 133.842 878.726 134.257C905.662 134.956 934.317 135.315 962.507 131.448C977.34 129.413 989.892 126.254 1000.88 121.792C1020.45 113.843 1032.64 103 1043.39 93.4332C1048.79 88.6197 1053.9 84.0732 1059.54 80.1976C1061.57 78.7993 1063.62 77.354 1065.6 75.9564C1071.79 71.5836 1078.2 67.0621 1085.77 62.8393C1094.54 57.9199 1104.19 53.8398 1114.44 50.7122C1126.22 47.1205 1138.49 44.9021 1150.91 44.1202C1158.67 43.6311 1166.57 43.5531 1175.07 43.8797C1198.79 44.794 1222.9 49.3117 1245.41 54.0583C1266.2 58.4407 1286.73 64.2633 1304.77 70.8965C1324.84 78.2535 1343.33 87.0118 1359.73 96.9263C1374.39 105.793 1387.34 115.543 1398.2 125.909L1397.69 125.981C1374.6 103.949 1342.33 84.95 1304.38 71.0392C1286.38 64.4185 1265.89 58.6069 1245.14 54.2333C1222.68 49.4978 1198.64 44.9911 1175.01 44.0805C1166.57 43.7554 1158.72 43.8333 1151.01 44.3188C1128.08 45.7627 1105.07 52.379 1086.23 62.9496C1078.67 67.1636 1072.27 71.6806 1066.09 76.0491C1064.11 77.4474 1062.06 78.8927 1060.03 80.2925C1054.4 84.1593 1049.3 88.7013 1043.89 93.5097C1033.13 103.091 1020.92 113.951 1001.29 121.927C990.237 126.414 977.614 129.59 962.698 131.637C949.753 133.413 935.789 134.441 920.005 134.779C915.738 134.874 911.488 134.912 907.303 134.912Z" fill="#FFE492"/>
<path d="M927.329 135.708C927.184 135.708 927.041 135.708 926.895 135.708C912.558 135.695 898.481 135.046 885.289 134.382C869.283 133.578 852.408 132.312 835.132 130.622C821.216 129.245 807.551 127.619 794.519 125.789C759.966 120.944 725.929 113.461 687.399 102.239C673.523 98.1984 659.868 93.8476 646.661 89.641C645.009 89.1143 643.356 88.5884 641.703 88.0625C613.455 79.102 584.448 72.1915 555.488 67.5236C515.832 61.1324 475.838 58.4991 433.22 59.4737C409.851 60.0085 385.631 61.47 363.177 63.7002C345.461 65.4604 329.675 68.2842 310.877 71.7928C307.067 72.507 302.998 73.2779 298.075 74.2194L297.801 74.2723C288.304 76.1009 277.54 78.173 265.467 79.7485C251.601 81.558 238.149 82.4289 224.354 82.4186C202.844 82.3987 180.892 80.9188 159.664 79.4867C154.463 79.1358 149.083 78.7732 143.89 78.4451C128.998 77.5058 116.391 77.0314 105.351 76.9954C64.6977 76.863 28.4818 79.0902 5.9906 83.1049L5.73193 82.9063C16.7487 80.9394 31.6095 79.3432 48.7067 78.2899C65.8357 77.2344 85.426 76.7107 105.356 76.7754C116.429 76.8115 129.067 77.2866 143.992 78.2281C149.189 78.5562 154.569 78.9188 159.772 79.2697C180.974 80.6996 202.898 82.1781 224.356 82.1979C224.452 82.1979 224.549 82.1979 224.645 82.1979C255.339 82.1979 278.724 77.6963 297.526 74.0767L297.803 74.0237C302.727 73.0815 306.796 72.3106 310.608 71.5964C329.439 68.0819 345.252 65.253 363.024 63.4876C385.515 61.253 409.775 59.7893 433.184 59.2538C454.039 58.7772 473.711 59.1405 493.327 60.366C514.466 61.6863 534.878 63.9613 555.727 67.3221C584.742 71.9987 613.8 78.9203 642.093 87.8955C643.746 88.4214 645.399 88.9481 647.051 89.4748C660.252 93.6799 673.903 98.0292 687.767 102.067C726.248 113.275 760.235 120.748 794.73 125.585C807.744 127.412 821.389 129.036 835.285 130.411C852.538 132.099 869.388 133.362 885.369 134.166C913.994 135.606 942.019 136.605 970.133 133.062C985.389 131.139 998.028 127.961 1008.77 123.345C1028.17 115.006 1038.76 103.451 1048.11 93.2555C1052.49 88.4825 1056.63 83.9735 1061.29 80.1847C1063.08 78.7268 1064.88 77.219 1066.63 75.7604C1072.07 71.1999 1077.7 66.485 1084.6 62.0393C1092.54 56.8838 1101.52 52.5235 1111.29 49.0796C1122.41 45.1547 1134.27 42.542 1146.53 41.3151C1154.14 40.5546 1161.89 40.1838 1170.23 40.1838C1170.41 40.1838 1170.59 40.1838 1170.77 40.1846C1196.69 40.2346 1223.36 44.5876 1243.71 48.3742C1265.38 52.4087 1286.61 58.0254 1305.12 64.6175C1325.73 71.9406 1344.37 80.7849 1360.51 90.9054C1374.99 99.9873 1387.29 109.967 1397.06 120.567L1396.49 120.639C1381.96 104.865 1354.23 82.3708 1304.7 64.7771C1286.24 58.1998 1265.05 52.5963 1243.44 48.5714C1223.15 44.795 1196.56 40.4545 1170.77 40.4052C1162.28 40.3869 1154.41 40.7561 1146.69 41.5284C1123.97 43.802 1102.11 51.1252 1085.12 62.1489C1078.23 66.5843 1072.61 71.2941 1067.17 75.8494C1065.43 77.3087 1063.63 78.8173 1061.83 80.2759C1057.18 84.0552 1053.05 88.5583 1048.68 93.3261C1039.31 103.54 1028.69 115.117 1009.22 123.488C998.41 128.135 985.686 131.335 970.326 133.27C957.307 134.91 943.236 135.708 927.329 135.708Z" fill="#FFE492"/>
<path d="M943.253 136.744C940.165 136.744 937.009 136.707 933.778 136.633C919.636 136.312 905.891 135.347 891.884 134.303C875.646 133.092 859.247 131.473 841.75 129.351C827.906 127.658 814.331 125.729 801.4 123.618C768.596 118.269 736.025 110.395 695.792 98.0873C685.8 95.031 675.812 91.8255 666.152 88.7251C660.894 87.0378 655.458 85.2923 650.072 83.588C621.488 74.5672 591.512 68.0149 560.975 64.112C520.626 58.9551 479.158 58.0106 434.195 61.225C410.441 62.9234 386.242 65.5868 364.219 68.927C346.527 71.6103 331.115 75.3785 314.797 79.3682L313.669 79.644C311.12 80.2692 308.544 80.9033 305.935 81.5447C304.433 81.9146 302.921 82.2868 301.395 82.662C291.88 85.0135 281.604 87.4666 269.819 89.3548C256.136 91.5467 242.602 92.625 228.44 92.6515C204.862 92.6942 180.813 90.6685 157.558 88.7075C154.239 88.4272 150.805 88.1382 147.473 87.8638C131.848 86.5766 119.53 85.8359 108.702 85.5314C68.7454 84.4082 31.0373 85.1996 5.24328 87.7034L5.07813 87.4725C30.9398 84.962 68.7255 84.1676 108.752 85.293C119.609 85.5983 131.959 86.3412 147.614 87.6306C150.948 87.9057 154.383 88.1948 157.703 88.475C180.674 90.4118 204.419 92.4132 227.684 92.4132C227.935 92.4132 228.185 92.4132 228.438 92.4125C258.53 92.3566 279.95 87.674 301.039 82.4634C302.565 82.0882 304.077 81.716 305.579 81.3461C308.188 80.7039 310.762 80.0706 313.313 79.4447L314.441 79.1688C330.786 75.1726 346.224 71.3977 363.974 68.7056C386.037 65.3588 410.277 62.691 434.074 60.9896C479.15 57.7672 520.73 58.7146 561.188 63.8855C591.801 67.7986 621.846 74.3657 650.494 83.4063C655.88 85.1114 661.317 86.8561 666.576 88.5442C676.232 91.6438 686.218 94.8486 696.204 97.9026C736.39 110.196 768.915 118.059 801.661 123.399C814.573 125.507 828.129 127.434 841.953 129.124C859.424 131.242 875.799 132.86 892.013 134.068C916.625 135.904 947.256 138.188 977.76 134.669C993.442 132.861 1006.16 129.662 1016.65 124.892C1035.86 116.153 1044.77 103.863 1052.63 93.02C1056.05 88.3095 1059.27 83.8602 1063.04 80.1677C1064.5 78.729 1065.97 77.2409 1067.39 75.8015C1072.16 70.974 1077.09 65.9826 1083.42 61.2353C1090.56 55.84 1098.87 51.1994 1108.12 47.4422C1118.61 43.1848 1130.05 40.1786 1142.15 38.5067C1149.92 37.4335 1157.87 36.7723 1166.48 36.4847C1178 36.0992 1190.27 36.5111 1203.98 37.741C1215.58 38.7825 1228.01 40.3993 1242 42.6846C1264.55 46.3705 1286.49 51.782 1305.46 58.3335C1326.63 65.6221 1345.41 74.554 1361.29 84.8797C1375.59 94.1778 1387.24 104.386 1395.91 115.221L1395.29 115.289C1376.98 92.4132 1344.92 72.248 1305.02 58.5086C1286.1 51.9747 1264.22 46.5787 1241.73 42.9038C1211.61 37.98 1187.71 36.0154 1166.54 36.723C1157.99 37.0084 1150.09 37.6652 1142.38 38.7303C1113.6 42.7074 1094.75 53.2214 1084 61.3405C1077.69 66.076 1072.76 71.0616 1068 75.8831C1066.58 77.3233 1065.11 78.8121 1063.64 80.2516C1059.89 83.933 1056.67 88.3772 1053.26 93.0818C1045.38 103.948 1036.45 116.264 1017.15 125.042C1006.58 129.851 993.759 133.075 977.951 134.898C967.236 136.134 955.81 136.744 943.253 136.744Z" fill="#FFE492"/>
<path d="M957.049 137.931C936.008 137.931 915.779 135.932 898.473 134.223C882.191 132.615 865.801 130.605 848.363 128.08C834.597 126.072 821.109 123.841 808.275 121.446C769.805 114.278 735.509 103.988 704.18 93.9359C697.783 91.8837 691.321 89.7683 685.073 87.7227C676.398 84.882 667.427 81.9449 658.438 79.1145C629.426 70.0047 598.481 63.8091 566.463 60.6999C525.045 56.6787 482.098 57.4223 435.169 62.9743C411.007 65.8326 386.832 69.698 365.259 74.1525C348.619 77.5875 334.54 81.9243 319.636 86.5156C318.579 86.8408 317.521 87.1673 316.456 87.4939L315.879 87.6719C312.256 88.7892 308.509 89.944 304.711 91.1033C295.61 93.8932 285.588 96.7788 273.997 98.9833C260.54 101.542 246.975 102.818 232.52 102.885C207.148 103.002 181.288 100.365 156.282 97.8145C154.529 97.6357 152.784 97.4577 151.047 97.2819C134.557 95.6093 122.527 94.6178 112.046 94.0661C73.0921 92.0168 33.8878 91.3725 4.48448 92.2986L4.4248 92.0418C33.8758 91.1136 73.1379 91.7587 112.143 93.8109C122.655 94.364 134.71 95.3577 151.23 97.0333C152.967 97.2091 154.712 97.3871 156.467 97.5666C181.425 100.112 207.235 102.742 232.51 102.627C263.901 102.483 286.008 96.5008 304.265 90.9047C308.064 89.7455 311.81 88.5906 315.433 87.4741L316.01 87.2961C317.075 86.9687 318.133 86.6429 319.19 86.3178C334.12 81.7184 348.223 77.3742 364.918 73.9274C386.532 69.4648 410.752 65.5928 434.956 62.7293C457.205 60.0975 478.102 58.5779 498.841 58.0836C521.974 57.5326 544.784 58.3292 566.638 60.4513C598.758 63.5701 629.794 69.7833 658.887 78.9181C667.883 81.75 676.856 84.6878 685.533 87.5292C691.781 89.5748 698.239 91.6895 704.634 93.741C735.931 103.782 770.185 114.061 808.586 121.216C821.401 123.607 834.869 125.835 848.616 127.84C866.027 130.362 882.392 132.369 898.65 133.974C923.612 136.44 954.679 139.509 985.375 136.279C1001.48 134.585 1014.29 131.367 1024.53 126.441C1043.54 117.292 1050.65 104.245 1056.93 92.734C1059.45 88.1088 1061.84 83.7404 1064.77 80.1531C1065.86 78.8262 1066.95 77.4551 1068 76.1289C1072.13 70.9418 1076.4 65.5774 1082.23 60.4337C1088.58 54.7942 1096.23 49.8719 1104.95 45.805C1114.79 41.2159 1125.83 37.8161 1137.76 35.6999C1145.51 34.3259 1153.49 33.3734 1162.17 32.7872C1173.86 31.9979 1186.83 32.0244 1200.72 32.8659C1212.89 33.6029 1226.2 34.9923 1240.27 36.9967C1263.7 40.3339 1286.36 45.5394 1305.8 52.0506C1327.51 59.3053 1346.44 68.3232 1362.06 78.8549C1376.17 88.3692 1387.17 98.8067 1394.76 109.877L1394.08 109.94C1378.01 86.4833 1346.49 65.9922 1305.33 52.2418C1285.95 45.752 1263.37 40.5634 1240.02 37.2373C1209.75 32.9262 1184.33 31.5529 1162.29 33.0409C1153.68 33.6227 1145.75 34.5687 1138.06 35.9324C1109.67 40.9672 1092.38 52.0888 1082.88 60.533C1077.06 65.6634 1072.79 71.0205 1068.67 76.201C1067.62 77.5272 1066.53 78.899 1065.44 80.2274C1062.51 83.8029 1060.13 88.1655 1057.61 92.7848C1054.59 98.3227 1051.17 104.599 1046.2 110.484C1040.51 117.226 1033.6 122.497 1025.08 126.598C1020.15 128.97 1014.49 130.988 1008.25 132.597C1001.53 134.328 993.903 135.651 985.566 136.527C976.028 137.531 966.456 137.931 957.049 137.931Z" fill="#FFE492"/>
<path d="M969.485 139.233C962.529 139.233 955.241 138.983 947.543 138.484C932.381 137.5 917.869 135.716 905.063 134.142C888.923 132.159 872.071 129.691 854.977 126.808C841.298 124.488 827.898 121.954 815.152 119.273C778.568 111.589 747.05 101.371 712.569 89.7834C709.505 88.7536 706.393 87.7033 703.385 86.6867C691.536 82.686 679.286 78.5493 666.805 74.6406C637.312 65.4241 605.4 59.586 571.953 57.2881C529.765 54.3893 484.07 56.8902 436.145 64.7224C411.553 68.7414 387.4 73.8079 366.3 79.3753C350.412 83.5672 337.334 88.5094 323.488 93.7421C322.081 94.2739 320.669 94.8072 319.248 95.3427C315.712 96.677 311.904 98.1091 308.03 99.5427C299.907 102.559 290.006 105.996 278.177 108.61C264.936 111.536 251.337 113.011 236.605 113.117C209.637 113.314 182.186 110.013 155.638 106.82L154.627 106.699C141.629 105.137 127.878 103.558 115.395 102.6C77.3445 99.6788 37.6885 97.6509 3.73486 96.8896L3.78062 96.6145C37.7701 97.3765 77.4619 99.4059 115.546 102.33C128.065 103.291 141.84 104.872 154.858 106.436L155.869 106.558C182.359 109.743 209.755 113.036 236.591 112.841C267.584 112.616 288.989 106.222 307.503 99.3463C311.377 97.9135 315.181 96.4813 318.717 95.1478C320.137 94.613 321.55 94.079 322.957 93.548C336.827 88.3064 349.929 83.3554 365.868 79.1495C387.008 73.5711 411.206 68.495 435.844 64.4686C458.33 60.7945 480.457 58.2627 501.607 56.9446C525.773 55.4389 549.488 55.4625 572.093 57.0152C605.666 59.3219 637.696 65.1806 667.288 74.4287C679.779 78.3411 692.036 82.4793 703.89 86.4822C706.899 87.498 710.01 88.5484 713.075 89.5782C747.522 101.155 779.006 111.362 815.524 119.033C828.252 121.709 841.633 124.24 855.292 126.557C872.361 129.435 889.186 131.899 905.302 133.88C930.565 136.985 962.005 140.849 993.008 137.889C1009.54 136.309 1022.43 133.072 1032.41 127.991C1051.22 118.418 1056.66 103.988 1061.03 92.3939C1062.74 87.8776 1064.34 83.6121 1066.52 80.1403C1067.21 79.0458 1067.91 77.9182 1068.58 76.8274C1072.06 71.1607 1075.66 65.3005 1081.06 59.6338C1089.41 50.8153 1105.25 39.0184 1133.38 32.8964C1141.14 31.2061 1149.16 29.9616 1157.87 29.0922C1180.67 26.7847 1207.82 27.5313 1238.56 31.3098C1262.87 34.2984 1286.24 39.298 1306.14 45.7686C1328.41 52.9888 1347.49 62.0935 1362.84 72.8318C1369.89 77.7571 1376.11 83.0178 1381.35 88.4675C1386.35 93.673 1390.48 99.0786 1393.62 104.534L1392.89 104.592C1379.07 80.5522 1348.08 59.7353 1305.65 45.9753C1285.82 39.5289 1262.54 34.5485 1238.32 31.571C1207.73 27.8093 1180.72 27.065 1158.07 29.3577C1149.41 30.2205 1141.46 31.4555 1133.76 33.1333C1105.82 39.2126 1090.07 50.9491 1081.77 59.7243C1076.38 65.3763 1072.78 71.2283 1069.3 76.8877C1068.63 77.9785 1067.94 79.1068 1067.25 80.2021C1065.08 83.6621 1063.47 87.9217 1061.77 92.4314C1059.57 98.2658 1057.08 104.878 1052.82 111.12C1047.92 118.291 1041.44 123.863 1033.02 128.153C1028.21 130.6 1022.59 132.664 1016.31 134.287C1009.54 136.035 1001.77 137.337 993.194 138.155C985.671 138.874 977.813 139.233 969.485 139.233Z" fill="#FFE492"/>
<path d="M980.944 140.609C972.607 140.609 963.815 140.21 954.424 139.409C939.207 138.112 924.567 135.96 911.65 134.06C895.389 131.67 878.546 128.802 861.59 125.535C848.001 122.906 834.69 120.068 822.028 117.1C787.185 108.939 757.3 98.4207 725.66 87.2859C724.094 86.735 722.528 86.1833 720.959 85.6316C706.245 80.4592 691.032 75.1103 675.172 70.1674C645.166 60.8339 612.287 55.3526 577.448 53.8756C533.687 52.0198 486.475 56.2573 437.119 66.469C412.431 71.5767 387.65 78.015 367.339 84.5974C352.003 89.5676 339.703 95.16 326.681 101.081C325.139 101.782 323.593 102.485 322.035 103.19C318.923 104.6 315.22 106.272 311.344 107.982C304.166 111.158 294.384 115.193 282.355 118.228C269.325 121.517 255.695 123.193 240.687 123.352C228.351 123.466 214.738 122.762 199.067 121.199C185.613 119.857 172.599 118.103 158.198 116.117C145.052 114.282 131.178 112.387 118.731 111.135C81.8603 107.426 42.9146 104.179 2.97803 101.481L3.12128 101.192C43.0817 103.89 82.0493 107.141 118.94 110.851C131.421 112.106 145.315 114.005 158.476 115.842C182.615 119.171 212.657 123.317 240.665 123.057C272.687 122.719 293.266 115.521 310.733 107.792C314.607 106.084 318.308 104.412 321.418 103.003C322.976 102.299 324.522 101.595 326.062 100.895C339.106 94.9643 351.428 89.3623 366.814 84.376C387.166 77.7803 411.995 71.3295 436.731 66.2123C486.236 55.9697 533.612 51.7212 577.54 53.5836C594.382 54.2978 610.926 55.9565 626.708 58.5133C643.642 61.2561 660.121 65.1023 675.686 69.943C691.563 74.8911 706.786 80.243 721.508 85.419C723.078 85.9715 724.645 86.5224 726.211 87.0733C757.821 98.1985 787.68 108.707 822.455 116.852C835.1 119.816 848.391 122.65 861.96 125.275C878.892 128.536 895.709 131.401 911.947 133.788C937.466 137.539 969.227 142.207 1000.63 139.5C1017.64 138.033 1030.62 134.776 1040.29 129.543C1058.93 119.549 1062.25 104.281 1064.92 92.0133C1065.87 87.6257 1066.77 83.4816 1068.27 80.1304C1068.57 79.439 1068.88 78.7439 1069.19 78.0451C1071.98 71.7333 1074.87 65.2061 1079.88 58.8362C1087.04 49.6741 1101.37 37.2506 1128.99 30.0952C1136.69 28.0989 1144.73 26.563 1153.56 25.3994C1165.84 23.7672 1179.52 23 1194.23 23.1177C1207.66 23.2251 1221.99 24.0688 1236.84 25.6245C1262.02 28.2629 1286.1 33.0565 1306.48 39.4867C1329.29 46.6716 1348.52 55.8645 1363.62 66.8088C1370.54 71.8304 1376.54 77.1992 1381.45 82.7659C1386.14 88.0972 1389.85 93.6242 1392.46 99.193L1391.68 99.243C1380.29 74.9764 1349.04 53.2776 1305.96 39.7103C1285.68 33.3081 1261.7 28.5343 1236.62 25.9062C1205.7 22.6653 1177.07 22.5859 1153.83 25.6752C1145.06 26.83 1137.09 28.3541 1129.44 30.3349C1102.02 37.4411 1087.77 49.8006 1080.64 58.9171C1075.64 65.27 1072.76 71.7878 1069.98 78.0915C1069.67 78.7902 1069.36 79.4861 1069.05 80.1775C1067.56 83.5162 1066.66 87.6551 1065.71 92.0361C1063.03 104.339 1059.7 119.651 1040.95 129.71C1036.28 132.232 1030.71 134.343 1024.37 135.982C1017.56 137.746 1009.63 139.026 1000.81 139.787C994.446 140.334 987.852 140.609 980.944 140.609Z" fill="#FFE492"/>
<path d="M991.712 142.041C982.214 142.041 972.15 141.473 961.305 140.333C945.96 138.72 931.229 136.2 918.234 133.978C901.812 131.17 884.977 127.9 868.198 124.262C854.706 121.328 841.485 118.186 828.898 114.927C797.905 106.903 771.417 97.0742 743.372 86.6676C738.788 84.9662 734.047 83.2075 729.343 81.4783C712.809 75.4026 698.691 70.3927 683.535 65.6933C652.994 56.2363 619.15 51.1117 582.94 50.4614C537.44 49.6442 488.703 55.6169 438.086 68.2133C412.941 74.4714 388.181 82.1432 368.37 89.8165C353.446 95.5972 341.778 101.89 329.427 108.552C327.897 109.377 326.361 110.205 324.815 111.034C322.061 112.513 318.416 114.463 314.653 116.417C298.82 124.661 278.133 133.149 244.764 133.583C243.724 133.595 242.679 133.601 241.637 133.601C215.58 133.601 188.978 129.789 161.763 125.532L160.064 125.264C146.584 123.137 133.85 121.128 122.064 119.666C77.6444 114.155 34.6855 109.504 2.22217 106.067L2.45497 105.766C34.9263 109.204 77.8971 113.857 122.332 119.37C134.151 120.836 146.899 122.847 160.397 124.977L162.094 125.244C190.305 129.657 217.856 133.593 244.734 133.271C277.733 132.841 298.247 124.419 313.963 116.237C317.723 114.284 321.364 112.336 324.118 110.858C325.664 110.028 327.198 109.201 328.728 108.375C341.1 101.703 352.785 95.4001 367.758 89.601C387.608 81.9115 412.418 74.2242 437.613 67.9536C460.997 62.1339 484.39 57.6654 507.139 54.671C533.242 51.2352 558.759 49.7141 582.98 50.1488C619.377 50.802 653.392 55.9516 684.076 65.4528C699.254 70.1596 713.386 75.1746 729.936 81.2554C734.642 82.9847 739.383 84.7441 743.969 86.4454C771.986 96.8418 798.448 106.661 829.382 114.669C841.95 117.924 855.152 121.061 868.624 123.991C885.379 127.625 902.188 130.889 918.586 133.693C944.329 138.095 976.366 143.574 1008.25 141.107C1025.68 139.759 1038.74 136.483 1048.17 131.092C1066.57 120.642 1067.67 104.515 1068.56 91.5568C1068.85 87.3288 1069.13 83.3348 1070.01 80.1167L1070.03 80.0432C1071.99 72.837 1074.03 65.3858 1078.69 58.034C1082.74 51.6214 1088.36 45.8561 1095.42 40.897C1103.38 35.3061 1113.19 30.728 1124.59 27.2893C1132.21 24.9885 1140.28 23.1606 1149.25 21.702C1173.48 17.7381 1203.17 17.1262 1235.11 19.9338C1247.96 21.0636 1260.64 22.7752 1272.8 25.0201C1285.03 27.2783 1296.47 30.0314 1306.82 33.2017C1330.18 40.352 1349.56 49.6317 1364.39 60.7835C1377.73 70.8068 1387.04 82.241 1391.31 93.8488L1390.48 93.8907C1381.32 69.0467 1350.63 47.0139 1306.28 33.4422C1285.53 27.0856 1260.86 22.5192 1234.92 20.2398C1203.15 17.4483 1173.65 18.0537 1149.59 21.9904C1140.69 23.4379 1132.69 25.2511 1125.13 27.5335C1103.85 33.9542 1088.08 44.5263 1079.52 58.1068C1074.87 65.4395 1072.84 72.8804 1070.87 80.0763L1070.85 80.1498C1069.97 83.3561 1069.7 87.3443 1069.41 91.5664C1068.52 104.564 1067.41 120.74 1048.87 131.263C1044.33 133.863 1038.79 136.02 1032.42 137.673C1025.55 139.456 1017.48 140.715 1008.43 141.416C1003.03 141.832 997.477 142.041 991.712 142.041Z" fill="#FFE492"/>
<path d="M245.383 143.843C233.732 143.843 221.044 143.004 206.724 141.29C192.496 139.587 178.425 137.236 165.337 134.95C162.967 134.534 160.615 134.118 158.28 133.705C146.652 131.651 135.669 129.711 125.404 128.199C84.4749 122.174 45.4615 116.759 7.73152 111.523L1.47998 110.655L1.79434 110.346L8.04588 111.214C45.7779 116.451 84.7972 121.866 125.735 127.892C136.027 129.408 147.024 131.35 158.666 133.408C160.999 133.82 163.351 134.236 165.719 134.651C192.585 139.344 221.129 143.892 248.813 143.487C282.845 142.963 303.239 133.163 317.202 124.684C320.779 122.516 324.226 120.354 326.828 118.714C328.265 117.81 329.691 116.907 331.114 116.006C342.913 108.536 354.057 101.481 368.712 94.8286C388.058 86.049 412.843 77.1238 438.506 69.6984C462.314 62.8092 486.34 57.3661 509.917 53.5206C536.961 49.1095 563.375 46.8204 588.427 46.7167C626.123 46.5093 661.136 51.3036 692.477 60.9651C709.851 66.3273 725.428 72.1279 738.376 77.0951C745.422 79.7983 752.467 82.5691 759.282 85.2487C783.403 94.7351 808.345 104.544 836.318 112.488C848.813 116.038 861.929 119.478 875.297 122.71C891.841 126.702 908.642 130.367 925.236 133.602C951.173 138.658 983.451 144.951 1015.88 142.717C1033.73 141.488 1046.87 138.193 1056.05 132.643C1074.2 121.72 1072.98 104.709 1071.99 91.0412C1071.7 86.9993 1071.42 83.1811 1071.76 80.1072C1072.5 73.1775 1073.63 65.124 1077.52 57.2359C1080.8 50.5519 1085.76 44.5049 1092.25 39.2634C1099.59 33.3341 1109 28.3632 1120.21 24.4883C1127.63 21.9205 1135.96 19.741 1144.94 18.0096C1157.77 15.5307 1172.16 13.9721 1187.72 13.3778C1202.29 12.821 1217.66 13.1137 1233.39 14.2472C1246.65 15.2034 1259.73 16.776 1272.25 18.9224C1284.85 21.082 1296.59 23.7726 1307.16 26.9193C1319.34 30.5427 1330.54 34.8214 1340.45 39.637C1349.83 44.1997 1358.15 49.2882 1365.17 54.7607C1378.31 64.9989 1386.95 76.6692 1390.17 88.5079L1389.28 88.541C1382.37 63.1181 1352.23 40.7521 1306.6 27.1775C1285.7 20.9532 1259.64 16.4767 1233.22 14.5723C1200.55 12.2178 1170.17 13.508 1145.36 18.303C1136.44 20.0206 1128.19 22.1831 1120.82 24.7303C1099.69 32.0314 1085.42 42.9875 1078.4 57.2955C1074.51 65.1622 1073.39 73.2018 1072.65 80.1204C1072.32 83.1833 1072.59 86.9956 1072.89 91.0324C1073.37 97.7752 1073.92 105.418 1072.08 112.807C1069.93 121.381 1064.94 127.926 1056.81 132.816C1052.39 135.492 1046.89 137.695 1040.48 139.363C1033.56 141.165 1025.33 142.403 1016.05 143.043C1011.36 143.366 1006.68 143.512 1002.02 143.512C974.156 143.512 947.15 138.247 924.82 133.894C908.202 130.654 891.376 126.984 874.81 122.986C861.421 119.749 848.287 116.305 835.774 112.75C807.744 104.789 782.776 94.9698 758.631 85.4745C751.819 82.7956 744.775 80.0255 737.734 77.3239C724.803 72.3625 709.248 66.5701 691.906 61.2182C660.734 51.6082 625.927 46.8418 588.441 47.0463C529.573 47.2905 474.714 59.6397 439.059 69.9573C413.448 77.368 388.713 86.2741 369.409 95.036C354.797 101.668 343.669 108.713 331.888 116.171C330.465 117.072 329.037 117.975 327.6 118.88C324.996 120.521 321.547 122.683 317.968 124.854C312.107 128.413 302.904 133.594 290.716 137.478C284.796 139.364 278.497 140.846 271.993 141.884C264.741 143.041 256.953 143.691 248.851 143.816C247.703 143.834 246.547 143.843 245.383 143.843Z" fill="#FFE492"/>
<path d="M249.124 154.083C237.459 154.083 224.796 153.179 210.552 151.334C195.805 149.424 181.225 146.74 168.909 144.365C165.124 143.633 161.348 142.892 157.695 142.175C147.484 140.17 137.838 138.276 128.743 136.73C96.083 131.177 63.6355 125.755 32.2545 120.511C21.8745 118.777 11.1422 116.984 0.740234 115.242L1.1302 114.923C11.5322 116.665 22.2644 118.458 32.6445 120.193C64.0255 125.437 96.4769 130.859 129.139 136.413C138.258 137.964 147.916 139.859 158.139 141.867C161.79 142.584 165.566 143.324 169.346 144.056C194.89 148.979 224.518 154.192 252.889 153.701C287.722 153.085 307.286 142.383 320.442 133.129C323.814 130.758 327.075 128.378 329.538 126.569C330.804 125.641 332.061 124.713 333.317 123.788C344.602 115.465 355.261 107.605 369.67 100.056C388.411 90.2374 413.176 80.0757 439.4 71.4425C475.92 59.4714 532.365 44.8692 593.873 43.2855C632.99 42.2514 668.993 46.6897 700.878 56.4784C715.203 60.8785 729.37 65.9538 746.815 72.9364C755.631 76.4649 764.38 80.122 772.84 83.6579C794.851 92.8574 817.609 102.37 843.254 110.311C855.677 114.158 868.704 117.9 881.971 121.432C898.035 125.705 914.83 129.77 931.886 133.514C958.084 139.23 990.688 146.345 1023.51 144.331C1041.5 143.249 1055.1 139.84 1063.93 134.198C1081.83 122.78 1077.99 104.1 1075.18 90.461C1074.4 86.6332 1073.65 83.0179 1073.51 80.1015C1073.18 73.6198 1073.21 65.0734 1076.35 56.4416C1081.76 41.4842 1095.04 29.7918 1115.82 21.6912C1123.1 18.8372 1131.45 16.3577 1140.64 14.3209C1153.71 11.4199 1168.45 9.46848 1184.47 8.52182C1199.56 7.63033 1215.43 7.64431 1231.66 8.56375C1245.36 9.35668 1258.83 10.7939 1271.69 12.8344C1284.68 14.8954 1296.73 17.5213 1307.5 20.6393C1319.95 24.2421 1331.33 28.5355 1341.31 33.4012C1350.77 38.0124 1359.06 43.173 1365.95 48.7411C1378.89 59.1948 1386.86 71.1005 1389.02 83.1709L1388.08 83.1937C1383.43 57.1904 1353.85 34.4905 1306.92 20.9152C1285.64 14.7564 1258.87 10.4924 1231.52 8.90946C1197.81 7.0007 1166.56 8.97566 1141.13 14.621C1132.02 16.6409 1123.74 19.1005 1116.51 21.9317C1095.87 29.9786 1082.67 41.6048 1077.28 56.4887C1074.15 65.0969 1074.13 73.6264 1074.45 80.0956C1074.6 83.0017 1075.34 86.6126 1076.13 90.4352C1077.58 97.4855 1079.22 105.477 1078.28 113.279C1077.19 122.364 1072.76 129.264 1064.75 134.374C1060.43 137.13 1054.98 139.381 1048.54 141.064C1041.55 142.889 1033.18 144.104 1023.66 144.676C1008.9 145.582 993.012 144.768 975.087 142.189C959.506 139.946 944.578 136.689 931.408 133.816C914.327 130.067 897.51 125.996 881.422 121.718C868.135 118.18 855.091 114.433 842.649 110.581C816.951 102.624 794.167 93.1009 772.133 83.8918C763.677 80.3567 754.931 76.7017 746.123 73.1762C728.707 66.2061 714.566 61.1404 700.275 56.7506C668.579 47.0177 632.805 42.6059 593.937 43.6335C532.693 45.2112 476.435 59.7686 440.025 71.7036C413.852 80.3192 389.139 90.4595 370.438 100.257C356.069 107.785 345.426 115.635 334.158 123.945C332.903 124.871 331.645 125.798 330.38 126.727C327.915 128.537 324.652 130.919 321.275 133.292C308.004 142.629 288.243 153.426 252.93 154.05C251.675 154.072 250.403 154.083 249.124 154.083Z" fill="#FFE492"/>
<path d="M252.94 166.012C221.066 166.012 187.621 158.775 157.973 152.359C148.863 150.387 140.257 148.525 132.08 146.95L0 121.517L0.459624 121.191L132.54 146.624C140.739 148.203 149.354 150.067 158.477 152.042C189.271 158.706 224.176 166.259 256.963 165.604C292.564 164.895 311.319 153.292 323.681 143.264C327.724 139.984 331.627 136.647 335.404 133.42C345.732 124.593 356.411 115.465 370.623 106.971C381.908 100.225 395.927 93.1517 411.164 86.5148C427.879 79.2335 445.777 72.5532 464.354 66.66C484.838 60.1628 505.665 54.7882 526.257 50.686C549.032 46.1491 571.47 43.187 592.95 41.8814C635.981 39.2665 675.117 43.2348 709.27 53.6775C737.652 62.3548 761.775 73.085 785.104 83.4622C805.411 92.4948 826.407 101.834 850.184 109.818C877.647 119.039 907.371 127.548 938.531 135.109C964.785 141.48 997.459 149.409 1031.13 147.627C1059.57 146.122 1076.02 139.087 1081.4 126.119C1085.98 115.089 1081.63 102.004 1078.13 91.4908C1076.93 87.9079 1075.81 84.5236 1075.25 81.7793C1072.2 66.6504 1074.15 54.1615 1081.2 43.5996C1085.6 37.0098 1092.1 31.1357 1100.5 26.1406C1109.89 20.5606 1121.95 15.909 1136.33 12.3151C1148.78 9.2059 1162.8 6.94776 1178.02 5.60316C1192.51 4.3233 1207.76 3.89447 1223.36 4.32845C1254.03 5.18169 1284.03 9.34198 1307.83 16.0421C1320.56 19.6235 1332.11 23.9324 1342.17 28.8481C1351.71 33.5071 1359.97 38.7406 1366.72 44.4043C1379.45 55.0735 1386.76 67.2153 1387.86 79.516L1386.87 79.5285C1384.52 53.334 1354.75 29.7102 1307.23 16.3356C1256.76 2.13209 1185.12 0.569038 1136.88 12.6203C1089.1 24.5584 1069.26 47.1715 1076.24 81.7521C1076.79 84.4876 1077.92 87.8675 1079.11 91.4459C1082.62 101.982 1086.99 115.095 1082.38 126.175C1079.88 132.21 1074.84 137.061 1067.41 140.592C1063.23 142.577 1058.2 144.2 1052.44 145.413C1046.32 146.705 1039.19 147.572 1031.27 147.992C1028.04 148.163 1024.74 148.249 1021.39 148.249C1009.19 148.249 996.194 147.108 981.952 144.797C965.907 142.193 950.423 138.436 937.982 135.417C906.78 127.846 877.015 119.325 849.511 110.091C825.681 102.09 804.662 92.7398 784.334 83.6976C761.035 73.3337 736.942 62.6166 708.631 53.9614C674.707 43.5901 635.839 39.6475 593.105 42.2448C506.662 47.4981 417.617 79.58 371.463 107.165C357.288 115.636 346.624 124.751 336.309 133.566C332.531 136.795 328.625 140.134 324.578 143.417C316.371 150.075 308.265 154.842 299.069 158.418C293.328 160.65 287.101 162.409 280.559 163.647C273.285 165.023 265.362 165.806 257.009 165.973C255.66 165.999 254.301 166.012 252.94 166.012Z" fill="#FFE492"/>
</g>
</svg>
