<svg width="1990" height="434" viewBox="0 0 1990 434" fill="none" xmlns="http://www.w3.org/2000/svg">
<g opacity="0.3">
<path d="M761.505 433.345C754.401 433.345 747.487 432.992 740.843 432.286C726.908 430.804 714.033 427.763 702.577 423.245C690.263 418.391 679.463 411.776 670.474 403.586C652.409 387.123 643.371 367.408 634.629 348.341C632.912 344.597 631.136 340.726 629.334 336.97C617.034 311.369 601.441 288.944 581.669 268.413C542.227 227.458 486.758 192.505 421.257 167.335C345.505 138.227 264.059 123.727 191.921 126.507C149.522 128.142 93.5006 143.688 68.4635 170.237C53.6049 185.994 52.4068 203.479 65.001 220.801L64.7509 220.874C58.1474 211.79 55.2702 202.683 56.2018 193.806C57.0564 185.662 61.1015 177.702 68.2271 170.146C79.56 158.128 98.2492 147.477 122.275 139.342C144.476 131.827 169.203 127.206 191.904 126.331C229.657 124.877 269.808 128.104 311.243 135.923C348.802 143.011 385.865 153.529 421.4 167.183C486.94 192.368 542.441 227.339 581.906 268.319C601.689 288.863 617.289 311.301 629.598 336.916C631.403 340.672 633.178 344.545 634.893 348.289C643.626 367.342 652.659 387.043 670.7 403.481C688.147 419.381 711.763 429.012 740.889 432.108C781.225 436.396 830.206 427.428 871.909 408.117C932.009 380.29 973.718 339.787 1014.06 300.618C1021.13 293.752 1028.44 286.653 1035.67 279.798C1054.47 261.997 1079.92 238.93 1110.16 218.38C1141.07 197.375 1172.49 181.943 1206.2 171.199C1226.84 164.623 1248.71 160.192 1271.2 158.031C1291.98 156.033 1313.97 155.91 1336.57 157.659C1375.33 160.663 1417.09 169.146 1464.23 183.592C1557.06 212.039 1649.79 246.568 1739.84 286.221C1825.44 323.91 1909.38 366.557 1989.35 412.975L1989.16 413.104C1823.4 316.882 1646.75 239.716 1464.11 183.749C1360.93 152.129 1279.02 148.19 1206.33 171.354C1132.37 194.919 1080.71 237.447 1035.9 279.894C1028.67 286.747 1021.36 293.847 1014.29 300.712C973.938 339.895 932.215 380.411 872.074 408.257C852.64 417.256 830.777 424.275 808.851 428.554C797.268 430.815 785.754 432.293 774.624 432.948C770.189 433.215 765.811 433.345 761.505 433.345Z" fill="#FFE492"/>
<path d="M768.451 423.583C750.336 423.583 733.556 421.395 718.56 417.078C701.839 412.264 687.409 404.804 675.669 394.907C674.63 394.03 673.6 393.124 672.605 392.211C654.732 375.819 645.293 356.361 636.167 337.541C634.32 333.738 632.413 329.804 630.478 325.987C618.956 303.259 605.081 283.226 588.057 264.749C585.96 262.474 583.789 260.194 581.599 257.974C541.577 217.371 485.658 182.861 419.887 158.175C343.588 129.564 261.911 115.663 189.902 119.036C147.811 121.028 92.0481 136.829 66.9038 163.174C51.8474 178.95 50.1436 196.47 61.9711 213.843L61.7183 213.913C55.5188 204.807 52.9714 195.683 54.1503 186.795C55.233 178.633 59.4429 170.655 66.6675 163.083C78.1157 151.086 96.75 140.423 120.551 132.246C142.548 124.689 167.168 119.936 189.878 118.862C227.583 117.096 267.778 120.014 309.345 127.533C346.995 134.345 384.234 144.604 420.024 158.025C485.833 182.725 541.783 217.256 581.83 257.881C584.02 260.104 586.194 262.385 588.291 264.662C605.326 283.151 619.208 303.194 630.736 325.935C632.674 329.752 634.581 333.686 636.428 337.491C645.551 356.298 654.982 375.743 672.831 392.111C673.823 393.021 674.853 393.927 675.889 394.802C700.149 415.26 733.482 423.583 768.536 423.583C768.728 423.583 768.918 423.583 769.11 423.583C768.89 423.581 768.67 423.583 768.451 423.583ZM775.928 423.461C808.517 422.399 842.144 414.456 870.993 402.641C933.222 377.048 977.946 337.521 1021.2 299.295C1022.98 297.719 1024.76 296.147 1026.54 294.575C1030.45 291.124 1035.09 287.038 1039.82 282.92C1061.05 264.449 1086.74 242.958 1116.33 223.614C1147.81 203.031 1179.26 187.757 1212.48 176.918C1232.88 170.265 1254.45 165.578 1276.58 162.988C1297.09 160.587 1318.75 159.909 1340.98 160.971C1379.37 162.806 1420.65 169.764 1467.18 182.244C1512.54 194.393 1549.84 205.829 1584.53 218.233C1633.69 235.824 1680.51 256.091 1719.84 273.596C1811.25 314.41 1900.95 360.755 1986.43 411.343L1986.25 411.471C1900.77 360.889 1811.08 314.548 1719.68 273.739C1680.36 256.236 1633.55 235.972 1584.4 218.387C1549.71 205.985 1512.43 194.553 1467.08 182.408C1365.72 155.221 1284.85 153.525 1212.6 177.074C1137.61 201.543 1084.21 244.593 1040.04 283.024C1035.31 287.143 1030.67 291.227 1026.76 294.68C1024.98 296.25 1023.2 297.824 1021.42 299.4C978.154 337.637 933.414 377.179 871.141 402.79C855.7 409.114 839.27 414.137 822.303 417.719C806.511 421.05 790.943 422.976 775.928 423.461Z" fill="#FFE492"/>
<path d="M776.109 414.044C773.93 414.044 771.764 414.014 769.615 413.953C751.517 413.446 734.768 410.812 719.835 406.122C703.503 400.992 689.354 393.394 677.782 383.538C676.754 382.659 675.729 381.751 674.74 380.838C657.067 364.527 647.235 345.328 637.73 326.763C635.748 322.894 633.698 318.892 631.621 315.008C619.53 292.356 605.289 272.484 588.081 254.256C585.952 252.003 583.748 249.742 581.524 247.539C540.922 207.29 484.552 173.223 418.512 149.021C341.669 120.907 259.762 107.604 187.879 111.569C147.407 113.837 91.8059 128.736 65.37 156.087C50.0965 171.889 47.8733 189.457 58.9396 206.89L58.6841 206.955C52.8857 197.822 50.6736 188.676 52.1025 179.773C53.4161 171.584 57.8019 163.586 65.1364 155.997C76.7055 144.028 95.2794 133.36 118.852 125.146C140.644 117.551 165.15 112.669 187.855 111.397C225.516 109.321 265.755 111.929 307.451 119.148C345.195 125.684 382.607 135.684 418.65 148.871C484.728 173.088 541.129 207.174 581.755 247.446C583.978 249.651 586.185 251.912 588.315 254.169C605.531 272.408 619.78 292.292 631.876 314.956C633.954 318.841 636.004 322.843 637.985 326.713C647.488 345.267 657.312 364.452 674.963 380.744C675.952 381.657 676.971 382.563 677.999 383.438C725.02 423.489 808.351 419.189 870.074 397.163C934.9 373.826 983.076 335.039 1029.67 297.53L1030.14 297.144C1034.66 293.508 1039.32 289.751 1043.97 286.04C1092.97 246.892 1146.84 206.66 1218.75 182.633C1238.94 175.902 1260.21 170.959 1281.97 167.941C1302.21 165.135 1323.55 163.903 1345.39 164.279C1383.48 164.935 1424.28 170.369 1470.13 180.894C1518.32 191.915 1554.59 202.045 1587.72 213.742C1634.92 230.442 1680.64 251.544 1720.98 270.163C1810.8 311.84 1899.13 358.789 1983.52 409.703L1983.33 409.829C1898.95 358.92 1810.63 311.976 1720.82 270.302C1680.49 251.687 1634.77 230.588 1587.58 213.894C1554.47 202.2 1518.21 192.073 1470.04 181.056C1370.65 158.243 1290.84 158.792 1218.88 182.785C1147.01 206.796 1093.17 247.011 1044.18 286.144C1039.54 289.855 1034.87 293.615 1030.36 297.249L1029.88 297.634C1006.66 316.326 982.655 335.654 956.73 352.918C927.596 372.32 899.294 386.841 870.206 397.311C839.775 408.17 806.625 414.044 776.109 414.044Z" fill="#FFE492"/>
<path d="M1980.42 408.185C1897.13 356.948 1810.18 309.401 1721.97 266.865C1718.23 265.076 1714.49 263.279 1710.73 261.477C1672.53 243.137 1633.02 224.174 1590.77 209.4C1549.78 195.107 1508.24 186.368 1473.01 179.705C1375.77 161.197 1297.01 163.991 1225.16 188.494C1151.4 213.723 1094.25 255.608 1048.33 289.266C1045.57 291.286 1042.82 293.309 1040.06 295.335C1038.03 296.83 1035.99 298.326 1033.96 299.82C1007.81 319.003 984.026 336.154 957.747 351.804C927.725 369.682 898.788 382.776 869.277 391.834C841.621 400.324 812.077 404.816 784.597 404.818C779.59 404.818 774.658 404.669 769.81 404.368C752.113 403.268 735.729 400.178 721.115 395.182C705.168 389.732 691.299 381.99 679.887 372.17C678.867 371.289 677.85 370.379 676.867 369.464C659.403 353.239 649.189 334.31 639.312 316.005C637.185 312.062 634.984 307.984 632.758 304.025C620.09 281.445 605.481 261.732 588.103 243.758C585.94 241.522 583.701 239.282 581.447 237.098C540.263 197.202 483.445 163.578 417.138 139.86C339.751 112.242 257.615 99.5407 185.859 104.093C136.804 107.267 86.6421 125.719 63.872 148.962C48.3595 164.797 45.6087 182.42 55.911 199.927L55.6527 199.988C50.2584 190.821 48.3787 181.648 50.066 172.722C51.6186 164.504 56.1858 156.479 63.6384 148.869C75.3285 136.935 93.8419 126.268 117.178 118.023C138.761 110.398 163.141 105.388 185.832 103.921C223.449 101.533 263.73 103.832 305.555 110.752C343.389 117.013 380.979 126.754 417.275 139.706C483.623 163.439 540.472 197.082 581.681 237.002C583.937 239.188 586.177 241.429 588.339 243.665C605.729 261.65 620.343 281.373 633.019 303.964C635.245 307.925 637.446 312.001 639.573 315.946C649.444 334.24 659.653 353.157 677.095 369.363C678.078 370.277 679.093 371.185 680.109 372.063C729.197 414.303 812.63 409.027 869.159 391.675C936.604 370.972 988.214 333.111 1033.75 299.705C1035.79 298.209 1037.82 296.714 1039.86 295.22C1042.61 293.194 1045.36 291.171 1048.12 289.151C1074.33 269.939 1100.22 251.27 1128.68 234.067C1161.41 214.282 1192.92 199.325 1225.04 188.341C1245.01 181.528 1265.98 176.328 1287.37 172.889C1307.35 169.674 1328.36 167.889 1349.82 167.582C1387.66 167.042 1427.98 170.953 1473.1 179.537C1508.34 186.204 1549.89 194.947 1590.9 209.248C1633.17 224.027 1672.69 242.996 1710.9 261.339C1714.66 263.142 1718.4 264.939 1722.14 266.727C1810.36 309.267 1897.32 356.819 1980.61 408.061L1980.42 408.185Z" fill="#FFE492"/>
<path d="M1977.51 406.543C1893.75 353.999 1808.16 305.847 1723.12 263.427C1718.03 260.89 1712.82 258.273 1707.79 255.744C1671.73 237.631 1634.45 218.901 1593.95 204.906C1553.52 190.982 1511.63 183.668 1475.98 178.352C1381.11 164.064 1303.4 169.102 1231.44 194.204C1162.81 218.235 1109.04 254.371 1057.04 289.316L1051.33 293.152C1046.82 296.184 1042.16 299.316 1037.56 302.389C985.505 337.133 933.397 369.698 868.349 386.354C852.564 390.396 836.356 393.197 820.17 394.684C802.789 396.279 785.905 396.301 769.986 394.75C752.696 393.064 736.683 389.524 722.393 384.227C706.842 378.463 693.25 370.58 682 360.798C680.986 359.913 679.977 359.001 679.002 358.088C661.753 341.958 651.17 323.308 640.936 305.271C638.653 301.247 636.29 297.085 633.904 293.043C620.648 270.532 605.677 250.977 588.133 233.261C585.94 231.048 583.668 228.825 581.379 226.659C539.614 187.117 482.348 153.936 415.769 130.7C337.836 103.583 255.469 91.4792 183.837 96.6228C135.23 100.187 85.2956 118.767 62.4102 141.808C46.6393 157.683 43.3444 175.375 52.8801 192.97L52.619 193.028C47.6286 183.821 46.087 174.613 48.0353 165.661C49.8325 157.408 54.5893 149.352 62.1738 141.718C73.9903 129.823 92.4378 119.167 115.527 110.898C136.895 103.244 161.144 98.1147 183.804 96.4519C221.377 93.7538 261.699 95.7425 303.656 102.362C341.584 108.348 379.347 117.83 415.899 130.548C482.516 153.796 539.815 186.999 581.604 226.563C583.893 228.731 586.168 230.955 588.361 233.169C605.916 250.894 620.895 270.459 634.157 292.982C636.542 297.024 638.906 301.188 641.189 305.212C651.417 323.238 661.995 341.88 679.225 357.99C680.197 358.9 681.206 359.81 682.217 360.695C730.123 402.348 809.722 401.178 868.241 386.194C933.238 369.551 985.323 336.999 1037.35 302.27C1041.95 299.197 1046.62 296.065 1051.12 293.034L1056.84 289.198C1082.36 272.045 1108.75 254.306 1137.42 237.805C1169.88 219.117 1200.59 204.805 1231.31 194.051C1251.08 187.152 1271.75 181.697 1292.75 177.838C1312.49 174.209 1333.17 171.87 1354.23 170.885C1391.9 169.123 1431.75 171.511 1476.05 178.181C1511.71 183.501 1553.62 190.816 1594.08 204.753C1634.6 218.753 1671.89 237.488 1707.96 255.607C1712.99 258.136 1718.19 260.75 1723.28 263.29C1808.34 305.712 1893.93 353.868 1977.7 406.418L1977.51 406.543Z" fill="#FFE492"/>
<path d="M1974.59 404.903C1891.56 351.774 1807.33 303.019 1724.26 259.994C1718.02 256.76 1711.62 253.398 1705.43 250.147C1671.32 232.229 1636.05 213.701 1597.14 200.418C1556.89 186.732 1514.81 180.902 1478.96 177.004C1386.71 166.823 1310.05 174.106 1237.72 199.919C1174.6 222.542 1122.78 254.602 1072.66 285.607C1067.38 288.87 1061.93 292.242 1056.61 295.511C1050.37 299.349 1045.6 302.265 1041.16 304.963C1017.33 319.405 988.957 336.035 959.185 349.868C927.635 364.524 897.618 374.669 867.418 380.881C851.537 384.147 835.398 386.207 819.445 387.002C802.317 387.856 785.733 387.229 770.157 385.135C753.281 382.868 737.642 378.878 723.669 373.278C708.516 367.205 695.208 359.18 684.111 349.43C683.111 348.546 682.108 347.633 681.135 346.716C664.114 330.695 653.177 312.332 642.597 294.575C640.143 290.456 637.606 286.198 635.048 282.062C621.195 259.614 605.858 240.219 588.159 222.767C585.933 220.572 583.627 218.371 581.305 216.222C538.961 177.034 481.244 144.295 414.396 121.542C335.921 94.9232 253.324 83.4211 181.817 89.1521C141.13 92.4847 87.9892 107.837 60.9872 134.62C44.9333 150.544 41.0805 168.315 49.8495 186.012L49.5884 186.064C45.0019 176.811 43.8038 167.563 46.0242 158.576C48.0742 150.281 53.0289 142.19 60.7563 134.526C72.6992 122.68 91.078 112.041 113.911 103.755C135.065 96.0788 159.168 90.8324 181.785 88.9796C219.314 85.9711 259.68 87.6496 301.763 93.9697C339.782 99.6798 377.721 108.904 414.525 121.389C481.412 144.154 539.161 176.912 581.53 216.122C583.852 218.271 586.161 220.476 588.387 222.673C606.095 240.134 621.44 259.539 635.301 281.997C637.862 286.135 640.398 290.393 642.852 294.512C653.424 312.261 664.358 330.613 681.36 346.617C682.333 347.532 683.333 348.444 684.334 349.326C724.188 384.349 792.6 396.083 867.332 380.712C935.01 366.792 990.218 335.594 1040.97 304.834C1045.41 302.136 1050.18 299.22 1056.42 295.382C1061.74 292.113 1067.19 288.741 1072.46 285.478C1097.14 270.214 1122.65 254.432 1149.86 239.653C1180.64 222.939 1209.33 209.891 1237.59 199.764C1257.18 192.775 1277.55 187.063 1298.14 182.789C1317.65 178.74 1338.01 175.849 1358.65 174.191C1396.23 171.176 1435.6 172.039 1479 176.828C1514.88 180.729 1556.99 186.561 1597.27 200.259C1636.2 213.551 1671.48 232.085 1705.6 250.008C1711.79 253.259 1718.19 256.621 1724.44 259.854C1807.51 302.885 1891.74 351.644 1974.79 404.775L1974.59 404.903Z" fill="#FFE492"/>
<path d="M1971.68 403.261C1889.36 349.546 1806.5 300.186 1725.4 256.557C1718.5 252.846 1711.42 248.95 1704.57 245.184C1671.92 227.241 1638.17 208.689 1600.32 195.925C1560.04 182.403 1517.87 178.089 1481.93 175.652C1393.86 169.522 1316.03 179.328 1244 205.63C1186.65 226.668 1137.48 254.812 1089.94 282.031C1080.33 287.528 1070.4 293.214 1060.75 298.633C1054.84 301.95 1049.61 304.862 1044.75 307.536C1022.13 319.956 992.042 335.882 959.89 348.897C927.584 361.973 897.029 370.644 866.479 375.405C833.16 380.597 799.906 380.635 770.315 375.518C753.863 372.672 738.595 368.234 724.934 362.327C710.186 355.949 697.16 347.785 686.215 338.064C685.223 337.179 684.228 336.264 683.261 335.347C666.481 319.447 655.203 301.387 644.299 283.922C641.661 279.697 638.935 275.329 636.185 271.085C621.724 248.696 606.022 229.458 588.179 212.276C585.921 210.101 583.582 207.918 581.227 205.789C538.303 166.955 480.138 134.657 413.021 112.39C334.004 86.2714 251.176 75.369 179.794 81.6873C131.418 86.0622 83.1159 104.433 59.6039 127.399C43.2422 143.381 38.8206 161.245 46.8174 179.06L46.5536 179.107C42.3738 169.797 41.5219 160.5 44.0199 151.475C46.3282 143.133 51.4945 135 59.3731 127.303C71.4424 115.514 89.7496 104.899 112.316 96.6056C133.248 88.9138 157.2 83.5523 179.755 81.513C217.241 78.1944 257.651 79.5644 299.863 85.5829C337.975 91.0176 376.09 99.9835 413.147 112.233C480.303 134.514 538.501 166.829 581.452 205.687C583.807 207.817 586.146 210.001 588.407 212.178C606.259 229.371 621.969 248.617 636.437 271.017C639.188 275.261 641.914 279.631 644.552 283.856C655.451 301.312 666.723 319.364 683.486 335.248C684.453 336.165 685.445 337.076 686.438 337.962C725.608 372.759 792.887 386.692 866.413 375.236C933.443 364.79 991.651 336.461 1044.57 307.405C1049.43 304.731 1054.66 301.821 1060.57 298.504C1070.22 293.085 1080.15 287.401 1089.75 281.903C1137.31 254.68 1186.48 226.528 1243.86 205.482C1263.27 198.393 1283.35 192.427 1303.53 187.745C1322.83 183.269 1342.86 179.823 1363.06 177.503C1400.63 173.189 1439.52 172.529 1481.95 175.481C1517.92 177.92 1560.13 182.235 1600.44 195.773C1638.32 208.546 1672.09 227.105 1704.75 245.055C1711.6 248.821 1718.68 252.715 1725.58 256.426C1806.69 300.058 1889.55 349.422 1971.87 403.141L1971.68 403.261Z" fill="#FFE492"/>
<path d="M1968.76 401.618C1887.18 347.31 1805.69 297.348 1726.55 253.12C1719.28 249.055 1711.8 244.752 1704.56 240.59C1673.11 222.496 1640.59 203.784 1603.5 191.432C1563.06 178.025 1520.85 175.248 1484.89 174.3C1400.16 171.902 1323.41 184.017 1250.28 211.34C1199 230.593 1153.28 254.961 1109.06 278.524C1093.86 286.627 1079.5 294.281 1064.89 301.753C1058.95 304.795 1053.54 307.528 1048.35 310.105C1014.83 326.725 986.953 338.741 960.6 347.92C927.538 359.436 896.447 366.634 865.548 369.925C853.562 371.201 841.619 371.837 829.893 371.837C809.107 371.837 788.994 369.843 770.478 365.893C736.969 358.745 709.329 345.556 688.326 326.692C687.337 325.798 686.35 324.883 685.394 323.969C668.87 308.207 657.276 290.467 646.064 273.309C643.223 268.962 640.288 264.469 637.328 260.099C622.25 237.762 606.18 218.685 588.208 201.777C585.916 199.62 583.544 197.457 581.156 195.347C537.652 156.867 479.037 125.012 411.65 103.228C332.092 77.6108 249.036 67.3062 177.777 74.212C129.201 79.0174 82.292 97.04 58.2771 120.128C41.5829 136.175 36.576 154.146 43.7923 172.097L43.5258 172.14C39.7582 162.767 39.2581 153.414 42.0418 144.341C44.6195 135.944 50.0028 127.765 58.049 120.032C70.2447 108.307 88.4723 97.7267 110.764 89.4335C131.471 81.7295 155.255 76.2635 177.736 74.0394C215.178 70.4105 255.631 71.4702 297.97 77.189C336.176 82.35 374.464 91.058 411.777 103.071C479.202 124.869 537.85 156.741 581.381 195.244C583.769 197.356 586.141 199.519 588.436 201.677C606.419 218.595 622.497 237.682 637.581 260.027C640.541 264.397 643.478 268.892 646.317 273.239C657.524 290.389 669.112 308.122 685.622 323.87C686.578 324.781 687.562 325.697 688.551 326.589C727.771 361.818 792.267 377.551 865.502 369.751C935.216 362.326 996.964 335.363 1048.18 309.966C1053.37 307.388 1058.78 304.657 1064.72 301.615C1079.32 294.143 1093.68 286.491 1108.89 278.388C1153.11 254.819 1198.84 230.449 1250.14 211.189C1269.41 203.99 1289.18 197.768 1308.92 192.692C1328.03 187.777 1347.74 183.777 1367.48 180.805C1405.13 175.138 1443.54 172.953 1484.9 174.124C1520.89 175.072 1563.14 177.852 1603.63 191.275C1640.74 203.636 1673.28 222.356 1704.75 240.457C1711.98 244.619 1719.46 248.923 1726.73 252.986C1805.87 297.218 1887.37 347.184 1968.96 401.496L1968.76 401.618Z" fill="#FFE492"/>
<path d="M1965.85 399.977C1883.86 344.299 1805.96 295.138 1727.7 249.684C1720.23 245.347 1712.88 240.918 1705.09 236.23C1674.66 217.9 1643.2 198.949 1606.68 186.941C1565.73 173.539 1521.67 172.424 1487.86 172.95C1406.98 174.045 1331.32 188.471 1256.56 217.055C1211.71 234.288 1170.29 254.982 1130.24 274.997C1109.19 285.516 1089.31 295.45 1069.03 304.877C1063.01 307.678 1057.42 310.23 1051.94 312.679C1017.97 327.836 989.174 338.723 961.303 346.943C927.475 356.92 895.848 362.645 864.614 364.448C848.566 365.373 832.627 365.199 817.241 363.93C800.951 362.586 785.271 360.008 770.638 356.27C738.203 347.982 711.22 334.207 690.437 315.325C689.456 314.429 688.477 313.512 687.527 312.599C671.28 296.999 659.395 279.597 647.9 262.768C644.833 258.278 641.662 253.635 638.472 249.121C622.761 226.833 606.328 207.915 588.232 191.285C585.905 189.148 583.5 187.004 581.085 184.912C537.001 146.786 477.938 115.374 410.282 94.0726C347.836 74.4935 283.439 64.2778 224.387 64.2778C207.693 64.2778 191.438 65.0935 175.761 66.7442C127.769 71.8964 81.1546 89.9835 56.9995 112.824C39.9509 128.946 34.3366 147.039 40.7642 165.143L40.4949 165.182C37.1396 155.735 36.9995 146.317 40.0772 137.193C42.9297 128.734 48.5466 120.502 56.7687 112.726C69.0908 101.074 87.2332 90.5378 109.239 82.2533C130.012 74.4325 152.999 69.01 175.711 66.5733C213.109 62.6342 253.606 63.3854 296.074 68.8026C334.371 73.6865 372.837 82.1348 410.403 93.914C478.097 115.227 537.196 146.657 581.307 184.806C583.726 186.898 586.133 189.043 588.461 191.182C606.564 207.82 623.006 226.748 638.725 249.046C641.915 253.56 645.089 258.203 648.156 262.695C659.645 279.517 671.525 296.912 687.757 312.5C688.708 313.411 689.686 314.328 690.665 315.222C729.53 350.53 792.921 368.406 864.592 364.272C937.115 360.087 1002.73 334.423 1051.79 312.533C1057.27 310.084 1062.86 307.532 1068.87 304.733C1089.15 295.308 1109.03 285.373 1130.07 274.856C1170.13 254.839 1211.55 234.14 1256.42 216.901C1294.92 202.185 1332.69 191.461 1371.9 184.112C1409.72 177.025 1447.65 173.316 1487.86 172.772C1510.8 172.415 1529.52 173.035 1546.77 174.723C1569.04 176.901 1588.68 180.846 1606.82 186.782C1643.36 198.8 1674.84 217.763 1705.29 236.101C1713.07 240.789 1720.42 245.216 1727.89 249.553C1806.16 295.009 1884.06 344.173 1966.06 399.855L1965.85 399.977Z" fill="#FFE492"/>
<path d="M1962.94 398.334C1881.7 342.045 1805.13 292.299 1728.84 246.245C1721.29 241.689 1713.85 236.995 1705.97 232.026C1676.46 213.407 1645.93 194.152 1609.87 182.446C1568.58 169.107 1524.56 169.641 1490.84 171.594C1414.51 175.863 1339.93 192.601 1262.84 222.762C1224.86 237.694 1188.69 254.782 1153.72 271.309C1126.07 284.373 1099.96 296.714 1073.17 307.993C1067.12 310.544 1061.18 312.984 1055.54 315.243C1021.5 328.846 990.908 338.891 962.007 345.953C927.401 354.41 895.238 358.667 863.68 358.963C847.623 359.113 831.748 358.193 816.505 356.225C800.525 354.161 785.147 350.935 770.797 346.633C739.475 337.243 713.146 322.883 692.544 303.949C691.577 303.055 690.604 302.136 689.656 301.217C673.715 285.808 661.572 268.773 649.827 252.3C646.504 247.64 643.066 242.818 639.612 238.132C623.259 215.886 606.46 197.128 588.257 180.782C585.897 178.664 583.459 176.539 581.011 174.467C536.347 136.694 476.833 105.725 408.908 84.9066C328.27 60.2955 244.75 51.1901 173.738 59.2671C126.368 64.7488 80.0637 82.8829 55.774 105.463C38.3406 121.672 32.1026 139.9 37.7306 158.18L37.4612 158.213C34.5263 148.684 34.7517 139.194 38.1345 130.007C41.2755 121.478 47.1315 113.187 55.5459 105.364C67.989 93.7958 86.0407 83.3117 107.75 75.0447C128.283 67.2256 151.083 61.7108 173.689 59.0946C211.045 54.8469 251.584 55.2861 294.178 60.4036C332.568 65.0155 371.208 73.2058 409.026 84.748C476.993 105.577 536.54 136.565 581.228 174.361C583.679 176.433 586.119 178.559 588.48 180.679C606.694 197.033 623.498 215.8 639.859 238.055C643.316 242.742 646.752 247.563 650.077 252.225C661.816 268.691 673.954 285.719 689.884 301.118C690.832 302.035 691.805 302.953 692.77 303.846C732.044 339.94 792.74 359.454 863.674 358.785C921.232 358.245 982.15 344.36 1055.39 315.092C1061.03 312.833 1066.96 310.394 1073.02 307.843C1099.8 296.565 1125.91 284.229 1153.55 271.165C1188.53 254.636 1224.7 237.544 1262.69 222.608C1301.56 207.401 1338.73 195.89 1376.31 187.414C1414.39 178.828 1451.84 173.594 1490.81 171.415C1524.58 169.458 1568.64 168.926 1609.99 182.286C1646.1 194.006 1676.64 213.269 1706.17 231.897C1714.05 236.866 1721.49 241.558 1729.03 246.113C1805.32 292.168 1881.9 341.918 1963.14 398.21L1962.94 398.334Z" fill="#FFE492"/>
<path d="M1960.02 396.69C1879.54 339.79 1804.3 289.454 1729.99 242.808C1722.45 238.073 1715 233.152 1707.11 227.942C1678.43 208.991 1648.77 189.394 1613.05 177.953C1571.37 164.663 1527.43 166.85 1493.81 170.241C1421.99 177.343 1350.6 195.847 1269.12 228.472C1238.56 240.764 1208.7 254.248 1179.82 267.287C1144.75 283.124 1111.62 298.084 1077.31 311.113C1071.13 313.462 1065.02 315.718 1059.13 317.813C1024.49 330.143 992.948 339.025 962.712 344.965C945.776 348.293 929.057 350.703 913.019 352.131C895.913 353.652 878.999 354.107 862.747 353.483C829.774 352.216 798.892 346.67 770.961 337C740.796 326.556 715.124 311.611 694.659 292.578C693.697 291.677 692.733 290.757 691.79 289.843C676.19 274.66 663.829 258.03 651.878 241.949C648.259 237.081 644.519 232.047 640.757 227.149C623.744 204.94 606.58 186.341 588.284 170.286C585.89 168.186 583.417 166.08 580.938 164.029C535.695 126.608 475.733 96.0814 407.538 75.7494C326.362 51.642 242.613 43.1362 171.72 51.7972C95.8114 61.2146 21.843 101.905 34.7037 151.223L34.4317 151.251C31.2138 138.914 33.0989 126.76 40.0322 115.124C46.3636 104.497 56.7538 94.4953 70.9144 85.4004C84.0801 76.9434 99.8757 69.6419 117.859 63.6983C134.962 58.0458 153.569 53.8696 171.665 51.6246C208.977 47.0667 249.56 47.1974 292.284 52.015C330.767 56.3534 369.583 64.2857 407.654 75.5925C475.887 95.9385 535.884 126.483 581.155 163.924C583.637 165.977 586.11 168.083 588.506 170.185C606.811 186.247 623.983 204.857 641.004 227.074C644.766 231.972 648.506 237.006 652.125 241.876C664.074 257.952 676.429 274.575 692.021 289.749C692.961 290.662 693.923 291.583 694.885 292.482C734.217 329.061 793.838 350.661 862.764 353.311C921.115 355.551 985.303 343.892 1059 317.663C1064.88 315.568 1070.99 313.314 1077.17 310.965C1111.47 297.939 1144.59 282.981 1179.66 267.146C1208.54 254.105 1238.41 240.619 1268.97 228.326C1350.48 195.687 1421.91 177.176 1493.76 170.068C1516.36 167.79 1535.06 167.061 1552.64 167.778C1575.1 168.693 1594.9 171.97 1613.17 177.797C1648.93 189.25 1678.61 208.858 1707.31 227.82C1715.19 233.029 1722.64 237.949 1730.18 242.683C1804.5 289.332 1879.74 339.67 1960.22 396.574L1960.02 396.69Z" fill="#FFE492"/>
<path d="M1957.11 395.052C1877.4 337.531 1803.48 286.609 1731.14 239.374C1723.65 234.487 1716.25 229.368 1708.42 223.945C1680.51 204.631 1651.66 184.658 1616.23 173.463C1573.65 160.061 1527.66 164.434 1496.78 168.889C1412.95 180.832 1337.83 208.598 1275.4 234.187C1252.97 243.422 1230.59 253.203 1208.94 262.662C1165.52 281.638 1124.51 299.562 1081.46 314.238C1075.13 316.397 1068.83 318.466 1062.73 320.389C1027.41 331.507 994.928 339.225 963.424 343.98C927.711 349.371 893.529 350.727 861.819 348.008C829.244 345.214 798.73 338.27 771.129 327.368C742.179 315.934 717.164 300.405 696.773 281.213C695.823 280.312 694.863 279.39 693.926 278.473C678.713 263.569 666.199 247.396 654.094 231.754C650.128 226.628 646.026 221.329 641.904 216.172C623.973 193.683 606.943 175.771 588.315 159.794C585.888 157.713 583.385 155.629 580.87 153.595C535.042 116.53 474.629 86.4457 406.165 66.5948C324.45 42.9929 240.471 35.0849 169.698 44.3298C93.5176 54.413 21.0606 94.5507 31.6735 144.27L31.4014 144.292C28.7688 131.957 31.0469 119.815 38.1698 108.205C44.6991 97.5678 55.1498 87.556 69.2361 78.4506C82.3716 69.9588 98.0848 62.6033 115.941 56.5848C132.943 50.8538 151.515 46.5573 169.643 44.1572C206.915 39.289 247.538 39.1112 290.388 43.6273C328.965 47.692 367.957 55.3664 406.28 66.4362C474.786 86.2976 535.231 116.399 581.082 153.487C583.596 155.522 586.102 157.609 588.532 159.69C607.171 175.673 624.206 193.596 642.145 216.093C646.268 221.251 650.37 226.551 654.336 231.677C666.438 247.314 678.95 263.482 694.152 278.379C695.089 279.296 696.045 280.216 696.996 281.117C736.633 318.424 795.18 342.119 861.852 347.836C921.649 352.964 987.316 343.933 1062.61 320.232C1068.7 318.311 1075 316.244 1081.33 314.084C1124.36 299.412 1165.37 281.492 1208.78 262.518C1230.43 253.059 1252.81 243.275 1275.25 234.039C1317.23 216.834 1352.15 204.122 1385.15 194.036C1423.99 182.162 1460.48 173.881 1496.72 168.719C1518.8 165.532 1538.06 164.089 1555.58 164.309C1578.13 164.591 1598.01 167.533 1616.36 173.306C1651.82 184.515 1680.7 204.5 1708.62 223.827C1716.45 229.248 1723.85 234.367 1731.33 239.251C1803.68 286.487 1877.6 337.413 1957.32 394.935L1957.11 395.052Z" fill="#FFE492"/>
<path d="M1954.2 393.407C1875.25 335.264 1802.66 283.755 1732.28 235.934C1724.9 230.919 1717.6 225.622 1709.86 220.013C1682.69 200.311 1654.6 179.937 1619.42 168.968C1576.37 155.598 1530.51 161.745 1499.75 167.534C1423.8 181.706 1356.06 208.691 1281.69 239.896C1268.27 245.545 1254.71 251.375 1241.58 257.015C1191.12 278.705 1138.94 301.132 1085.6 317.356C1079.12 319.329 1072.63 321.213 1066.33 322.956C1030.77 332.773 996.384 339.511 964.131 342.985C927.593 346.921 892.858 346.766 860.882 342.527C828.764 338.269 798.621 329.925 771.289 317.727C743.63 305.384 719.266 289.273 698.876 269.844C697.933 268.941 696.983 268.017 696.051 267.1C681.297 252.545 668.703 236.898 656.523 221.767C652.135 216.315 647.598 210.678 643.039 205.193C624.407 182.727 607.023 164.968 588.331 149.302C585.877 147.245 583.338 145.178 580.788 143.16C534.388 106.443 473.53 76.802 404.791 57.4355C322.54 34.3391 238.333 27.0307 167.676 36.8577C93.9136 47.2286 20.1184 85.9579 28.64 137.31L28.3679 137.327C26.3207 124.992 28.9917 112.865 36.3042 101.281C43.0286 90.6309 53.5425 80.6104 67.5519 71.4945C93.3998 54.6781 129.871 41.9909 167.615 36.6852C204.843 31.5085 245.511 31.0205 288.49 35.235C327.16 39.0278 366.325 46.4425 404.901 57.2752C473.679 76.6521 534.572 106.313 581.002 143.046C583.555 145.066 586.094 147.134 588.551 149.192C607.251 164.867 624.644 182.633 643.281 205.107C647.84 210.594 652.379 216.231 656.768 221.683C668.944 236.811 681.536 252.454 696.282 267.003C697.211 267.92 698.161 268.842 699.104 269.745C739.898 308.617 795.859 333.725 860.935 342.354C921.193 350.344 990.256 343.764 1066.21 322.796C1072.52 321.053 1079 319.171 1085.47 317.199C1138.79 300.981 1190.97 278.557 1241.42 256.871C1254.54 251.23 1268.11 245.4 1281.53 239.751C1314.08 226.091 1351.96 210.423 1389.56 197.342C1428.89 183.66 1464.9 173.855 1499.67 167.368C1521.55 163.249 1540.8 161.112 1558.51 160.837C1580.84 160.488 1601.37 163.173 1619.53 168.813C1635.29 173.726 1651.15 181.059 1668.02 191.231C1682.92 200.213 1696.72 210.221 1710.06 219.898C1717.79 225.506 1725.1 230.803 1732.48 235.815C1802.86 283.638 1875.45 335.149 1954.4 393.293L1954.2 393.407Z" fill="#FFE492"/>
<path d="M1951.28 391.765C1873.11 332.995 1801.85 280.898 1733.42 232.499C1726.18 227.375 1719 221.917 1711.4 216.141C1684.94 196.029 1657.58 175.231 1622.6 164.479C1589.91 154.462 1550.7 155.019 1502.72 166.183C1435.64 181.705 1375.67 207.667 1312.18 235.155C1304.27 238.579 1296.1 242.117 1287.96 245.611C1284.78 246.983 1281.59 248.358 1278.41 249.732C1217.91 275.823 1155.36 302.803 1089.74 320.48C1083.11 322.268 1076.44 323.968 1069.92 325.53C1033.58 334.232 998.231 339.772 964.848 341.992C927.466 344.478 892.174 342.815 859.956 337.049C828.337 331.389 798.565 321.646 771.467 308.089C745.201 294.949 721.492 278.258 700.994 258.477C700.06 257.572 699.117 256.646 698.191 255.728C683.998 241.629 671.445 226.613 659.301 212.092C654.385 206.211 649.298 200.13 644.19 194.211C624.838 171.761 607.103 154.155 588.367 138.806C585.877 136.767 583.307 134.72 580.724 132.721C533.736 96.3606 472.428 67.1602 403.42 48.2784C320.636 25.6891 236.195 18.9786 165.656 29.3878C93.2481 40.1612 19.5573 79.2078 25.6112 130.354L25.3364 130.368C23.8772 118.031 26.9385 105.917 34.4406 94.3631C41.3628 83.7012 51.9372 73.6686 65.8724 64.5457C91.6103 47.6944 127.956 34.8189 165.592 29.2187C202.779 23.7318 243.488 22.9335 286.593 26.8482C325.357 30.3656 364.7 37.5223 403.53 48.118C472.576 67.0121 533.923 96.2281 580.93 132.608C583.514 134.607 586.089 136.657 588.578 138.696C607.322 154.054 625.069 171.665 644.426 194.123C649.537 200.043 654.621 206.126 659.54 212.007C671.678 226.524 684.231 241.536 698.419 255.63C699.345 256.549 700.285 257.473 701.219 258.377C742.899 298.599 797.812 325.742 860.027 336.876C921.443 347.868 992.028 343.993 1069.82 325.362C1076.33 323.8 1083 322.103 1089.63 320.316C1155.23 302.646 1217.77 275.671 1278.25 249.584C1281.44 248.209 1284.62 246.835 1287.81 245.463C1295.94 241.969 1304.12 238.43 1312.02 235.009C1375.53 207.515 1435.51 181.546 1502.62 166.018C1524.3 160.973 1543.54 158.145 1561.45 157.365C1583.87 156.391 1604.48 158.732 1622.72 164.32C1638.39 169.136 1654.05 176.502 1670.61 186.839C1685.21 195.961 1698.63 206.162 1711.61 216.028C1719.21 221.802 1726.39 227.258 1733.63 232.38C1802.06 280.782 1873.32 332.88 1951.49 391.652L1951.28 391.765Z" fill="#FFE492"/>
<path d="M1948.37 390.122C1877.02 335.357 1805.09 281.168 1734.57 229.061C1727.39 223.786 1720.28 218.12 1712.74 212.122C1688.24 192.611 1660.48 170.498 1625.78 159.986C1592.71 149.986 1553.43 151.571 1505.69 164.828C1448.92 180.539 1398.68 203.641 1345.49 228.099C1328.84 235.757 1311.61 243.679 1294.24 251.321C1263.92 264.688 1231.11 278.832 1196.73 291.714C1159.9 305.512 1126.26 315.94 1093.87 323.599C1087.07 325.208 1080.22 326.723 1073.51 328.098C1036.4 335.702 1000.09 340.03 965.576 340.961C927.37 341.989 891.52 338.831 859.016 331.566C798.994 317.985 746.534 289.569 703.096 247.106C702.17 246.2 701.236 245.272 700.315 244.354C686.842 230.877 674.509 216.659 662.583 202.909C656.968 196.437 651.164 189.744 645.325 183.23C625.237 160.786 607.144 143.335 588.386 128.312C585.861 126.29 583.258 124.263 580.645 122.285C533.085 86.2745 471.326 57.5186 402.048 39.1195C318.729 17.0358 234.059 10.9266 163.636 21.9162C90.7887 33.3485 18.9446 71.8774 22.5802 123.397L22.3054 123.404C21.4343 111.063 24.8913 98.9635 32.5775 87.4389C39.7004 76.763 50.3352 66.7199 64.1907 57.5901C77.2438 48.9884 92.7151 41.4673 110.173 35.2344C127.123 29.1845 145.087 24.6457 163.567 21.7453C200.712 15.9499 241.465 14.8413 284.697 18.4546C323.554 21.7018 363.071 28.5988 402.153 38.9574C471.472 57.3669 533.266 86.1403 580.854 122.168C583.467 124.148 586.075 126.177 588.6 128.199C607.367 143.23 625.468 160.688 645.564 183.14C651.404 189.655 657.207 196.348 662.822 202.822C674.748 216.57 687.078 230.786 700.546 244.258C701.464 245.178 702.401 246.104 703.325 247.01C746.73 289.44 799.142 317.833 859.107 331.401C920.874 345.205 994.985 344.006 1073.43 327.93C1080.13 326.555 1086.98 325.042 1093.78 323.435C1166.18 306.314 1232.43 278.351 1294.08 251.176C1311.46 243.535 1328.68 235.614 1345.33 227.956C1398.53 203.493 1448.78 180.386 1505.58 164.667C1553.39 151.389 1592.75 149.805 1625.9 159.827C1641.44 164.535 1656.86 171.915 1673.06 182.385C1687.35 191.618 1700.37 201.987 1712.96 212.012C1720.49 218.01 1727.6 223.675 1734.78 228.946C1805.3 281.054 1877.23 335.244 1948.58 390.011L1948.37 390.122Z" fill="#FFE492"/>
<path d="M1945.46 388.482C1875.2 333.414 1804.63 278.621 1735.72 225.625C1728.76 220.293 1721.86 214.527 1714.55 208.423C1690.66 188.457 1663.57 165.826 1628.97 155.492C1595.5 145.51 1556.15 148.121 1508.66 163.472C1458.9 179.532 1413.18 202.208 1368.97 224.14C1346.8 235.137 1323.88 246.508 1300.52 257.03C1263.65 273.655 1232.63 286.337 1202.9 296.943C1166.23 310.021 1131.92 319.761 1098.01 326.719C1091.05 328.148 1084.02 329.476 1077.11 330.667C1041.1 336.866 1005.74 340.004 971.907 340.006C970.027 340.006 968.159 339.995 966.29 339.976C927.18 339.572 890.775 334.897 858.084 326.084C842.305 321.807 826.853 316.378 812.159 309.946C798.348 303.901 784.775 296.781 771.818 288.784C748.507 274.398 726.715 257.044 705.204 235.736C704.28 234.819 703.36 233.901 702.445 232.979C689.963 220.407 678.155 207.264 666.737 194.554C660.144 187.218 653.329 179.631 646.465 172.246C625.33 149.493 607.426 132.704 588.407 117.814C585.849 115.811 583.214 113.803 580.567 111.844C532.43 76.1912 470.224 47.878 400.677 29.9617C316.824 8.38519 231.924 2.87559 161.616 14.4456C90.1343 26.2422 18.3836 65.0639 19.5515 116.439L19.2767 116.44C18.7326 92.5108 33.6845 69.756 62.514 50.6371C75.5451 41.9954 90.934 34.4203 108.257 28.1176C125.114 21.9858 143.042 17.3285 161.547 14.2748C198.648 8.16906 239.445 6.75201 282.803 10.0637C321.754 13.039 361.446 19.6781 400.778 29.7979C470.369 47.7263 532.612 76.057 580.779 111.731C583.425 113.692 586.066 115.701 588.625 117.704C607.652 132.603 625.563 149.397 646.704 172.159C653.568 179.546 660.386 187.133 666.976 194.469C678.394 207.177 690.2 220.318 702.678 232.886C703.593 233.808 704.511 234.727 705.435 235.642C751.145 280.922 801.112 310.453 858.191 325.924C937.249 347.237 1020.84 340.176 1077.04 330.499C1083.94 329.309 1090.97 327.982 1097.93 326.553C1175.91 310.549 1247.08 280.916 1300.36 256.889C1323.72 246.37 1346.64 234.999 1368.8 224.004C1413.02 202.069 1458.75 179.385 1508.53 163.318C1529.78 156.449 1549.02 152.231 1567.33 150.425C1589.91 148.198 1610.69 149.85 1629.08 155.337C1644.58 159.965 1659.86 167.404 1675.79 178.078C1689.83 187.483 1702.51 198.075 1714.77 208.321C1722.08 214.423 1728.97 220.187 1735.93 225.515C1804.84 278.511 1875.41 333.304 1945.67 388.372L1945.46 388.482Z" fill="#FFE492"/>
<path d="M1942.54 386.839L1736.86 222.188C1730.15 216.811 1723.47 210.96 1716.41 204.767C1693.1 184.329 1666.69 161.164 1632.15 151.001C1598.75 141.174 1558.2 144.914 1511.63 162.12C1466.85 178.659 1426.01 200.654 1386.52 221.925C1360.77 235.791 1334.15 250.127 1306.8 262.744C1224.6 300.669 1152.75 323.068 1080.71 333.238C1050.82 337.456 1021.34 339.579 992.742 339.579C984.075 339.579 975.496 339.384 967.007 338.994C926.974 337.153 890.013 330.965 857.155 320.605C826.702 311.001 798.842 297.444 771.994 279.156C750.554 264.554 730.002 247.145 707.317 224.369C695.344 212.349 683.75 199.861 672.538 187.783C647.163 160.453 620.925 132.192 588.44 107.32C538.613 69.1709 473.211 39.2541 399.303 20.8028C314.919 -0.264808 229.789 -5.17657 159.596 6.97385C91.6375 18.7373 17.8779 55.8318 16.5204 109.481L16.2456 109.478C16.8529 85.4975 32.272 62.7462 60.8349 43.6831C86.6608 26.4466 121.709 13.3497 159.524 6.80478C196.584 0.390559 237.425 -1.33675 280.907 1.6734C319.951 4.37505 359.819 10.7579 399.404 20.6407C435.975 29.7705 470.707 41.7884 502.639 56.3616C534.838 71.0568 563.777 88.1626 588.649 107.205C621.147 132.086 647.394 160.354 672.774 187.691C683.986 199.767 695.58 212.253 707.55 224.271C740.648 257.503 787.578 298.465 857.279 320.445C937.213 345.65 1022.87 341.219 1080.65 333.064C1152.66 322.9 1224.47 300.51 1306.64 262.6C1333.98 249.987 1360.6 235.651 1386.34 221.789C1425.84 200.514 1466.69 178.514 1511.49 161.966C1558.14 144.731 1598.78 140.988 1632.27 150.841C1647.73 155.392 1662.87 162.895 1678.55 173.784C1692.35 183.368 1704.7 194.194 1716.63 204.663C1723.7 210.855 1730.37 216.703 1737.08 222.079L1942.76 386.729L1942.54 386.839Z" fill="#FFE492"/>
<path d="M1940.89 374.18C1888.51 328.336 1843.57 291.135 1799.47 257.11C1778.06 240.582 1756.19 224.312 1734.48 208.755C1727.91 204.048 1721.4 199.043 1714.51 193.742C1697.2 180.42 1679.3 166.646 1658.69 156.423C1647.63 150.924 1636.98 146.986 1626.14 144.386C1592.85 136.324 1553.8 141.654 1510.07 160.23C1487.43 169.828 1466.82 180.752 1449.64 190.171C1431.46 200.142 1413.52 211.139 1396.18 221.773C1371.24 237.059 1345.46 252.864 1317.74 266.439C1300.88 274.723 1283.79 282.126 1266.93 288.442C1233.21 301.079 1197.02 311.492 1159.36 319.391C1136.1 324.217 1112.72 327.866 1089.88 330.233C1070.19 332.265 1050.47 333.438 1031.26 333.719C1002.51 334.14 974.496 332.531 947.999 328.932C919.827 325.105 893.165 318.995 868.758 310.772C846.993 303.439 826.435 294.207 805.91 282.544C767.664 260.83 737.158 235.722 714.855 216.274C703.899 206.675 693.201 196.886 682.854 187.42C653.063 160.158 624.923 134.409 589.71 111.473C560.991 92.8889 528.223 76.8516 492.31 63.8036C464.711 53.7761 434.695 45.5753 403.095 39.4278C395.568 37.9654 387.899 36.6024 380.306 35.3806C347.615 30.1289 310.814 26.7092 270.926 25.2154C230.712 23.6746 195.919 25.008 164.567 29.2958C146.843 31.7011 129.67 35.4747 113.52 40.5102C56.5042 58.2888 19.8924 88.1341 15.5835 120.348L15.24 120.329C16.3887 111.741 19.7605 103.282 25.2593 95.1845C30.4833 87.4926 37.6583 80.0744 46.5839 73.1356C63.4485 60.0283 86.5428 48.6779 113.369 40.3133C129.544 35.269 146.744 31.4902 164.496 29.0814C195.881 24.7901 230.701 23.455 270.948 24.9976C310.858 26.4913 347.679 29.9145 380.391 35.1697C387.992 36.3933 395.664 37.7563 403.197 39.2204C434.821 45.3714 464.862 53.5792 492.483 63.6153C528.421 76.6721 561.216 92.7234 589.949 111.319C625.184 134.269 653.33 160.026 683.132 187.295C693.475 196.761 704.173 206.548 715.127 216.145C737.419 235.584 767.911 260.68 806.136 282.38C826.639 294.03 847.175 303.254 868.914 310.579C916.683 326.672 971.3 334.384 1031.25 333.501C1050.45 333.22 1070.15 332.047 1089.82 330.016C1112.64 327.649 1136 324.005 1159.25 319.182C1196.89 311.288 1233.06 300.882 1266.76 288.252C1283.6 281.941 1300.68 274.542 1317.53 266.265C1345.23 252.697 1371.01 236.895 1395.93 221.614C1413.29 210.979 1431.22 199.979 1449.42 190.003C1466.6 180.579 1487.22 169.652 1509.87 160.047C1529.35 151.776 1548.2 146.062 1565.92 143.063C1587.68 139.378 1607.98 139.755 1626.26 144.182C1637.14 146.791 1647.82 150.739 1658.91 156.25C1679.54 166.489 1697.45 180.272 1714.78 193.603C1721.67 198.901 1728.17 203.907 1734.73 208.61C1756.46 224.17 1778.32 240.44 1799.74 256.973C1843.84 291.001 1888.79 328.205 1941.17 374.053L1940.89 374.18Z" fill="#FFE492"/>
<path d="M1939.23 361.52C1890.67 314.901 1845.09 275.889 1799.9 242.258C1777.85 225.83 1755.04 210.038 1732.09 195.322C1726 191.418 1719.99 187.36 1713.63 183.066C1694.57 170.204 1674.86 156.905 1652.79 147.704C1641.64 143.038 1630.96 139.789 1620.13 137.77C1578.66 130.038 1536.54 144.687 1508.5 158.336C1488.64 167.978 1470.5 178.881 1452.12 190.135C1436.04 199.987 1420.9 210.584 1404.88 221.802C1381.1 238.454 1356.51 255.674 1328.69 270.132C1312.17 278.758 1294.94 286.216 1277.47 292.299C1244.92 303.632 1209.27 312.432 1168.5 319.206C1145.68 322.995 1122.31 325.695 1099.04 327.227C1079.4 328.505 1059.81 328.961 1040.78 328.58C1012.48 328.018 984.823 325.494 958.563 321.079C930.984 316.441 904.669 309.665 880.351 300.937C859.046 293.293 838.474 283.807 817.46 271.941C779.296 250.42 746.603 226.562 722.387 208.18C713.423 201.376 704.602 194.529 696.069 187.906C662.09 161.531 629.996 136.616 590.98 115.627C561.82 99.9404 529.083 86.6762 493.683 76.2043C466.898 68.2806 438.509 62.344 406.895 58.0545C399.599 57.0662 392.177 56.1755 384.837 55.4068C352.597 52.0481 318.189 50.7775 276.56 49.4632C246.551 48.468 207.268 47.8126 169.53 51.6158C151.657 53.3832 134.38 56.4526 118.175 60.7352C61.1207 75.8173 22.4176 102.164 14.6407 131.217L14.234 131.173C16.295 123.469 20.472 115.913 26.6413 108.713C32.522 101.852 40.2495 95.2744 49.6065 89.1565C67.3889 77.5342 91.0438 67.6218 118.016 60.4929C134.251 56.2017 151.561 53.127 169.464 51.3561C207.238 47.5477 246.551 48.2048 276.579 49.2C318.222 50.5143 352.641 51.7849 384.903 55.1454C392.249 55.9158 399.676 56.8065 406.981 57.7948C438.624 62.0895 467.041 68.0314 493.856 75.9637C529.292 86.4461 562.057 99.7208 591.246 115.423C630.29 136.428 662.398 161.35 696.388 187.735C704.918 194.357 713.739 201.203 722.703 208.006C746.913 226.381 779.593 250.23 817.735 271.74C838.724 283.595 859.274 293.069 880.555 300.706C928.37 317.865 982.286 327.154 1040.8 328.315C1059.8 328.695 1079.38 328.24 1099 326.962C1122.25 325.432 1145.6 322.735 1168.39 318.948C1209.14 312.181 1244.75 303.388 1277.27 292.066C1294.72 285.989 1311.94 278.542 1328.43 269.924C1356.23 255.478 1380.81 238.266 1404.58 221.622C1420.61 210.399 1435.74 199.8 1451.84 189.943C1470.22 178.682 1488.37 167.776 1508.26 158.123C1526.43 149.274 1544.36 142.909 1561.54 139.2C1582.38 134.703 1602.13 134.136 1620.25 137.514C1631.12 139.541 1641.84 142.801 1653.02 147.481C1675.13 156.699 1694.86 170.011 1713.93 182.883C1720.29 187.176 1726.31 191.231 1732.39 195.134C1755.35 209.855 1778.16 225.652 1800.21 242.085C1845.42 275.725 1891.01 314.744 1939.57 361.374L1939.23 361.52Z" fill="#FFE492"/>
<path d="M1937.57 348.858C1892.12 300.83 1847.23 261.102 1800.32 227.404C1777.65 211.078 1753.89 195.766 1729.71 181.89C1724.55 178.923 1719.22 175.775 1714.08 172.732C1692.84 160.158 1670.87 147.157 1646.88 138.984C1635.62 135.121 1624.91 132.559 1614.13 131.153C1572.75 125.751 1533 141.923 1506.95 156.438C1489.28 166.237 1473.14 177.344 1457.53 188.086L1454.6 190.097C1440.42 199.842 1427.13 210.53 1413.05 221.848C1390.63 239.869 1367.44 258.501 1339.63 273.822C1323.45 282.802 1306.08 290.316 1288 296.155C1256.48 306.336 1221.41 313.601 1177.62 319.018C1154.98 321.819 1131.62 323.569 1108.2 324.217C1088.61 324.738 1069.13 324.477 1050.3 323.436C993.276 320.301 939.997 309.421 891.94 291.1C871.165 283.18 850.58 273.446 829.01 261.335C792.508 240.885 760.043 219.864 729.922 200.086C725.883 197.435 721.887 194.802 717.922 192.189C676.781 165.087 637.924 139.488 592.258 119.785C562.444 106.922 529.74 96.4322 495.058 88.6062C469.594 82.8613 441.999 78.9604 410.699 76.6806C403.645 76.1699 396.47 75.7499 389.372 75.4326C371.515 74.6483 352.576 74.521 332.523 74.3868C316.417 74.2788 299.764 74.1672 282.191 73.7123C248.25 72.7589 209.783 71.68 174.488 73.9389C156.277 75.1049 138.895 77.4684 122.825 80.9649C65.7926 93.375 24.9955 116.227 13.6929 142.095L13.2285 142.013C16.2074 135.193 21.1868 128.54 28.0266 122.239C34.5669 116.213 42.8439 110.472 52.6268 105.175C71.3381 95.0448 95.5591 86.5739 122.666 80.6756C138.772 77.1704 156.189 74.8017 174.435 73.6339C209.767 71.3732 248.253 72.4538 282.207 73.4073C299.77 73.8604 316.423 73.9737 332.523 74.0818C352.584 74.216 371.529 74.3433 389.402 75.1293C396.505 75.4483 403.689 75.8684 410.748 76.3791C442.087 78.6607 469.715 82.5667 495.214 88.3203C529.938 96.1551 562.678 106.657 592.524 119.534C638.232 139.254 677.108 164.866 718.265 191.98C722.231 194.592 726.229 197.224 730.266 199.877C760.381 219.652 792.835 240.667 829.326 261.11C850.874 273.207 871.437 282.933 892.187 290.842C940.181 309.14 993.391 320.004 1050.34 323.137C1069.15 324.175 1088.61 324.437 1108.17 323.916C1131.58 323.267 1154.91 321.519 1177.53 318.722C1221.27 313.31 1256.31 306.054 1287.78 295.887C1305.82 290.06 1323.16 282.56 1339.31 273.596C1367.09 258.294 1390.26 239.672 1412.66 221.661C1426.75 210.339 1440.06 199.645 1454.24 189.893L1457.17 187.882C1472.79 177.135 1488.94 166.021 1506.62 156.212C1532.76 141.649 1572.65 125.43 1614.22 130.856C1625.05 132.27 1635.81 134.841 1647.11 138.719C1671.15 146.909 1693.14 159.924 1714.4 172.512C1719.55 175.555 1724.87 178.703 1730.03 181.668C1754.22 195.551 1777.99 210.872 1800.68 227.207C1847.6 260.919 1892.51 300.661 1937.97 348.705L1937.57 348.858Z" fill="#FFE492"/>
<path d="M1935.91 336.195C1894.18 287.441 1848.71 245.841 1800.76 212.554C1777.44 196.33 1752.74 181.495 1727.34 168.461C1723.67 166.579 1719.91 164.625 1716.28 162.735C1692.27 150.254 1667.44 137.345 1640.99 130.269C1629.64 127.199 1618.9 125.325 1608.14 124.538C1566.88 121.519 1529.49 139.187 1505.39 154.541C1490.43 164.027 1476.92 174.575 1463.86 184.777C1461.6 186.543 1459.35 188.305 1457.08 190.06C1444.66 199.702 1433.04 210.474 1420.75 221.877C1399.84 241.262 1378.22 261.307 1350.58 277.517C1334.34 287.035 1317.32 294.394 1298.53 300.017C1259.24 311.777 1219.98 316.129 1186.75 318.838C1164.28 320.668 1140.93 321.47 1117.35 321.215C1097.83 320.98 1078.47 319.999 1059.81 318.301C1004.5 313.279 951.924 300.821 903.534 281.269C883.399 273.137 862.803 263.149 840.563 250.737C818.098 238.23 797.164 226.194 776.916 214.554C763.157 206.643 750.159 199.171 737.466 192.002C689.485 164.902 645.536 141.075 593.547 123.948C563.093 113.917 530.422 106.2 496.44 101.011C472.084 97.2911 446.05 95.4801 414.511 95.3075C407.707 95.2762 400.776 95.3267 393.914 95.4592C383.491 95.6736 372.708 96.1215 361.295 96.5973C339.394 97.5089 314.565 98.5425 287.822 97.9639C277.637 97.7425 267.247 97.4305 257.198 97.1272C231.35 96.3481 204.623 95.5428 179.442 96.2627C160.951 96.7926 143.463 98.4519 127.469 101.195C70.533 110.965 27.6447 130.324 12.7395 152.981L12.2311 152.847C16.1333 146.914 21.9151 141.166 29.4144 135.761C36.617 130.57 45.4436 125.667 55.6443 121.189C75.3008 112.561 100.085 105.532 127.321 100.859C143.353 98.1085 160.88 96.444 179.412 95.9141C204.62 95.1925 231.358 95.9995 257.22 96.7786C267.266 97.0819 277.657 97.3939 287.838 97.6153C314.557 98.1939 339.366 97.1621 361.257 96.2505C372.675 95.7747 383.461 95.3267 393.895 95.1123C400.765 94.9798 407.701 94.9293 414.513 94.9607C446.096 95.1315 472.169 96.9477 496.566 100.672C530.59 105.868 563.305 113.595 593.797 123.64C617.281 131.375 641.079 141.176 666.55 153.6C689.354 164.722 711.536 176.892 737.829 191.742C750.522 198.913 763.52 206.385 777.282 214.297C797.526 225.934 818.461 237.97 840.92 250.476C863.138 262.876 883.713 272.852 903.823 280.977C952.146 300.502 1004.65 312.943 1059.89 317.958C1078.52 319.654 1097.85 320.633 1117.35 320.868C1140.91 321.123 1164.23 320.323 1186.67 318.493C1219.86 315.789 1259.07 311.442 1298.29 299.703C1317.03 294.096 1334.01 286.756 1350.2 277.262C1377.8 261.08 1399.4 241.051 1420.29 221.682C1432.59 210.272 1444.21 199.495 1456.65 189.842C1458.91 188.087 1461.17 186.325 1463.43 184.561C1476.5 174.352 1490.01 163.797 1505 154.299C1520.67 144.31 1536.76 136.625 1552.8 131.459C1571.8 125.339 1590.44 122.896 1608.19 124.196C1619 124.987 1629.8 126.87 1641.2 129.951C1667.71 137.047 1692.57 149.971 1716.61 162.469C1720.25 164.358 1724 166.312 1727.67 168.193C1753.09 181.237 1777.81 196.086 1801.15 212.322C1826.61 229.997 1851.55 250.136 1875.26 272.178C1896.22 291.659 1916.79 313.143 1936.38 336.031L1935.91 336.195Z" fill="#FFE492"/>
<path d="M1934.25 323.529C1895.63 273.378 1850.86 231.044 1801.19 197.702C1777.24 181.581 1751.59 167.226 1724.97 155.032C1723.7 154.451 1722.43 153.871 1721.16 153.289C1693.48 140.593 1664.85 127.465 1635.11 121.554C1623.59 119.264 1612.81 118.077 1602.16 117.924C1561.06 117.334 1526.01 136.479 1503.85 152.642C1490.81 162.098 1479.23 172.462 1468.03 182.484C1465.27 184.963 1462.4 187.525 1459.58 190.021C1448.81 199.527 1438.81 210.335 1428.22 221.78C1408.95 242.596 1389.03 264.121 1361.53 281.209C1345.62 291.095 1328.46 298.51 1309.07 303.878C1270.88 314.453 1232.1 317.23 1195.88 318.656C1173.54 319.534 1150.2 319.384 1126.51 318.211C1107.05 317.218 1087.81 315.518 1069.33 313.162C1015.9 306.364 964.021 292.326 915.131 271.436C895.551 263.071 875.529 253.126 852.124 240.137C807.642 215.519 774.611 198.18 745.026 183.917C686.183 155.55 641.272 138.86 594.86 128.113C563.789 120.918 531.15 115.973 497.847 113.414C474.742 111.64 450.221 111.799 418.344 113.934C411.812 114.377 405.129 114.898 398.479 115.485C392.197 116.048 385.816 116.693 379.059 117.375C354.109 119.893 325.83 122.748 293.464 122.215C276.404 121.934 258.979 121.166 242.128 120.423C222.977 119.579 203.175 118.706 184.4 118.588C165.576 118.469 147.981 119.424 132.116 121.429C75.3699 128.594 30.3848 144.464 11.7835 163.879L11.2559 163.675C16.0869 158.631 22.6711 153.787 30.8245 149.278C38.6948 144.924 48.0656 140.861 58.6784 137.199C79.294 130.084 104.647 124.496 131.995 121.044C147.904 119.036 165.538 118.077 184.406 118.195C203.197 118.314 223.01 119.187 242.169 120.033C259.014 120.775 276.431 121.544 293.477 121.824C325.786 122.356 354.035 119.504 378.957 116.989C385.717 116.306 392.104 115.663 398.388 115.098C405.047 114.511 411.735 113.99 418.273 113.545C450.199 111.408 474.761 111.248 497.916 113.028C531.266 115.59 563.951 120.542 595.067 127.747C641.541 138.508 686.499 155.215 745.394 183.607C774.99 197.875 808.032 215.219 852.526 239.844C875.914 252.823 895.914 262.758 915.472 271.114C964.296 291.974 1016.1 305.993 1069.45 312.78C1087.9 315.133 1107.12 316.829 1126.55 317.822C1150.22 318.994 1173.53 319.144 1195.84 318.267C1232 316.843 1270.72 314.073 1308.82 303.523C1328.14 298.175 1345.24 290.785 1361.09 280.934C1388.53 263.882 1408.44 242.38 1427.68 221.586C1438.28 210.135 1448.29 199.318 1459.07 189.798C1461.9 187.303 1464.76 184.741 1467.53 182.263C1478.73 172.232 1490.32 161.861 1503.38 152.39C1517.84 141.841 1533.01 133.497 1548.45 127.588C1566.53 120.667 1584.61 117.287 1602.17 117.537C1612.89 117.69 1623.72 118.884 1635.3 121.185C1665.13 127.116 1693.8 140.262 1721.52 152.977C1722.79 153.559 1724.06 154.141 1725.33 154.72C1751.98 166.928 1777.66 181.301 1801.64 197.439C1851.35 230.81 1896.16 273.177 1934.8 323.363L1934.25 323.529Z" fill="#FFE492"/>
<path d="M1209.55 318.475C1208.01 318.475 1206.49 318.473 1204.99 318.468C1182.78 318.408 1159.45 317.31 1135.66 315.201C1116.27 313.45 1097.15 311.032 1078.84 308.018C1052.68 303.72 1026.43 297.543 1000.8 289.659C976.054 282.046 951.132 272.606 926.724 261.599C902.809 250.815 880.47 238.799 863.68 229.535C824.394 207.918 787.015 189.85 752.583 175.831C696.814 153.127 647.116 139.286 596.177 132.274C565.445 128.044 532.475 125.813 500.73 125.813C500.238 125.813 499.749 125.813 499.257 125.814C471.985 125.874 446.094 129.088 422.18 132.553C415.956 133.461 409.517 134.453 403.043 135.504C399.495 136.086 395.942 136.685 392.183 137.32C365.667 141.801 335.612 146.878 299.099 146.462C276.862 146.207 254.15 144.747 232.185 143.333C218.003 142.42 203.339 141.477 189.352 140.907C170.124 140.124 152.429 140.375 136.755 141.656C80.3105 146.265 33.2287 158.647 10.8076 174.78L10.291 174.493C21.7915 166.219 39.0903 159.055 61.7064 153.199C83.3059 147.607 109.228 143.466 136.667 141.226C152.383 139.943 170.124 139.689 189.396 140.475C203.397 141.045 218.069 141.989 232.257 142.903C254.208 144.316 276.906 145.777 299.113 146.03C335.533 146.446 365.535 141.376 392.007 136.903C395.769 136.267 399.322 135.668 402.873 135.085C409.353 134.034 415.797 133.041 422.026 132.133C445.981 128.662 471.917 125.443 499.254 125.382C531.505 125.311 565.066 127.549 596.322 131.852C622.612 135.472 648.1 140.801 674.237 148.142C699.409 155.213 725.157 164.152 752.951 175.469C787.411 189.498 824.817 207.58 864.127 229.211C880.904 238.469 903.226 250.477 927.117 261.249C976.645 283.583 1027.75 299.178 1079.01 307.602C1097.3 310.612 1116.39 313.026 1135.75 314.776C1159.51 316.882 1182.81 317.98 1204.99 318.037C1239.71 318.128 1280.03 317.385 1319.34 307.337C1339.25 302.251 1356.46 294.813 1371.98 284.601C1399.23 266.666 1417.3 243.646 1434.77 221.383C1443.76 209.931 1452.25 199.114 1461.48 189.751C1464.44 186.751 1467.42 183.661 1470.31 180.672C1480.06 170.573 1490.14 160.132 1501.75 150.481C1515.02 139.378 1529.27 130.372 1544.08 123.714C1561.26 115.994 1578.77 111.675 1596.13 110.877C1606.84 110.384 1617.72 110.887 1629.37 112.418C1660.54 116.507 1691.43 128.387 1722.97 141.245C1750.46 152.456 1777.83 166.74 1802.11 182.554C1829.07 200.069 1854.41 220.618 1877.42 243.627C1897.91 264.126 1916.68 286.691 1933.21 310.696L1932.58 310.87C1897.09 259.319 1853.03 216.25 1801.62 182.859C1777.37 167.068 1750.05 152.805 1722.59 141.613C1691.11 128.777 1660.28 116.92 1629.23 112.845C1617.64 111.323 1606.83 110.823 1596.18 111.313C1564.28 112.782 1530.94 126.785 1502.3 150.746C1490.71 160.38 1480.63 170.812 1470.89 180.9C1468.01 183.891 1465.02 186.983 1462.06 189.983C1452.85 199.329 1444.37 210.137 1435.39 221.578C1426.81 232.501 1417.95 243.798 1407.78 254.657C1396.24 266.967 1384.7 276.861 1372.48 284.905C1356.89 295.162 1339.6 302.633 1319.6 307.743C1301.97 312.25 1283.02 315.229 1261.66 316.854C1243.58 318.222 1225.41 318.475 1209.55 318.475Z" fill="#FFE492"/>
<path d="M1253.62 319.349C1239.61 319.349 1226.15 318.819 1214.1 318.282C1191.96 317.296 1168.64 315.248 1144.8 312.194C1125.49 309.686 1106.49 306.552 1088.34 302.876C1038.63 292.831 989.555 276.111 938.307 251.763C915.958 241.146 894.889 229.722 875.229 218.933C836.417 197.695 797.697 180.474 760.14 167.747C704.905 149.029 653.225 139.078 597.501 136.432C565.751 134.924 532.269 135.54 500.672 138.21C474.225 140.445 449.292 145.837 426.017 151.167C420.194 152.508 414 153.972 407.61 155.518C406.014 155.907 404.404 156.302 402.771 156.701C375.964 163.276 345.632 170.715 306.703 170.715C306.046 170.715 305.392 170.713 304.73 170.708C278.393 170.539 251.504 168.155 225.497 165.847C215.186 164.932 204.524 163.987 194.293 163.222C174.309 161.73 157.002 161.289 141.38 161.878C84.5591 164.022 36.5979 172.695 9.79926 185.679L9.34033 185.297C22.5885 178.879 41.745 173.307 64.7321 169.183C87.3428 165.127 113.831 162.436 141.333 161.399C157 160.808 174.351 161.249 194.378 162.744C204.62 163.51 215.285 164.456 225.598 165.369C251.581 167.674 278.445 170.056 304.733 170.225C344.472 170.483 375.299 162.92 402.494 156.25C404.123 155.851 405.736 155.455 407.333 155.065C413.728 153.517 419.924 152.053 425.753 150.713C449.067 145.372 474.047 139.972 500.565 137.731C532.211 135.057 565.748 134.44 597.551 135.949C625.165 137.26 651.494 140.356 678.04 145.41C705.38 150.617 732.349 157.782 760.489 167.32C798.093 180.065 836.862 197.306 875.716 218.566C895.367 229.351 916.422 240.768 938.753 251.374C989.932 275.689 1038.93 292.385 1088.56 302.414C1106.69 306.083 1125.66 309.213 1144.94 311.718C1168.75 314.768 1192.04 316.815 1214.15 317.798C1251.35 319.454 1290.93 320.304 1329.86 311.141C1350.35 306.318 1367.69 298.834 1382.86 288.259C1409.89 269.423 1426.72 243.729 1441.57 221.06C1449.04 209.654 1456.09 198.88 1463.88 189.696C1466.69 186.383 1469.52 182.958 1472.25 179.646C1480.8 169.284 1489.64 158.57 1500.11 148.563C1512.22 136.906 1525.55 127.238 1539.71 119.827C1555.98 111.316 1572.92 106.059 1590.07 104.206C1600.79 103.047 1611.71 102.862 1623.44 103.636C1656.21 105.803 1689.5 116.508 1720.6 127.756C1749.31 138.14 1777.66 151.938 1802.58 167.656C1830.29 185.09 1855.83 205.843 1878.48 229.337C1898.74 250.347 1916.62 273.452 1931.62 298.015L1930.92 298.187C1899.02 245.978 1854.46 200.958 1802.04 167.994C1777.18 152.306 1748.88 138.534 1720.23 128.17C1689.2 116.949 1656 106.27 1623.36 104.112C1611.7 103.341 1600.86 103.526 1590.21 104.677C1558.54 108.098 1526.77 123.776 1500.75 148.825C1490.3 158.81 1481.47 169.514 1472.92 179.866C1470.19 183.179 1467.36 186.604 1464.55 189.921C1456.78 199.084 1449.73 209.847 1442.27 221.241C1427.4 243.945 1410.54 269.681 1383.42 288.58C1368.16 299.212 1350.73 306.738 1330.13 311.589C1312.25 315.797 1292.96 318.234 1271.16 319.034C1265.27 319.26 1259.4 319.349 1253.62 319.349Z" fill="#FFE492"/>
<path d="M1281.28 321.236C1281.08 321.236 1280.88 321.236 1280.68 321.236C1260.88 321.204 1241.43 319.667 1223.21 318.095C1201.11 316.188 1177.8 313.188 1153.94 309.183C1134.72 305.922 1115.85 302.068 1097.85 297.731C1050.12 286.25 1003.11 268.519 949.898 241.926C930.734 232.351 911.874 222.042 893.633 212.073C891.352 210.825 889.068 209.579 886.785 208.333C847.771 187.1 807.708 170.724 767.71 159.663C712.94 144.518 657.702 138.279 598.839 140.588C566.564 141.855 533.112 145.318 502.101 150.603C477.632 154.774 455.83 161.466 429.866 169.78C424.604 171.472 418.984 173.299 412.186 175.53L411.806 175.655C398.69 179.988 383.823 184.898 367.148 188.632C347.997 192.92 329.418 194.983 310.366 194.959C280.657 194.912 250.338 191.405 221.02 188.011C213.836 187.18 206.406 186.321 199.233 185.543C178.665 183.318 161.253 182.193 146.004 182.108C89.8569 181.794 39.8375 187.072 8.77388 196.585L8.41663 196.115C23.6324 191.454 44.1573 187.672 67.771 185.176C91.4287 182.674 118.486 181.433 146.013 181.587C161.305 181.672 178.761 182.798 199.374 185.029C206.551 185.807 213.982 186.666 221.168 187.497C250.451 190.886 280.731 194.389 310.369 194.436C310.501 194.436 310.635 194.436 310.767 194.436C353.161 194.436 385.458 183.769 411.427 175.192L411.809 175.066C418.61 172.833 424.23 171.007 429.495 169.314C455.503 160.986 477.344 154.283 501.889 150.1C532.953 144.804 566.459 141.336 598.79 140.067C627.594 138.937 654.764 139.798 681.857 142.702C711.052 145.831 739.244 151.222 768.04 159.186C808.114 170.268 848.246 186.669 887.323 207.937C889.607 209.184 891.89 210.432 894.171 211.68C912.404 221.644 931.259 231.951 950.407 241.518C1003.55 268.078 1050.49 285.785 1098.14 297.247C1116.11 301.578 1134.96 305.425 1154.15 308.682C1177.98 312.683 1201.25 315.677 1223.32 317.58C1262.86 320.993 1301.56 323.36 1340.39 314.966C1361.47 310.41 1378.92 302.878 1393.75 291.939C1420.55 272.179 1435.18 244.798 1448.1 220.639C1454.14 209.328 1459.85 198.644 1466.29 189.666C1468.77 186.211 1471.26 182.638 1473.66 179.181C1481.18 168.375 1488.96 157.202 1498.49 146.668C1509.46 134.451 1521.87 124.118 1535.35 115.958C1550.72 106.657 1567.09 100.466 1584.03 97.5587C1594.53 95.7564 1605.24 94.8779 1616.76 94.8779C1617.01 94.8779 1617.26 94.8779 1617.51 94.8797C1653.31 94.9982 1690.14 105.313 1718.24 114.286C1748.17 123.847 1777.5 137.156 1803.06 152.777C1831.53 170.13 1857.27 191.088 1879.56 215.07C1899.57 236.59 1916.55 260.238 1930.04 285.358L1929.26 285.527C1909.19 248.15 1870.89 194.846 1802.48 153.155C1776.99 137.569 1747.72 124.291 1717.87 114.753C1689.85 105.805 1653.13 95.5194 1617.51 95.4026C1605.78 95.359 1594.9 96.234 1584.25 98.0641C1552.87 103.452 1522.67 120.805 1499.2 146.927C1489.69 157.438 1481.93 168.598 1474.42 179.392C1472.01 182.85 1469.52 186.425 1467.05 189.882C1460.62 198.837 1454.92 209.508 1448.88 220.806C1435.94 245.009 1421.28 272.442 1394.38 292.279C1379.45 303.291 1361.88 310.873 1340.66 315.459C1322.68 319.344 1303.25 321.236 1281.28 321.236Z" fill="#FFE492"/>
<path d="M1303.27 323.689C1299 323.689 1294.65 323.602 1290.18 323.428C1270.65 322.666 1251.67 320.381 1232.32 317.906C1209.89 315.037 1187.25 311.199 1163.08 306.172C1143.96 302.16 1125.21 297.59 1107.35 292.586C1062.04 279.911 1017.06 261.252 961.49 232.088C947.69 224.846 933.894 217.25 920.553 209.903C913.29 205.905 905.782 201.769 898.343 197.73C858.865 176.354 817.464 160.827 775.287 151.579C719.56 139.359 662.286 137.121 600.186 144.738C567.378 148.762 533.956 155.074 503.539 162.989C479.103 169.347 457.817 178.277 435.281 187.731L433.722 188.384C430.202 189.866 426.644 191.368 423.041 192.888C420.966 193.765 418.878 194.647 416.77 195.536C403.629 201.108 389.435 206.921 373.159 211.395C354.261 216.589 335.569 219.145 316.008 219.207C283.444 219.308 250.229 214.508 218.11 209.861C213.527 209.197 208.783 208.512 204.181 207.862C182.6 204.812 165.587 203.057 150.633 202.335C95.447 199.674 43.3666 201.549 7.74129 207.482L7.51318 206.935C43.2319 200.986 95.4195 199.104 150.701 201.77C165.697 202.494 182.754 204.254 204.376 207.31C208.981 207.961 213.724 208.646 218.311 209.311C250.037 213.9 282.832 218.643 314.964 218.643C315.31 218.643 315.657 218.643 316.006 218.641C357.567 218.508 387.152 207.412 416.278 195.065C418.386 194.176 420.474 193.294 422.549 192.417C426.152 190.896 429.708 189.395 433.23 187.912L434.789 187.258C457.364 177.788 478.685 168.843 503.201 162.464C533.673 154.533 567.152 148.212 600.019 144.18C662.275 136.544 719.703 138.789 775.581 151.042C817.862 160.315 859.36 175.876 898.926 197.3C906.365 201.34 913.875 205.474 921.138 209.474C934.474 216.819 948.267 224.414 962.059 231.651C1017.56 260.781 1062.48 279.414 1107.71 292.068C1125.54 297.063 1144.27 301.628 1163.36 305.634C1187.49 310.654 1210.11 314.486 1232.5 317.35C1266.49 321.699 1308.8 327.113 1350.93 318.774C1372.59 314.488 1390.16 306.91 1404.64 295.604C1431.18 274.898 1443.48 245.774 1454.34 220.081C1459.05 208.918 1463.51 198.375 1468.71 189.625C1470.73 186.216 1472.76 182.69 1474.73 179.279C1481.31 167.839 1488.12 156.012 1496.86 144.762C1506.73 131.977 1518.21 120.981 1530.98 112.078C1545.46 101.989 1561.27 94.8655 1577.98 90.9037C1588.7 88.3606 1599.69 86.7937 1611.57 86.1122C1627.49 85.1988 1644.43 86.1749 1663.37 89.0892C1679.39 91.5573 1696.56 95.3884 1715.88 100.804C1747.02 109.538 1777.33 122.361 1803.53 137.886C1832.77 155.157 1858.71 176.323 1880.64 200.791C1900.39 222.824 1916.48 247.013 1928.46 272.689L1927.6 272.85C1902.3 218.643 1858.03 170.858 1802.92 138.301C1776.79 122.818 1746.57 110.031 1715.51 101.323C1673.9 89.6557 1640.9 85.0001 1611.65 86.6769C1599.85 87.3532 1588.94 88.9097 1578.29 91.4335C1538.54 100.858 1512.5 125.772 1497.66 145.011C1488.94 156.233 1482.14 168.047 1475.56 179.472C1473.6 182.885 1471.57 186.413 1469.54 189.824C1464.36 198.548 1459.91 209.079 1455.2 220.227C1444.32 245.976 1431.99 275.161 1405.34 295.962C1390.74 307.356 1373.02 314.995 1351.19 319.316C1336.39 322.244 1320.61 323.689 1303.27 323.689Z" fill="#FFE492"/>
<path d="M1322.32 326.503C1293.26 326.503 1265.32 321.768 1241.42 317.717C1218.93 313.907 1196.3 309.145 1172.21 303.161C1153.2 298.403 1134.57 293.115 1116.85 287.441C1063.71 270.454 1016.35 246.071 973.075 222.251C964.24 217.388 955.315 212.376 946.686 207.528C934.704 200.797 922.314 193.837 909.898 187.13C869.829 165.543 827.089 150.862 782.868 143.494C725.663 133.965 666.347 135.727 601.532 148.883C568.16 155.657 534.772 164.816 504.975 175.372C481.993 183.512 462.548 193.788 441.963 204.668C440.504 205.438 439.042 206.212 437.572 206.986L436.775 207.408C431.771 210.056 426.596 212.792 421.35 215.539C408.781 222.15 394.939 228.988 378.929 234.212C360.344 240.276 341.608 243.3 321.644 243.457C286.601 243.734 250.885 237.485 216.348 231.442C213.927 231.019 211.517 230.597 209.118 230.18C186.342 226.217 169.728 223.867 155.251 222.56C101.451 217.704 47.3038 216.177 6.69363 218.371L6.61121 217.763C47.2874 215.563 101.514 217.092 155.386 221.955C169.904 223.266 186.554 225.621 209.371 229.591C211.77 230.008 214.18 230.429 216.604 230.855C251.075 236.886 286.722 243.118 321.63 242.847C364.986 242.505 395.519 228.329 420.735 215.068C425.981 212.322 431.155 209.585 436.159 206.939L436.956 206.517C438.426 205.742 439.888 204.97 441.348 204.199C461.969 193.3 481.447 183.006 504.505 174.838C534.357 164.264 567.808 155.089 601.238 148.303C631.966 142.067 660.829 138.466 689.471 137.294C721.423 135.989 752.926 137.876 783.11 142.905C827.471 150.295 870.338 165.018 910.519 186.665C922.943 193.375 935.337 200.337 947.321 207.07C955.949 211.917 964.869 216.928 973.702 221.789C1016.93 245.583 1064.24 269.94 1117.27 286.896C1134.97 292.56 1153.58 297.842 1172.56 302.593C1196.61 308.568 1219.21 313.323 1241.67 317.128C1276.14 322.97 1319.05 330.242 1361.45 322.59C1383.69 318.574 1401.38 310.949 1415.52 299.278C1441.78 277.597 1451.61 246.681 1460.28 219.403C1463.76 208.443 1467.05 198.092 1471.11 189.591C1472.61 186.447 1474.11 183.198 1475.57 180.055C1481.27 167.764 1487.16 155.052 1495.22 142.863C1503.99 129.5 1514.55 117.836 1526.59 108.199C1540.19 97.324 1555.43 89.2678 1571.91 84.2532C1582.61 80.9973 1593.63 78.7402 1605.62 77.351C1621.77 75.4808 1639.69 75.5435 1658.88 77.5375C1675.68 79.284 1694.06 82.5765 1713.49 87.3261C1745.85 95.2341 1777.15 107.569 1803.99 122.998C1833.98 140.189 1860.13 161.559 1881.7 186.515C1901.19 209.06 1916.39 233.793 1926.86 260.026L1925.93 260.175C1903.73 204.591 1860.2 156.035 1803.35 123.451C1776.59 108.073 1745.4 95.7779 1713.15 87.8961C1671.34 77.6804 1636.23 74.4262 1605.8 77.9523C1593.9 79.331 1582.95 81.5725 1572.32 84.804C1533.12 96.7348 1509.24 123.089 1496.11 143.098C1488.07 155.256 1482.18 167.95 1476.49 180.226C1475.04 183.369 1473.53 186.619 1472.03 189.767C1467.98 198.24 1464.7 208.578 1461.22 219.524C1457.05 232.647 1452.32 247.52 1445.46 261.464C1437.6 277.44 1428.05 289.93 1416.28 299.649C1409.48 305.268 1401.66 310.051 1393.04 313.865C1383.76 317.966 1373.22 321.1 1361.71 323.178C1348.54 325.557 1335.32 326.503 1322.32 326.503Z" fill="#FFE492"/>
<path d="M1339.5 329.589C1329.89 329.589 1319.83 328.996 1309.19 327.813C1288.25 325.483 1268.21 321.254 1250.52 317.526C1228.23 312.825 1204.96 306.977 1181.35 300.146C1162.46 294.649 1143.95 288.643 1126.34 282.291C1075.82 264.082 1032.28 239.87 984.661 212.411C980.429 209.971 976.131 207.482 971.976 205.073C955.612 195.593 938.692 185.79 921.454 176.528C880.72 154.688 836.645 140.854 790.451 135.409C732.182 128.54 669.071 134.466 602.879 153.025C568.914 162.549 535.555 174.555 506.413 187.748C484.47 197.681 466.407 209.392 447.284 221.792C445.341 223.052 443.39 224.316 441.428 225.585C436.544 228.746 431.285 232.14 425.934 235.537C414.714 242.685 401.04 250.83 384.703 257.023C366.415 263.957 347.632 267.451 327.286 267.704C290.039 268.169 252.125 260.347 215.458 252.782L214.062 252.495C196.109 248.793 177.118 245.052 159.877 242.781C107.324 235.86 52.5529 231.054 5.65796 229.25L5.72116 228.598C52.6655 230.404 107.486 235.213 160.086 242.141C177.376 244.419 196.401 248.165 214.381 251.872L215.777 252.16C252.364 259.707 290.201 267.511 327.267 267.049C370.073 266.515 399.636 251.365 425.206 235.072C430.556 231.676 435.811 228.283 440.694 225.123C442.656 223.856 444.607 222.59 446.55 221.332C465.706 208.911 483.802 197.179 505.816 187.213C535.014 173.994 568.435 161.965 602.464 152.424C633.519 143.718 664.08 137.718 693.292 134.595C726.669 131.027 759.423 131.083 790.643 134.762C837.013 140.228 881.25 154.111 922.122 176.026C939.374 185.297 956.302 195.103 972.674 204.589C976.829 206.996 981.127 209.485 985.359 211.925C1032.94 239.358 1076.42 263.544 1126.86 281.721C1144.44 288.062 1162.92 294.06 1181.78 299.55C1205.36 306.371 1228.59 312.21 1250.85 316.904C1285.74 324.263 1329.17 333.418 1371.99 326.403C1394.83 322.661 1412.63 314.99 1426.41 302.949C1452.38 280.264 1459.9 246.072 1465.94 218.597C1468.29 207.895 1470.51 197.787 1473.53 189.56C1474.47 186.967 1475.43 184.295 1476.36 181.71C1481.17 168.282 1486.14 154.395 1493.6 140.967C1505.13 120.071 1527.02 92.1165 1565.86 77.6096C1576.58 73.6042 1587.65 70.655 1599.69 68.5948C1631.18 63.127 1668.68 64.8962 1711.13 73.8499C1744.7 80.9317 1776.98 92.7789 1804.47 108.112C1835.22 125.221 1861.57 146.796 1882.78 172.242C1892.52 183.913 1901.11 196.379 1908.35 209.293C1915.26 221.628 1920.95 234.437 1925.29 247.365L1924.28 247.501C1905.19 190.536 1862.4 141.208 1803.79 108.602C1776.4 93.3262 1744.25 81.5243 1710.8 74.4687C1668.55 65.555 1631.25 63.7911 1599.96 69.224C1588.01 71.2686 1577.03 74.1951 1566.38 78.1708C1527.8 92.5767 1506.04 120.388 1494.58 141.182C1487.13 154.575 1482.17 168.442 1477.36 181.853C1476.44 184.438 1475.48 187.111 1474.53 189.707C1471.53 197.906 1469.31 208 1466.96 218.686C1463.92 232.511 1460.48 248.181 1454.59 262.97C1447.83 279.964 1438.88 293.168 1427.25 303.333C1420.61 309.132 1412.84 314.022 1404.17 317.867C1394.82 322.011 1384.08 325.096 1372.24 327.034C1361.85 328.739 1351 329.589 1339.5 329.589Z" fill="#FFE492"/>
<path d="M1355.33 332.85C1343.81 332.85 1331.67 331.904 1318.7 330.005C1297.68 326.932 1277.46 321.832 1259.62 317.332C1237.16 311.667 1213.9 304.871 1190.48 297.131C1171.71 290.9 1153.33 284.175 1135.84 277.142C1087.72 257.804 1046.44 232.879 1002.74 206.493C1000.58 205.188 998.417 203.881 996.249 202.573C975.927 190.317 954.916 177.642 933.012 165.929C891.569 143.812 846.158 130.823 798.04 127.323C737.6 122.925 672.392 132.967 604.225 157.165C570.128 169.268 535.901 184.525 507.849 200.123C486.668 211.9 469.679 225.152 451.694 239.183C449.564 240.844 447.429 242.511 445.277 244.18C440.979 247.522 435.865 251.484 430.512 255.536C420.597 263.06 407.088 272.623 390.473 279.816C372.477 287.609 353.653 291.581 332.924 291.956C315.887 292.226 297.085 290.558 275.441 286.854C256.859 283.675 238.884 279.52 218.994 274.813C200.838 270.465 181.676 265.973 164.485 263.006C113.561 254.218 59.7715 246.523 4.61328 240.13L4.81113 239.445C60.0023 245.84 113.822 253.542 164.773 262.334C182.012 265.309 201.201 269.808 219.379 274.16C252.718 282.05 294.21 291.874 332.894 291.259C377.121 290.457 405.543 273.4 429.668 255.086C435.019 251.037 440.13 247.077 444.425 243.738C446.577 242.068 448.712 240.402 450.839 238.742C468.855 224.688 485.874 211.414 507.124 199.598C535.233 183.969 569.526 168.683 603.689 156.557C672.063 132.285 737.496 122.218 798.166 126.631C821.428 128.324 844.278 132.254 866.075 138.313C889.464 144.812 912.223 153.926 933.721 165.397C955.65 177.122 976.675 189.804 997.007 202.07C999.176 203.379 1001.34 204.684 1003.5 205.99C1047.16 232.352 1088.4 257.253 1136.43 276.555C1153.89 283.577 1172.25 290.293 1190.99 296.514C1214.38 304.242 1237.6 311.029 1260.03 316.685C1295.28 325.575 1339.14 336.637 1382.52 330.222C1406.01 326.746 1423.93 319.028 1437.29 306.628C1463.04 282.945 1467.62 246.765 1471.3 217.696C1472.62 207.299 1473.87 197.479 1475.93 189.537C1476.36 187.899 1476.78 186.252 1477.21 184.596C1481.06 169.639 1485.05 154.172 1491.97 139.078C1501.86 117.367 1521.65 87.9279 1559.8 70.972C1570.44 66.2415 1581.54 62.6022 1593.74 59.8448C1610.7 55.9771 1629.6 54.1591 1649.91 54.438C1668.45 54.6925 1688.25 56.6917 1708.75 60.3781C1743.54 66.6302 1776.8 77.9893 1804.94 93.2266C1836.45 110.252 1863 132.036 1883.85 157.97C1893.42 169.87 1901.71 182.592 1908.48 195.783C1914.96 208.416 1920.09 221.513 1923.7 234.709L1922.61 234.827C1906.88 177.324 1863.73 125.906 1804.23 93.7565C1776.2 78.5854 1743.09 67.2734 1708.45 61.0457C1665.74 53.3661 1626.2 53.1778 1594.1 60.4984C1582 63.2349 1570.98 66.8464 1560.42 71.5402C1522.54 88.3793 1502.87 117.667 1493.03 139.27C1486.12 154.324 1482.14 169.768 1478.29 184.706C1477.87 186.362 1477.44 188.011 1477.01 189.649C1474.96 197.56 1473.71 207.368 1472.4 217.75C1468.7 246.903 1464.1 283.187 1438.2 307.022C1431.76 312.999 1424.05 318.001 1415.31 321.887C1405.9 326.066 1394.95 329.099 1382.77 330.901C1373.97 332.198 1364.87 332.85 1355.33 332.85Z" fill="#FFE492"/>
<path d="M1370.2 336.242C1357.08 336.242 1343.18 334.897 1328.2 332.195C1307.01 328.373 1286.66 322.403 1268.72 317.137C1246.03 310.482 1222.78 302.735 1199.61 294.114C1180.97 287.159 1162.71 279.715 1145.33 271.992C1102.52 252.979 1065.94 229.688 1027.21 205.028C1020.87 200.996 1014.33 196.829 1007.83 192.731C984.994 178.334 965.494 166.462 944.562 155.326C902.38 132.917 855.636 120.773 805.625 119.232C742.784 117.296 675.471 131.449 605.561 161.298C570.832 176.127 536.636 194.307 509.274 212.49C488.661 226.188 472.546 241.099 455.487 256.885C453.373 258.841 451.252 260.804 449.117 262.768C445.313 266.273 440.279 270.892 435.083 275.523C413.214 295.059 384.643 315.171 338.556 316.2C337.118 316.229 335.676 316.243 334.236 316.243C298.248 316.243 261.507 307.209 223.919 297.122L221.573 296.488C202.955 291.447 185.368 286.687 169.088 283.222C107.739 270.164 48.4063 259.141 3.5697 250.998L3.89123 250.285C48.7389 258.431 108.088 269.456 169.459 282.52C185.782 285.993 203.389 290.76 222.032 295.806L224.376 296.441C263.34 306.897 301.392 316.224 338.514 315.46C384.09 314.443 412.422 294.485 434.129 275.096C439.323 270.469 444.352 265.853 448.155 262.35C450.29 260.384 452.409 258.423 454.522 256.467C471.609 240.656 487.748 225.721 508.427 211.979C535.844 193.758 570.109 175.542 604.907 160.683C637.205 146.892 669.513 136.303 700.934 129.208C736.985 121.066 772.229 117.461 805.68 118.492C855.95 120.039 902.93 132.242 945.31 154.756C966.271 165.91 985.791 177.794 1008.65 192.203C1015.15 196.301 1021.7 200.47 1028.03 204.501C1066.73 229.137 1103.27 252.406 1146 271.38C1163.36 279.095 1181.59 286.527 1200.2 293.471C1223.34 302.081 1246.55 309.817 1269.2 316.461C1304.76 326.893 1349 339.875 1393.04 334.03C1417.12 330.835 1435.15 323.072 1448.17 310.298C1473.59 285.535 1475.11 247.32 1476.34 216.613C1476.74 206.595 1477.12 197.13 1478.33 189.505L1478.36 189.33C1481.08 172.254 1483.89 154.598 1490.33 137.177C1495.92 121.981 1503.69 108.319 1513.44 96.5682C1524.43 83.3197 1537.98 72.4713 1553.72 64.3228C1564.25 58.8707 1575.39 54.5394 1587.78 51.083C1621.24 41.69 1662.25 40.2398 1706.36 46.8929C1724.12 49.5701 1741.63 53.626 1758.42 58.9457C1775.31 64.2966 1791.12 70.8207 1805.4 78.333C1837.68 95.2766 1864.43 117.266 1884.92 143.692C1903.34 167.444 1916.2 194.538 1922.11 222.045L1920.95 222.144C1908.31 163.273 1865.92 111.063 1804.66 78.9029C1776.01 63.84 1741.93 53.0195 1706.1 47.6179C1662.23 41.0033 1621.48 42.4377 1588.26 51.7663C1575.97 55.1965 1564.92 59.493 1554.47 64.9015C1525.08 80.1161 1503.3 105.168 1491.48 137.349C1485.05 154.725 1482.24 172.357 1479.53 189.409L1479.5 189.583C1478.29 197.181 1477.91 206.631 1477.51 216.636C1476.28 247.437 1474.74 285.767 1449.15 310.704C1442.87 316.864 1435.22 321.974 1426.42 325.892C1416.94 330.117 1405.79 333.1 1393.28 334.761C1385.84 335.747 1378.16 336.242 1370.2 336.242Z" fill="#FFE492"/>
<path d="M339.41 340.513C323.317 340.513 305.793 338.524 286.016 334.463C266.365 330.428 246.931 324.857 228.854 319.44C225.581 318.453 222.333 317.468 219.107 316.491C203.048 311.622 187.879 307.024 173.702 303.443C117.172 289.166 63.289 276.334 11.1783 263.927L2.54407 261.87L2.97824 261.137L11.6125 263.193C63.7259 275.603 117.617 288.435 174.158 302.716C188.373 306.306 203.562 310.91 219.64 315.785C222.864 316.763 226.112 317.747 229.382 318.732C266.488 329.852 305.911 340.629 344.147 339.669C391.149 338.428 419.317 315.204 438.602 295.113C443.543 289.974 448.303 284.854 451.897 280.967C453.881 278.825 455.851 276.684 457.816 274.549C474.112 256.849 489.504 240.13 509.746 224.366C536.465 203.562 570.697 182.412 606.141 164.817C639.023 148.492 672.206 135.594 704.77 126.482C742.121 116.029 778.603 110.605 813.204 110.359C865.268 109.867 913.624 121.228 956.911 144.122C980.907 156.829 1002.42 170.574 1020.31 182.345C1030.04 188.75 1039.77 195.316 1049.18 201.666C1082.49 224.145 1116.94 247.388 1155.58 266.214C1172.83 274.626 1190.95 282.776 1209.41 290.436C1232.26 299.896 1255.47 308.579 1278.39 316.245C1314.21 328.226 1358.79 343.138 1403.58 337.846C1428.23 334.933 1446.38 327.125 1459.05 313.974C1484.13 288.089 1482.44 247.78 1481.08 215.392C1480.68 205.814 1480.29 196.766 1480.75 189.482C1481.78 173.061 1483.33 153.977 1488.71 135.285C1493.24 119.447 1500.09 105.118 1509.05 92.6971C1519.19 78.6468 1532.18 66.8676 1547.67 57.6855C1557.92 51.6007 1569.42 46.4362 1581.83 42.3332C1599.55 36.4593 1619.42 32.7659 1640.92 31.3576C1661.04 30.0381 1682.26 30.7318 1703.99 33.4178C1722.31 35.6837 1740.37 39.4102 1757.66 44.4963C1775.06 49.6137 1791.28 55.9896 1805.88 63.4461C1822.7 72.0321 1838.17 82.1711 1851.85 93.5825C1864.81 104.394 1876.3 116.452 1886 129.42C1904.14 153.681 1916.08 181.335 1920.52 209.389L1919.29 209.467C1909.75 149.224 1868.13 96.2249 1805.1 64.0579C1776.23 49.3087 1740.24 38.7008 1703.75 34.1882C1658.63 28.6089 1616.67 31.6661 1582.41 43.0287C1570.09 47.0986 1558.69 52.223 1548.51 58.259C1519.34 75.5599 1499.63 101.522 1489.93 135.427C1484.56 154.068 1483.01 173.119 1481.99 189.513C1481.53 196.771 1481.91 205.805 1482.31 215.371C1482.98 231.349 1483.74 249.46 1481.19 266.969C1478.23 287.285 1471.34 302.794 1460.11 314.383C1454 320.724 1446.41 325.945 1437.55 329.898C1427.99 334.168 1416.64 337.102 1403.81 338.616C1397.34 339.381 1390.87 339.728 1384.44 339.728C1345.95 339.728 1308.65 327.252 1277.81 316.937C1254.86 309.259 1231.62 300.563 1208.74 291.09C1190.25 283.419 1172.11 275.257 1154.83 266.833C1116.11 247.968 1081.63 224.701 1048.28 202.201C1038.87 195.853 1029.14 189.289 1019.42 182.887C1001.56 171.13 980.074 157.404 956.122 144.722C913.069 121.95 864.995 110.655 813.223 111.14C731.917 111.718 656.149 140.981 606.904 165.43C571.532 182.991 537.369 204.095 510.707 224.858C490.526 240.575 475.156 257.267 458.885 274.939C456.92 277.075 454.947 279.215 452.963 281.359C449.366 285.247 444.604 290.372 439.66 295.515C431.564 303.95 418.855 316.227 402.021 325.43C393.845 329.9 385.145 333.412 376.162 335.871C366.145 338.613 355.389 340.154 344.2 340.448C342.614 340.492 341.017 340.513 339.41 340.513Z" fill="#FFE492"/>
<path d="M344.577 364.777C328.465 364.777 310.977 362.635 291.304 358.264C270.935 353.739 250.798 347.377 233.788 341.749C228.561 340.016 223.345 338.259 218.3 336.56C204.197 331.81 190.875 327.322 178.314 323.658C133.205 310.499 88.3902 297.651 45.0484 285.225C30.712 281.115 15.8892 276.866 1.52258 272.739L2.06118 271.984C16.4278 276.111 31.2506 280.361 45.587 284.471C88.9288 296.896 133.749 309.746 178.86 322.907C191.455 326.581 204.793 331.073 218.913 335.83C223.955 337.529 229.171 339.284 234.392 341.017C269.671 352.684 310.592 365.035 349.776 363.873C397.886 362.412 424.907 337.053 443.077 315.125C447.735 309.507 452.239 303.867 455.641 299.581C457.388 297.381 459.125 295.183 460.859 292.99C476.446 273.268 491.167 254.641 511.068 236.753C536.952 213.487 571.156 189.408 607.375 168.95C657.815 140.583 735.773 105.981 820.726 102.228C874.752 99.7777 924.477 110.295 968.514 133.491C988.3 143.917 1007.87 155.944 1031.96 172.49C1044.14 180.851 1056.22 189.518 1067.9 197.896C1098.31 219.696 1129.74 242.238 1165.16 261.054C1182.32 270.171 1200.31 279.038 1218.63 287.408C1240.82 297.533 1264.01 307.164 1287.57 316.036C1323.75 329.581 1368.78 346.441 1414.11 341.669C1438.97 339.107 1457.75 331.028 1469.94 317.659C1494.67 290.603 1489.36 246.337 1485.48 214.017C1484.4 204.947 1483.37 196.38 1483.17 189.469C1482.72 174.109 1482.76 153.858 1487.09 133.404C1494.57 97.9598 1512.91 70.2531 1541.61 51.0575C1551.67 44.2947 1563.2 38.4191 1575.89 33.5927C1593.94 26.7183 1614.31 22.0942 1636.43 19.8509C1657.26 17.7384 1679.19 17.7716 1701.61 19.9503C1720.52 21.8292 1739.12 25.2351 1756.89 30.0701C1774.83 34.954 1791.47 41.1765 1806.35 48.565C1823.55 57.1022 1839.26 67.2761 1853.05 78.806C1866.12 89.7328 1877.56 101.962 1887.08 115.156C1904.94 139.928 1915.96 168.14 1918.94 196.742L1917.64 196.796C1911.22 135.178 1870.36 81.3874 1805.55 49.2187C1776.16 34.6246 1739.18 24.5204 1701.41 20.7695C1654.86 16.2464 1611.69 20.9264 1576.57 34.3039C1563.98 39.0901 1552.54 44.9187 1542.56 51.6275C1514.06 70.6958 1495.83 98.2456 1488.39 133.515C1484.06 153.913 1484.03 174.125 1484.48 189.455C1484.68 196.341 1485.7 204.898 1486.79 213.956C1488.79 230.663 1491.06 249.6 1489.77 268.088C1488.25 289.616 1482.14 305.967 1471.07 318.076C1465.11 324.607 1457.58 329.94 1448.68 333.928C1439.04 338.253 1427.48 341.132 1414.33 342.488C1393.94 344.634 1371.99 342.706 1347.24 336.593C1325.72 331.279 1305.1 323.561 1286.91 316.753C1263.32 307.869 1240.09 298.223 1217.87 288.084C1199.52 279.702 1181.5 270.823 1164.32 261.693C1128.83 242.839 1097.36 220.273 1066.93 198.45C1055.25 190.074 1043.17 181.413 1031 173.058C1006.95 156.542 987.42 144.538 967.681 134.136C923.905 111.072 874.496 100.618 820.814 103.053C736.227 106.792 658.527 141.287 608.238 169.569C572.091 189.985 537.957 214.014 512.129 237.23C492.283 255.068 477.584 273.669 462.022 293.362C460.288 295.556 458.551 297.754 456.803 299.954C453.398 304.243 448.892 309.889 444.228 315.512C425.899 337.635 398.606 363.221 349.834 364.701C348.1 364.751 346.344 364.777 344.577 364.777Z" fill="#FFE492"/>
<path d="M349.847 393.045C305.824 393.045 259.633 375.896 218.684 360.692C206.101 356.02 194.216 351.607 182.922 347.875L0.5 287.608L1.13481 286.836L183.556 347.103C194.881 350.844 206.78 355.262 219.38 359.94C261.911 375.732 310.119 393.631 355.404 392.079C404.574 390.397 430.477 362.903 447.55 339.141C453.134 331.369 458.526 323.461 463.741 315.813C478.006 294.897 492.755 273.268 512.384 253.138C527.971 237.155 547.333 220.393 568.378 204.666C591.464 187.412 616.182 171.582 641.84 157.617C670.131 142.221 698.898 129.485 727.337 119.764C758.793 109.014 789.783 101.994 819.45 98.9006C878.882 92.7043 932.935 102.108 980.105 126.853C1019.31 147.415 1052.62 172.842 1084.84 197.432C1112.89 218.836 1141.89 240.967 1174.73 259.885C1212.66 281.736 1253.71 301.9 1296.75 319.817C1333.01 334.913 1378.14 353.702 1424.65 349.479C1463.93 345.913 1486.64 329.243 1494.07 298.514C1500.4 272.376 1494.38 241.37 1489.55 216.457C1487.9 207.967 1486.34 199.947 1485.58 193.444C1481.37 157.594 1484.05 128 1493.79 102.972C1499.87 87.3568 1508.84 73.4372 1520.45 61.6006C1533.42 48.3782 1550.07 37.3555 1569.94 28.8392C1587.13 21.4716 1606.5 16.1206 1627.52 12.9344C1647.53 9.90157 1668.59 8.88541 1690.13 9.91377C1732.49 11.9356 1773.93 21.794 1806.81 37.671C1824.38 46.1576 1840.34 56.3681 1854.24 68.0165C1867.4 79.0566 1878.81 91.4581 1888.15 104.879C1905.72 130.161 1915.82 158.933 1917.34 188.081L1915.97 188.111C1912.73 126.039 1871.61 70.0593 1805.97 38.3664C1736.27 4.70919 1637.33 1.00533 1570.7 29.5626C1504.71 57.8514 1477.31 111.436 1486.95 193.38C1487.71 199.862 1489.26 207.871 1490.91 216.351C1495.75 241.317 1501.79 272.39 1495.43 298.646C1491.97 312.947 1485.01 324.441 1474.75 332.809C1468.98 337.513 1462.02 341.358 1454.07 344.234C1445.61 347.295 1435.78 349.35 1424.84 350.343C1420.37 350.749 1415.82 350.953 1411.19 350.953C1394.34 350.953 1376.39 348.25 1356.72 342.774C1334.56 336.603 1313.17 327.7 1295.99 320.547C1252.9 302.604 1211.78 282.414 1173.8 260.532C1140.89 241.574 1111.86 219.417 1083.78 197.99C1051.6 173.431 1018.32 148.036 979.223 127.526C932.369 102.95 878.687 93.6072 819.665 99.7617C700.274 112.21 577.29 188.233 513.544 253.598C493.967 273.672 479.238 295.272 464.992 316.16C459.773 323.811 454.379 331.725 448.79 339.504C437.454 355.28 426.259 366.576 413.557 375.05C405.629 380.339 397.028 384.508 387.992 387.441C377.946 390.702 367.003 392.557 355.467 392.953C353.604 393.014 351.727 393.045 349.847 393.045Z" fill="#FFE492"/>
</g>
</svg>
