<svg width="19" height="20" viewBox="0 0 19 20" fill="none" xmlns="http://www.w3.org/2000/svg">
<path d="M9.48901 0.891113C9.14844 0.891113 8.80811 0.909422 8.46948 0.94592C8.1591 0.977623 7.85253 1.02962 7.55008 1.09271C7.49155 1.10495 7.43298 1.11787 7.37445 1.13138C5.59245 1.53711 3.96529 2.44822 2.68809 3.75546C2.56932 3.8772 2.45305 4.00254 2.33935 4.13146C-1.11075 8.0923 -0.696703 14.1 3.26417 17.5501C7.05619 20.8532 12.7641 20.6334 16.291 17.0486C16.41 16.9269 16.5262 16.8015 16.6397 16.6726C18.1623 14.9387 19.0013 12.7096 19 10.402C19 5.14925 14.7418 0.891074 9.48901 0.891113ZM3.11069 4.231C3.16078 4.17901 3.21277 4.12924 3.26382 4.07883C3.32278 4.02081 3.38143 3.96248 3.44167 3.90636C3.49461 3.85691 3.54914 3.80935 3.60336 3.76116C3.66454 3.70695 3.72541 3.65274 3.78819 3.60043C3.84335 3.55382 3.9001 3.50912 3.95653 3.4641C4.01994 3.41338 4.08334 3.36265 4.14865 3.31383C4.20635 3.2704 4.265 3.22823 4.32397 3.18702C4.3896 3.1401 4.45554 3.09191 4.52243 3.04816C4.58235 3.00758 4.6429 2.96827 4.70377 2.92927C4.77162 2.88584 4.83978 2.84304 4.90858 2.80246C4.97052 2.76549 5.03285 2.72911 5.09562 2.6934C5.16581 2.65345 5.23627 2.61446 5.30709 2.57642C5.37049 2.54261 5.4339 2.50952 5.4973 2.47718C5.56959 2.44073 5.6425 2.40554 5.71574 2.37098C5.77915 2.34086 5.84509 2.31074 5.9104 2.28221C5.9849 2.25051 6.06035 2.2188 6.13581 2.1871C6.20143 2.16015 6.26674 2.13384 6.333 2.10848C6.40972 2.07931 6.48739 2.05204 6.56507 2.02478C6.63133 2.00164 6.69759 1.97849 6.7648 1.95662C6.84374 1.93126 6.92331 1.9078 7.0032 1.88465C7.0701 1.86531 7.13636 1.84534 7.20357 1.82727C7.22925 1.82061 7.25493 1.81522 7.28061 1.80856C6.34219 2.71975 5.64579 3.85061 5.25446 5.09872C4.50198 4.90026 3.77352 4.61992 3.08216 4.26271C3.09262 4.25161 3.1015 4.24052 3.11069 4.231ZM2.6548 4.74143C3.41635 5.15404 4.22391 5.47543 5.06075 5.69886C4.65051 7.12535 4.43517 8.60077 4.42066 10.085H0.619454C0.688528 8.12776 1.40427 6.24864 2.6548 4.74143ZM2.6548 16.0626C1.40435 14.5554 0.688607 12.6763 0.619454 10.7191H4.42066C4.43517 12.2033 4.65047 13.6787 5.06075 15.1052C4.22395 15.3287 3.41639 15.6501 2.6548 16.0626ZM7.20167 18.9781C7.13763 18.9619 7.07137 18.941 7.00542 18.9216C6.92521 18.8982 6.84469 18.8747 6.76543 18.849C6.69854 18.8275 6.6326 18.8043 6.56665 18.7812C6.48866 18.7542 6.41067 18.7267 6.33363 18.6972C6.26769 18.6721 6.2027 18.6458 6.13739 18.6192C6.06162 18.5875 5.98585 18.5558 5.91071 18.5241C5.84604 18.4955 5.78168 18.4662 5.71764 18.4359C5.64377 18.4011 5.57022 18.3656 5.49572 18.3288C5.43231 18.2971 5.36891 18.2654 5.3055 18.2308C5.23385 18.1925 5.16284 18.1531 5.09182 18.1126C5.02841 18.0774 4.96818 18.0412 4.90699 18.0045C4.83724 17.9626 4.76877 17.9195 4.70029 17.8754C4.64005 17.8371 4.57981 17.7981 4.52053 17.7581C4.453 17.7125 4.38611 17.6649 4.31985 17.6174C4.26183 17.5758 4.20381 17.5343 4.14675 17.4905C4.08112 17.4411 4.01677 17.39 3.95273 17.3387C3.89661 17.294 3.84081 17.2496 3.78597 17.2036C3.72256 17.151 3.66137 17.0962 3.59987 17.0416C3.54597 16.9938 3.49176 16.9465 3.43913 16.8977C3.37858 16.8413 3.31993 16.7826 3.26096 16.7246C3.20992 16.6742 3.15793 16.6244 3.10784 16.5727C3.09864 16.5629 3.08977 16.5528 3.08057 16.5433C3.7719 16.1859 4.50036 15.9054 5.25287 15.7069C5.64429 16.955 6.34065 18.0858 7.27902 18.9971C7.25334 18.9904 7.22735 18.985 7.20167 18.9781ZM9.17202 19.2539C7.81544 19.0611 6.62625 17.6453 5.87806 15.5544C6.95977 15.3122 8.06364 15.1823 9.17202 15.1667V19.2539ZM9.17202 14.5326C7.99623 14.5481 6.82539 14.6877 5.67896 14.9492C5.28089 13.5738 5.0709 12.1508 5.05473 10.7191H9.17202V14.5326ZM9.17202 10.085H5.05473C5.07086 8.65324 5.28085 7.23025 5.67896 5.85484C6.82539 6.11627 7.99627 6.25593 9.17202 6.27142V10.085ZM9.17202 5.63736C8.0636 5.6219 6.95977 5.49196 5.87806 5.24963C6.62625 3.1588 7.81544 1.74294 9.17202 1.55018V5.63736ZM16.3233 4.74143C17.5738 6.24868 18.2895 8.1278 18.3586 10.085H14.5574C14.5429 8.60077 14.3276 7.12535 13.9174 5.69886C14.7542 5.47532 15.5617 5.15396 16.3233 4.74143ZM11.7739 1.82568C11.8405 1.84217 11.9067 1.86309 11.9727 1.88243C12.0529 1.90589 12.1334 1.92935 12.2127 1.95503C12.2796 1.97659 12.3455 1.99973 12.4114 2.02288C12.4894 2.04983 12.5674 2.07741 12.6445 2.10689C12.7104 2.13194 12.7754 2.15825 12.8407 2.18488C12.9165 2.21658 12.9923 2.24829 13.0674 2.27999C13.1321 2.30852 13.1964 2.33789 13.2605 2.36813C13.3343 2.403 13.4079 2.43851 13.4824 2.47528C13.5458 2.50699 13.6092 2.53869 13.6726 2.57325C13.7443 2.61161 13.8153 2.65092 13.8863 2.6915C13.9497 2.72669 14.0099 2.76283 14.0711 2.79961C14.1409 2.84145 14.2093 2.88457 14.2778 2.92864C14.3381 2.967 14.3983 3.00599 14.4576 3.04594C14.5251 3.09159 14.5917 3.13883 14.6579 3.18638C14.7163 3.22792 14.7743 3.26976 14.8317 3.3132C14.897 3.36234 14.961 3.41338 15.0254 3.46474C15.0812 3.50912 15.1373 3.55351 15.1921 3.59979C15.2555 3.65242 15.3167 3.70727 15.3782 3.7618C15.4321 3.80967 15.4863 3.85691 15.539 3.90573C15.5995 3.96216 15.6582 4.02081 15.7171 4.07883C15.7682 4.12924 15.8202 4.17901 15.8703 4.23069C15.8795 4.24052 15.8883 4.25066 15.8975 4.26017C15.2062 4.61755 14.4777 4.898 13.7252 5.0965C13.3331 3.84827 12.6358 2.71753 11.6965 1.80666C11.7222 1.81332 11.7482 1.81871 11.7739 1.82568ZM9.80608 1.55018C11.1627 1.74294 12.3518 3.1588 13.1 5.24963C12.0183 5.49184 10.9145 5.62178 9.80608 5.63736V1.55018ZM9.80608 6.27142C10.9819 6.25597 12.1527 6.11631 13.2991 5.85484C13.6972 7.23025 13.9072 8.65324 13.9234 10.085H9.80608V6.27142ZM9.80608 10.7191H13.9234C13.9072 12.1508 13.6973 13.5738 13.2991 14.9492C12.1527 14.6878 10.9819 14.5481 9.80608 14.5326V10.7191ZM9.80608 19.2539V15.1667C10.9145 15.1822 12.0183 15.3121 13.1 15.5544C12.3518 17.6453 11.1627 19.0611 9.80608 19.2539ZM15.8674 16.5731C15.8173 16.6247 15.7656 16.6745 15.7146 16.7249C15.6556 16.7829 15.5967 16.8416 15.5361 16.898C15.4835 16.9472 15.4293 16.9931 15.3754 17.0423C15.3139 17.0968 15.2527 17.1513 15.1899 17.204C15.1344 17.2502 15.078 17.2949 15.0216 17.34C14.9582 17.3907 14.8948 17.4414 14.8295 17.4902C14.7718 17.5337 14.7131 17.5758 14.6541 17.617C14.5885 17.664 14.5226 17.7122 14.4557 17.7559C14.3958 17.7965 14.3352 17.8358 14.2743 17.8745C14.2065 17.9182 14.1381 17.9605 14.0692 18.0013C14.0058 18.0384 13.9452 18.0745 13.8828 18.1103C13.8126 18.1503 13.742 18.1893 13.671 18.2273C13.6076 18.2611 13.5442 18.2942 13.4808 18.3266C13.4085 18.363 13.3356 18.3982 13.2624 18.4328C13.199 18.4629 13.133 18.493 13.0677 18.5215C12.9932 18.5532 12.9177 18.5849 12.8423 18.6166C12.7767 18.6433 12.7114 18.6699 12.6454 18.695C12.5681 18.7244 12.4904 18.752 12.4124 18.779C12.3465 18.8021 12.2805 18.8253 12.2136 18.8468C12.1344 18.8725 12.0551 18.896 11.9743 18.9191C11.908 18.9387 11.8414 18.9584 11.7745 18.9765C11.7489 18.9831 11.7232 18.9885 11.6975 18.9952C12.6359 18.084 13.3323 16.9531 13.7236 15.705C14.4761 15.9035 15.2046 16.1838 15.8959 16.541C15.8855 16.5525 15.8766 16.5635 15.8674 16.5731ZM16.3233 16.0626C15.5618 15.65 14.7542 15.3286 13.9174 15.1052C14.3276 13.6787 14.5429 12.2033 14.5574 10.7191H18.3586C18.2896 12.6763 17.5738 14.5554 16.3233 16.0626Z" fill="white"/>
</svg>
