<svg width="15" height="16" viewBox="0 0 15 16" fill="none" xmlns="http://www.w3.org/2000/svg">
<path d="M14.9962 15.4999V15.4993H14.9999V9.98076C14.9999 7.28105 14.4246 5.20142 11.3002 5.20142C9.79826 5.20142 8.79033 6.03402 8.37884 6.82337H8.3354V5.45346H5.37305V15.4993H8.45767V10.525C8.45767 9.21524 8.70344 7.94877 10.3091 7.94877C11.8911 7.94877 11.9147 9.44345 11.9147 10.609V15.4999H14.9962Z" fill="#F7F7EE"/>
<path d="M0.223633 5.42554H3.35796V15.2763H0.223633V5.42554Z" fill="#F7F7EE"/>
<path d="M1.79104 0.5C0.802303 0.5 0 1.29856 0 2.28269C0 3.26683 0.802303 4.08209 1.79104 4.08209C2.77979 4.08209 3.58209 3.26683 3.58209 2.28269C3.58147 1.29856 2.77916 0.5 1.79104 0.5V0.5Z" fill="#F7F7EE"/>
</svg>
